<?xml version="1.0" encoding="UTF-8" standalone="no"?>
<!-- Created with Inkscape (http://www.inkscape.org/) -->

<svg xmlns:dc="http://purl.org/dc/elements/1.1/" xmlns:cc="http://creativecommons.org/ns#" xmlns:rdf="http://www.w3.org/1999/02/22-rdf-syntax-ns#" xmlns:svg="http://www.w3.org/2000/svg" xmlns="http://www.w3.org/2000/svg" xmlns:sodipodi="http://sodipodi.sourceforge.net/DTD/sodipodi-0.dtd" xmlns:inkscape="http://www.inkscape.org/namespaces/inkscape" width="150mm" height="180mm" viewBox="0 0 150 180" version="1.1" id="svg8" inkscape:version="0.92.1 r15371" sodipodi:docname="1.svg" inkscape:export-filename="D:\img\_FPT\Ban hang\img\t\d\1.png" inkscape:export-xdpi="144" inkscape:export-ydpi="144">
  <defs id="defs2" />
  <sodipodi:namedview id="base" pagecolor="#ffa25d" bordercolor="#666666" borderopacity="1.0" inkscape:pageopacity="0" inkscape:pageshadow="2" inkscape:zoom="0.83913688" inkscape:cx="142.00349" inkscape:cy="467.5149" inkscape:document-units="mm" inkscape:current-layer="layer1" showgrid="false" inkscape:pagecheckerboard="true" inkscape:snap-global="false" inkscape:window-width="1920" inkscape:window-height="1017" inkscape:window-x="-8" inkscape:window-y="-8" inkscape:window-maximized="1" />
  <metadata id="metadata5">
    <rdf:RDF>
      <cc:Work rdf:about="">
        <dc:format>image/svg+xml</dc:format>
        <dc:type rdf:resource="http://purl.org/dc/dcmitype/StillImage" />
        <dc:title></dc:title>
      </cc:Work>
    </rdf:RDF>
  </metadata>
  <g inkscape:label="Layer 1" inkscape:groupmode="layer" id="layer1" transform="translate(0,-117)">
    <rect style="opacity:1;vector-effect:none;fill:#ffa25d;fill-opacity:1;fill-rule:nonzero;stroke:none;stroke-width:6;stroke-linecap:round;stroke-linejoin:round;stroke-miterlimit:4;stroke-dasharray:none;stroke-dashoffset:0;stroke-opacity:1;paint-order:stroke fill markers" id="rect4485" width="16.944479" height="16.944479" x="-54.17775" y="142.04718" />
    <rect y="117" x="0" height="180" width="150" id="rect4487" style="opacity:1;vector-effect:none;fill:#ffa25d;fill-opacity:1;fill-rule:nonzero;stroke:none;stroke-width:6;stroke-linecap:round;stroke-linejoin:round;stroke-miterlimit:4;stroke-dasharray:none;stroke-dashoffset:0;stroke-opacity:1;paint-order:stroke fill markers" />
    <g aria-label="C« lµ ai?
Ch¸u kh«ng biÕt!" style="font-style:normal;font-variant:normal;font-weight:500;font-stretch:normal;font-size:10.58333302px;line-height:1.25;font-family:'.VnCooper';-inkscape-font-specification:'.VnCooper, Medium';font-variant-ligatures:normal;font-variant-caps:normal;font-variant-numeric:normal;font-feature-settings:normal;text-align:center;letter-spacing:0px;word-spacing:0px;writing-mode:lr-tb;text-anchor:middle;fill:#ffffff;fill-opacity:1;stroke:none;stroke-width:0.26458332" id="text4491">
      <path d="m 51.671967,136.08144 q 0,-1.58647 1.281576,-2.7311 1.247986,-1.10071 2.847371,-1.10071 0.475423,0 1.005107,0.1602 l 0.9741,0.35915 0.273885,-0.031 0.201539,-0.0439 q 0.33848,0 0.676961,0.50901 0.33848,0.51935 0.33848,1.33325 0,0.47542 -0.253214,0.79323 -0.26355,0.31781 -0.731222,0.31781 -0.444417,0 -1.046447,-0.94051 -0.61495,-0.93276 -1.651062,-0.93276 -0.519348,0 -0.8785,0.45476 -0.276469,0.39274 -0.276469,0.88883 0,1.20665 0.604615,2.03347 0.645955,0.86816 1.713073,0.86816 0.625285,0 1.090373,-0.22221 l 0.782898,-0.50901 q 0.191203,0 0.328145,0.1912 0.129191,0.20154 0.129191,0.43409 0,0.41082 -0.307474,0.88883 -0.338481,0.55035 -0.710551,0.55035 l -0.58136,0.22221 -0.602031,0.21188 q -0.266133,0.0827 -0.573608,0.13694 l -0.591695,0.0413 q -1.651062,0 -2.847371,-1.15238 -1.19631,-1.14205 -1.19631,-2.7311 z" style="font-style:normal;font-variant:normal;font-weight:500;font-stretch:normal;font-size:10.58333302px;font-family:'.VnCooper';-inkscape-font-specification:'.VnCooper, Medium';font-variant-ligatures:normal;font-variant-caps:normal;font-variant-numeric:normal;font-feature-settings:normal;text-align:center;writing-mode:lr-tb;text-anchor:middle;fill:#ffffff;stroke-width:0.26458332" id="path4536" />
      <path d="m 59.609467,137.37335 q 0,-1.34359 1.046448,-2.20142 0.963765,-0.77256 2.361612,-0.77256 1.299663,0 2.157491,0.88883 0.762228,0.81391 0.762228,1.88361 0,1.20664 -1.131714,2.0438 -1.038696,0.74931 -2.297017,0.74931 -1.206645,0 -2.030884,-0.66663 -0.868164,-0.7183 -0.868164,-1.92494 z m 5.2064,-3.93775 q 0,0.20154 -0.116272,0.31781 -0.116272,0.12661 -0.307475,0.12661 -0.222208,0 -0.813903,-0.30747 -0.594279,-0.29456 -0.816488,-0.29456 -0.273885,0 -0.868164,0.29456 -0.60203,0.30747 -0.759644,0.30747 -0.149861,0 -0.297139,-0.12661 -0.116272,-0.13694 -0.116272,-0.31781 0,-0.35915 0.855245,-0.96118 0.857829,-0.60461 1.185974,-0.60461 0.31781,0 1.185974,0.61495 0.868164,0.61236 0.868164,0.95084 z m -2.253092,2.22209 q -0.224793,0 -0.382406,0.1912 -0.136942,0.22221 -0.136942,0.44442 0,0.74156 0.201538,1.41852 0.273885,0.91984 0.762227,0.91984 0.273885,0 0.379822,-0.17829 0.105937,-0.21187 0.105937,-0.478 0,-0.63304 -0.191203,-1.33325 -0.273885,-0.98444 -0.738973,-0.98444 z" style="font-style:normal;font-variant:normal;font-weight:500;font-stretch:normal;font-size:10.58333302px;font-family:'.VnCooper';-inkscape-font-specification:'.VnCooper, Medium';font-variant-ligatures:normal;font-variant-caps:normal;font-variant-numeric:normal;font-feature-settings:normal;text-align:center;writing-mode:lr-tb;text-anchor:middle;fill:#ffffff;stroke-width:0.26458332" id="path4538" />
      <path d="m 72.75595,135.86956 v 2.05414 0.39016 q 0,0.23254 0.05426,0.3514 0.03101,0.12661 0.30489,0.24288 0.276469,0.1266 0.276469,0.36948 0,0.41341 -0.700215,0.5917 -0.315226,0.0646 -1.046448,0.0646 h -0.222209 q -0.687296,0 -1.090372,-0.0956 -0.645956,-0.15761 -0.645956,-0.60203 0,-0.18087 0.255799,-0.30747 0.242879,-0.12661 0.33848,-0.35915 l 0.06201,-0.34882 q 0.03101,-0.22479 0.03101,-0.56327 l 0.03359,-1.32292 v -0.59169 -0.13695 q 0,-0.63562 -0.08527,-0.9741 -0.06459,-0.35915 -0.413411,-0.58136 -0.359151,-0.22221 -0.359151,-0.50901 0,-0.44442 0.868164,-0.76223 1.069702,-0.37982 2.030884,-0.37982 0.255798,0 0.348815,0.12661 0.0956,0.13694 0.0956,0.42374 l -0.0956,1.51154 z" style="font-style:normal;font-variant:normal;font-weight:500;font-stretch:normal;font-size:10.58333302px;font-family:'.VnCooper';-inkscape-font-specification:'.VnCooper, Medium';font-variant-ligatures:normal;font-variant-caps:normal;font-variant-numeric:normal;font-feature-settings:normal;text-align:center;writing-mode:lr-tb;text-anchor:middle;fill:#ffffff;stroke-width:0.26458332" id="path4540" />
      <path d="m 79.05014,137.28808 q 0,1.20665 0.31781,1.20665 0.31781,0 0.31781,0.21187 0,0.44442 -0.519348,0.84749 -0.516764,0.41083 -1.090372,0.41083 -0.465088,0 -0.772563,-0.25321 l -0.348816,-0.28681 q -0.328145,0.21187 -0.707967,0.39274 -0.359151,0.14728 -0.826823,0.14728 -0.738973,0 -1.206645,-0.35915 -0.550354,-0.42375 -0.550354,-1.15239 0,-0.63562 0.594279,-1.12396 0.707967,-0.56069 1.989543,-0.56069 0.26355,0 0.359151,-0.031 0.116272,-0.0646 0.116272,-0.32815 0,-0.57102 -0.116272,-0.82424 -0.126607,-0.2558 -0.379822,-0.2558 -0.255798,0 -0.550354,0.36174 -0.604614,0.7829 -1.090372,0.7829 -0.232544,0 -0.423747,-0.1602 -0.08527,-0.0853 -0.126607,-0.17828 l -0.04393,-0.24547 q 0,-0.60203 1.018025,-1.07745 0.909506,-0.41341 1.77767,-0.41341 0.718302,0 1.353922,0.31781 0.909505,0.47542 0.909505,1.51153 z m -3.185852,0.93276 q 0,0.22221 0.116272,0.39016 0.116272,0.18087 0.338481,0.18087 0.245463,0 0.37207,-0.2558 0.06201,-0.15762 0.06201,-0.4961 0,-0.24288 -0.03101,-0.36948 -0.04134,-0.12919 -0.253214,-0.12919 -0.255799,0 -0.423747,0.20153 -0.180868,0.21188 -0.180868,0.47801 z m 1.906861,-6.02289 q 0,0.0749 0.496093,0.47543 0.24288,0.1912 0.24288,0.40307 0,0.20154 -0.167949,0.30748 -0.170532,0.0827 -0.403076,0.0827 -0.95343,0 -1.671733,-0.51677 -0.591695,-0.41341 -0.591695,-0.72088 0,-0.31781 0.516765,-0.47542 0.08527,-0.0207 0.31781,-0.19121 0.222208,-0.15761 0.37207,-0.15761 0.09302,0 0.328145,0.23254 z" style="font-style:normal;font-variant:normal;font-weight:500;font-stretch:normal;font-size:10.58333302px;font-family:'.VnCooper';-inkscape-font-specification:'.VnCooper, Medium';font-variant-ligatures:normal;font-variant-caps:normal;font-variant-numeric:normal;font-feature-settings:normal;text-align:center;writing-mode:lr-tb;text-anchor:middle;fill:#ffffff;stroke-width:0.26458332" id="path4542" />
      <path d="m 86.101389,137.5413 q -0.255798,0 -0.423747,0.20153 -0.180867,0.21188 -0.180867,0.47801 0,0.22221 0.116272,0.39016 0.116272,0.18087 0.33848,0.18087 0.245463,0 0.372071,-0.2558 0.06201,-0.15762 0.06201,-0.4961 0,-0.24288 -0.03101,-0.36948 -0.04134,-0.12919 -0.253214,-0.12919 z m 2.570902,-1.31259 v 1.05937 q 0,1.20665 0.31781,1.20665 0.31781,0 0.31781,0.21187 0,0.44442 -0.519348,0.84749 -0.519348,0.41083 -1.080037,0.41083 -0.465088,0 -0.772563,-0.25321 l -0.348816,-0.28681 q -0.328145,0.21187 -0.707967,0.39274 -0.359151,0.14728 -0.826823,0.14728 -0.738973,0 -1.206644,-0.35915 -0.550354,-0.42375 -0.550354,-1.15239 0,-0.63562 0.594279,-1.12396 0.707967,-0.56069 1.989542,-0.56069 0.26355,0 0.359151,-0.031 0.116272,-0.0646 0.116272,-0.32815 0,-0.57102 -0.116272,-0.82424 -0.126607,-0.2558 -0.379821,-0.2558 -0.255799,0 -0.550354,0.36174 -0.604615,0.7829 -1.090373,0.7829 -0.232544,0 -0.423747,-0.1602 -0.08527,-0.0853 -0.126607,-0.17828 l -0.04393,-0.24547 q 0,-0.60203 1.018026,-1.07745 0.89917,-0.40308 1.777669,-0.40308 0.772563,0 1.353922,0.30748 0.89917,0.46509 0.89917,1.51153 z" style="font-style:normal;font-variant:normal;font-weight:500;font-stretch:normal;font-size:10.58333302px;font-family:'.VnCooper';-inkscape-font-specification:'.VnCooper, Medium';font-variant-ligatures:normal;font-variant-caps:normal;font-variant-numeric:normal;font-feature-settings:normal;text-align:center;writing-mode:lr-tb;text-anchor:middle;fill:#ffffff;stroke-width:0.26458332" id="path4544" />
      <path d="m 92.679797,134.9058 v 2.95331 q 0,0.71055 0.423747,1.0051 0.201538,0.13953 0.201538,0.3514 0,0.41083 -0.731221,0.6227 -0.410828,0.0956 -1.090373,0.0956 -1.193725,0 -1.627807,-0.23254 -0.266134,-0.14728 -0.266134,-0.43408 0,-0.20154 0.255798,-0.39274 0.242879,-0.17829 0.304891,-0.33848 l 0.04392,-0.24288 0.04134,-0.27389 0.03101,-0.82682 q 0,-0.69763 -0.06201,-0.91984 -0.03101,-0.1912 -0.348815,-0.34882 -0.29714,-0.17053 -0.29714,-0.41341 0,-0.34881 0.857829,-0.66662 1.152384,-0.40308 1.935282,-0.40308 0.211873,0 0.286804,0.14986 z m -0.05168,-1.83968 q 0,0.54002 -0.793233,0.82424 -0.61495,0.21187 -1.25057,0.21187 -0.348816,0 -0.622701,-0.15761 -0.297139,-0.20154 -0.297139,-0.56069 0,-0.43409 0.762227,-0.7519 0.666626,-0.23254 1.173055,-0.23254 0.413412,0 0.66921,0.12661 0.359151,0.17828 0.359151,0.54002 z" style="font-style:normal;font-variant:normal;font-weight:500;font-stretch:normal;font-size:10.58333302px;font-family:'.VnCooper';-inkscape-font-specification:'.VnCooper, Medium';font-variant-ligatures:normal;font-variant-caps:normal;font-variant-numeric:normal;font-feature-settings:normal;text-align:center;writing-mode:lr-tb;text-anchor:middle;fill:#ffffff;stroke-width:0.26458332" id="path4546" />
      <path d="m 95.485828,133.90069 q -0.05426,0.52968 -0.372071,0.82682 -0.328145,0.30748 -0.824239,0.30748 -0.359151,0 -0.571024,-0.22221 -0.222209,-0.21187 -0.222209,-0.55035 0,-0.7519 0.656291,-1.34618 0.728638,-0.66662 1.904276,-0.66662 0.930176,0 1.713074,0.51935 0.901754,0.59169 0.901754,1.47019 0,0.9741 -1.185974,1.45211 -0.498678,0.18862 -0.772563,0.75964 -0.191203,0.46767 -0.720886,0.46767 -0.707967,0 -0.707967,-0.70021 0,-0.36949 0.28422,-0.8785 0.625285,-1.03611 0.625285,-1.4056 0,-0.21187 -0.08527,-0.38241 -0.08268,-0.15761 -0.284221,-0.15761 -0.136942,0 -0.232544,0.0956 -0.04393,0.062 -0.105936,0.41083 z m 1.596801,4.89118 q 0,0.45475 -0.33848,0.8139 -0.348816,0.35915 -0.834574,0.35915 -0.266134,0 -0.444418,-0.0724 -0.191203,-0.0646 -0.392741,-0.26613 -0.33848,-0.35915 -0.33848,-0.83457 0,-0.48835 0.348816,-0.83716 0.33848,-0.33848 0.826823,-0.33848 0.475423,0 0.824239,0.33848 0.348815,0.34881 0.348815,0.83716 z" style="font-style:normal;font-variant:normal;font-weight:500;font-stretch:normal;font-size:10.58333302px;font-family:'.VnCooper';-inkscape-font-specification:'.VnCooper, Medium';font-variant-ligatures:normal;font-variant-caps:normal;font-variant-numeric:normal;font-feature-settings:normal;text-align:center;writing-mode:lr-tb;text-anchor:middle;fill:#ffffff;stroke-width:0.26458332" id="path4548" />
      <path d="m 26.433198,149.3106 q 0,-1.58646 1.281576,-2.7311 1.247986,-1.1007 2.847371,-1.1007 0.475423,0 1.005107,0.16019 l 0.974101,0.35915 0.273885,-0.031 0.201538,-0.0439 q 0.33848,0 0.676961,0.50902 0.338481,0.51934 0.338481,1.33325 0,0.47542 -0.253215,0.79323 -0.26355,0.31781 -0.731221,0.31781 -0.444418,0 -1.046448,-0.94051 -0.61495,-0.93276 -1.651062,-0.93276 -0.519348,0 -0.878499,0.45475 -0.276469,0.39274 -0.276469,0.88884 0,1.20664 0.604614,2.03346 0.645955,0.86817 1.713074,0.86817 0.625284,0 1.090372,-0.22221 l 0.782898,-0.50901 q 0.191203,0 0.328146,0.1912 0.129191,0.20154 0.129191,0.43408 0,0.41083 -0.307475,0.88884 -0.338481,0.55035 -0.710551,0.55035 l -0.58136,0.22221 -0.60203,0.21187 q -0.266134,0.0827 -0.573609,0.13695 l -0.591695,0.0413 q -1.651062,0 -2.847371,-1.15239 -1.19631,-1.14205 -1.19631,-2.7311 z" style="font-style:normal;font-variant:normal;font-weight:500;font-stretch:normal;font-size:10.58333302px;font-family:'.VnCooper';-inkscape-font-specification:'.VnCooper, Medium';font-variant-ligatures:normal;font-variant-caps:normal;font-variant-numeric:normal;font-feature-settings:normal;text-align:center;writing-mode:lr-tb;text-anchor:middle;fill:#ffffff;stroke-width:0.26458332" id="path4550" />
      <path d="m 41.057628,149.76536 0.04393,1.70532 q 0,0.50643 0.348816,0.79323 0.157613,0.12661 0.167948,0.29714 0,0.35915 -0.718302,0.5271 l -0.444417,0.0543 -0.58136,0.0207 q -0.795817,0 -1.196309,-0.12661 -0.413412,-0.1266 -0.413412,-0.41341 0,-0.11627 0.157613,-0.31781 0.160197,-0.20154 0.224793,-0.51676 l 0.06201,-0.47801 0.01034,-0.58136 q 0,-0.63562 -0.0956,-0.95343 -0.157613,-0.57102 -0.666626,-0.57102 -0.410827,0 -0.550354,0.32814 -0.07235,0.26613 -0.07235,0.69763 v 1.2299 q 0,0.48576 0.198955,0.70797 0.191202,0.22221 0.222208,0.36949 0,0.27646 -0.390157,0.46767 -0.382405,0.15761 -1.21698,0.15761 -1.025777,0 -1.493449,-0.20154 -0.369486,-0.15761 -0.369486,-0.44441 0,-0.11628 0.31781,-0.43409 0.167948,-0.14727 0.26355,-0.47542 l 0.07493,-0.43408 q 0.031,-0.25322 0.031,-0.64596 l 0.03101,-1.40818 -0.02067,-0.82424 -0.02067,-0.61495 q 0,-0.37982 -0.328145,-0.58136 -0.328146,-0.1912 -0.328146,-0.40307 0,-0.48576 1.377177,-0.84491 0.475424,-0.0956 1.384929,-0.22221 0.222208,0 0.276469,0.0827 0.06201,0.0646 0.06201,0.31781 l -0.06201,2.0128 q 0,0.31522 0.04134,0.42116 0.04134,0.10594 0.211873,0.11627 0.328145,-0.35915 0.676961,-0.63304 0.392741,-0.30747 0.963766,-0.30747 0.963765,0 1.428853,0.5917 0.390157,0.51934 0.390157,1.53479 z" style="font-style:normal;font-variant:normal;font-weight:500;font-stretch:normal;font-size:10.58333302px;font-family:'.VnCooper';-inkscape-font-specification:'.VnCooper, Medium';font-variant-ligatures:normal;font-variant-caps:normal;font-variant-numeric:normal;font-feature-settings:normal;text-align:center;writing-mode:lr-tb;text-anchor:middle;fill:#ffffff;stroke-width:0.26458332" id="path4552" />
      <path d="m 47.258799,150.51725 q 0,1.20664 0.31781,1.20664 0.31781,0 0.31781,0.21188 0,0.44441 -0.519348,0.84749 -0.516764,0.41083 -1.090372,0.41083 -0.465088,0 -0.772563,-0.25322 l -0.348816,-0.2868 q -0.328145,0.21187 -0.707967,0.39274 -0.359151,0.14728 -0.826823,0.14728 -0.738973,0 -1.206645,-0.35915 -0.550354,-0.42375 -0.550354,-1.15239 0,-0.63562 0.594279,-1.12396 0.707967,-0.56069 1.989543,-0.56069 0.26355,0 0.359151,-0.031 0.116272,-0.0646 0.116272,-0.32814 0,-0.57103 -0.116272,-0.82424 -0.126607,-0.2558 -0.379822,-0.2558 -0.255798,0 -0.550354,0.36174 -0.604614,0.78289 -1.090372,0.78289 -0.232544,0 -0.423747,-0.16019 -0.08527,-0.0853 -0.126607,-0.17829 l -0.04393,-0.24546 q 0,-0.60203 1.018025,-1.07745 0.909506,-0.41342 1.77767,-0.41342 0.718302,0 1.353922,0.31781 0.909505,0.47543 0.909505,1.51154 z m -3.798217,-3.81114 q 0,-0.18862 0.232544,-0.39016 0.506429,-0.41341 0.506429,-0.48576 l -0.04134,-0.11885 -0.04134,-0.12661 q 0,-0.18862 0.5271,-0.28422 l 0.361735,-0.0336 q 0.444417,0 0.762227,0.10594 0.5271,0.1602 0.5271,0.48834 0,0.28422 -0.591695,0.7183 -0.741557,0.51935 -1.671733,0.51935 -0.307475,0 -0.454752,-0.0956 -0.116272,-0.0956 -0.116272,-0.29714 z m 0.612365,4.7439 q 0,0.22221 0.116272,0.39015 0.116272,0.18087 0.338481,0.18087 0.245463,0 0.37207,-0.2558 0.06201,-0.15761 0.06201,-0.49609 0,-0.24288 -0.03101,-0.36949 -0.04134,-0.12919 -0.253214,-0.12919 -0.255799,0 -0.423747,0.20154 -0.180868,0.21187 -0.180868,0.47801 z" style="font-style:normal;font-variant:normal;font-weight:500;font-stretch:normal;font-size:10.58333302px;font-family:'.VnCooper';-inkscape-font-specification:'.VnCooper, Medium';font-variant-ligatures:normal;font-variant-caps:normal;font-variant-numeric:normal;font-feature-settings:normal;text-align:center;writing-mode:lr-tb;text-anchor:middle;fill:#ffffff;stroke-width:0.26458332" id="path4554" />
      <path d="m 51.214631,148.07295 v 2.68718 q 0,0.34881 0.02067,0.46508 0.01034,0.11886 0.0646,0.23513 0.126607,0.37982 0.516764,0.37982 0.31781,0 0.488343,-0.24288 0.167948,-0.2868 0.167948,-0.93275 v -0.32815 -0.42116 -0.46767 l -0.04134,-0.25322 q -0.03101,-0.25321 -0.31781,-0.41083 -0.286804,-0.16019 -0.286804,-0.3824 0,-0.31781 0.68988,-0.50902 0.793233,-0.2222 1.839681,-0.2222 0.540019,0 0.540019,0.59427 l -0.02067,1.00511 v 2.12649 q 0,0.2868 0.286804,0.46508 0.294556,0.12661 0.294556,0.38241 0,0.46509 -1.005107,0.72864 -0.728637,0.1912 -1.449524,0.1912 -0.413411,0 -0.496093,-0.31781 -0.03359,-0.31781 -0.201538,-0.31781 -0.392741,0.26613 -0.772563,0.44442 -0.382406,0.1912 -0.826823,0.1912 -0.878499,0 -1.343587,-0.44442 -0.496094,-0.51934 -0.496094,-2.08514 v -0.64596 q 0,-0.95084 -0.488342,-1.21698 -0.242879,-0.11627 -0.242879,-0.39015 0,-0.41341 1.343587,-0.60462 l 0.720886,-0.0723 0.687297,-0.0336 q 0.328145,0 0.328145,0.40307 z" style="font-style:normal;font-variant:normal;font-weight:500;font-stretch:normal;font-size:10.58333302px;font-family:'.VnCooper';-inkscape-font-specification:'.VnCooper, Medium';font-variant-ligatures:normal;font-variant-caps:normal;font-variant-numeric:normal;font-feature-settings:normal;text-align:center;writing-mode:lr-tb;text-anchor:middle;fill:#ffffff;stroke-width:0.26458332" id="path4556" />
      <path d="m 63.779755,152.69799 -0.984436,-1.2609 -0.232544,-0.29456 q -0.116272,-0.12661 -0.167949,-0.12661 l -0.08527,0.093 -0.02067,0.20154 q 0,0.52968 0.211873,0.74156 0.222209,0.1912 0.222209,0.37982 0,0.32814 -0.245463,0.47801 -0.379822,0.25321 -1.48053,0.25321 -0.930176,0 -1.247986,-0.0646 -0.604614,-0.1266 -0.604614,-0.60203 0,-0.17053 0.297139,-0.36948 0.29714,-0.17053 0.29714,-0.65629 l 0.01033,-0.46767 0.01033,-0.5271 0.06201,-1.21698 v -1.51412 q 0,-0.43409 -0.400492,-0.52969 -0.413412,-0.0956 -0.413412,-0.35915 0,-0.43408 1.258321,-0.8785 1.069703,-0.34881 1.694987,-0.34881 0.157613,0 0.232544,0.0723 0.06201,0.0749 0.06201,0.32815 l -0.05168,2.24534 v 0.5917 q 0,0.34881 0.232543,0.34881 0.211874,0 0.61495,-0.27388 0.232544,-0.17054 0.232544,-0.24288 0,-0.0749 -0.105937,-0.19121 -0.08527,-0.11627 -0.105936,-0.25321 0,-0.2558 0.369486,-0.42375 0.37207,-0.16019 1.080037,-0.16019 0.666626,0 0.953431,0.0853 0.633036,0.15762 0.633036,0.58136 0,0.2558 -0.273885,0.34882 -0.509013,0.16019 -0.751892,0.29714 -0.157613,0.0646 -0.29714,0.17053 -0.222208,0.14728 -0.222208,0.22221 0,0.12661 0.39274,0.68729 l 1.046448,1.34359 q 0.211874,0.26614 0.710551,0.57103 0.348816,0.21187 0.348816,0.45475 0,0.27647 -0.232544,0.44442 -0.242879,0.17053 -0.826823,0.17053 h -1.490865 q -0.31781,0 -0.434082,-0.0413 -0.0956,-0.0543 -0.297139,-0.30748 z" style="font-style:normal;font-variant:normal;font-weight:500;font-stretch:normal;font-size:10.58333302px;font-family:'.VnCooper';-inkscape-font-specification:'.VnCooper, Medium';font-variant-ligatures:normal;font-variant-caps:normal;font-variant-numeric:normal;font-feature-settings:normal;text-align:center;writing-mode:lr-tb;text-anchor:middle;fill:#ffffff;stroke-width:0.26458332" id="path4558" />
      <path d="m 73.944508,149.76536 0.04393,1.70532 q 0,0.50643 0.348815,0.79323 0.157614,0.12661 0.167949,0.29714 0,0.35915 -0.718303,0.5271 l -0.444417,0.0543 -0.58136,0.0207 q -0.795817,0 -1.196309,-0.12661 -0.413411,-0.1266 -0.413411,-0.41341 0,-0.11627 0.157613,-0.31781 0.160197,-0.20154 0.224792,-0.51676 l 0.06201,-0.47801 0.01033,-0.58136 q 0,-0.63562 -0.0956,-0.95343 -0.157613,-0.57102 -0.666626,-0.57102 -0.410828,0 -0.550354,0.32814 -0.07235,0.26613 -0.07235,0.69763 v 1.2299 q 0,0.48576 0.198954,0.70797 0.191203,0.22221 0.222209,0.36949 0,0.27646 -0.390157,0.46767 -0.382406,0.15761 -1.21698,0.15761 -1.025777,0 -1.493449,-0.20154 -0.369487,-0.15761 -0.369487,-0.44441 0,-0.11628 0.31781,-0.43409 0.167949,-0.14727 0.26355,-0.47542 l 0.07493,-0.43408 q 0.03101,-0.25322 0.03101,-0.64596 l 0.03101,-1.40818 -0.02067,-0.82424 -0.02067,-0.61495 q 0,-0.37982 -0.328146,-0.58136 -0.328145,-0.1912 -0.328145,-0.40307 0,-0.48576 1.377177,-0.84491 0.475423,-0.0956 1.384928,-0.22221 0.222209,0 0.276469,0.0827 0.06201,0.0646 0.06201,0.31781 l -0.06201,2.0128 q 0,0.31522 0.04134,0.42116 0.04134,0.10594 0.211874,0.11627 0.328145,-0.35915 0.676961,-0.63304 0.392741,-0.30747 0.963765,-0.30747 0.963766,0 1.428854,0.5917 0.390157,0.51934 0.390157,1.53479 z" style="font-style:normal;font-variant:normal;font-weight:500;font-stretch:normal;font-size:10.58333302px;font-family:'.VnCooper';-inkscape-font-specification:'.VnCooper, Medium';font-variant-ligatures:normal;font-variant-caps:normal;font-variant-numeric:normal;font-feature-settings:normal;text-align:center;writing-mode:lr-tb;text-anchor:middle;fill:#ffffff;stroke-width:0.26458332" id="path4560" />
      <path d="m 74.802335,150.60251 q 0,-1.34358 1.046448,-2.20141 0.963765,-0.77257 2.361613,-0.77257 1.299662,0 2.157491,0.88884 0.762227,0.8139 0.762227,1.88361 0,1.20664 -1.131714,2.0438 -1.038696,0.74931 -2.297017,0.74931 -1.206645,0 -2.030884,-0.66663 -0.868164,-0.7183 -0.868164,-1.92495 z m 5.206401,-3.93774 q 0,0.20154 -0.116272,0.31781 -0.116272,0.12661 -0.307475,0.12661 -0.222209,0 -0.813904,-0.30748 -0.594279,-0.29455 -0.816487,-0.29455 -0.273886,0 -0.868164,0.29455 -0.602031,0.30748 -0.759644,0.30748 -0.149862,0 -0.297139,-0.12661 -0.116272,-0.13694 -0.116272,-0.31781 0,-0.35915 0.855244,-0.96118 0.857829,-0.60462 1.185975,-0.60462 0.31781,0 1.185974,0.61495 0.868164,0.61237 0.868164,0.95085 z m -2.253093,2.22209 q -0.224792,0 -0.382405,0.1912 -0.136943,0.22221 -0.136943,0.44442 0,0.74155 0.201538,1.41851 0.273885,0.91984 0.762228,0.91984 0.273885,0 0.379821,-0.17828 0.105937,-0.21187 0.105937,-0.47801 0,-0.63303 -0.191203,-1.33325 -0.273885,-0.98443 -0.738973,-0.98443 z" style="font-style:normal;font-variant:normal;font-weight:500;font-stretch:normal;font-size:10.58333302px;font-family:'.VnCooper';-inkscape-font-specification:'.VnCooper, Medium';font-variant-ligatures:normal;font-variant-caps:normal;font-variant-numeric:normal;font-feature-settings:normal;text-align:center;writing-mode:lr-tb;text-anchor:middle;fill:#ffffff;stroke-width:0.26458332" id="path4562" />
      <path d="m 84.463244,150.46557 v 0.8139 q 0,0.63562 0.242879,0.9431 0.08527,0.11627 0.116272,0.30489 0,0.31781 -0.454752,0.48834 -0.478007,0.14728 -1.387512,0.14728 -0.824239,0 -1.16272,-0.15761 -0.338481,-0.14986 -0.338481,-0.47801 0,-0.17828 0.157613,-0.29456 0.359152,-0.20153 0.359152,-0.79581 l 0.04393,-1.58647 q 0,-0.39274 -0.307475,-0.61495 -0.31781,-0.22221 -0.31781,-0.47542 0,-0.31781 1.23765,-0.75189 0.550354,-0.16795 0.888835,-0.25322 0.328145,-0.0853 0.519348,-0.0853 0.147278,0 0.253215,0.10593 0.0956,0.10594 0.126607,0.30748 l -0.01033,0.1912 q 0,0.0956 0.04393,0.16795 0.03101,0.0749 0.167948,0.10594 0.0956,0 0.222209,-0.13695 l 0.255798,-0.30747 q 0.147278,-0.14728 0.444417,-0.30748 0.273885,-0.1266 0.687297,-0.1266 0.909505,0 1.428853,0.57102 0.506429,0.58394 0.506429,2.31769 l -0.01033,0.44442 v 0.42374 q 0,0.44442 0.245463,0.68988 0.242879,0.22221 0.242879,0.41083 0,0.2558 -0.222209,0.38241 -0.444417,0.25321 -1.725992,0.25321 -0.803569,0 -1.046448,-0.11627 -0.3514,-0.14728 -0.3514,-0.45475 0,-0.13695 0.129191,-0.26614 0.273885,-0.24288 0.273885,-0.6227 l 0.01034,-0.39274 0.05426,-0.80357 q 0,-0.55035 -0.129191,-0.86816 -0.157613,-0.37982 -0.58136,-0.37982 -0.28422,0 -0.444417,0.18862 -0.167949,0.20153 -0.167949,0.80615 z" style="font-style:normal;font-variant:normal;font-weight:500;font-stretch:normal;font-size:10.58333302px;font-family:'.VnCooper';-inkscape-font-specification:'.VnCooper, Medium';font-variant-ligatures:normal;font-variant-caps:normal;font-variant-numeric:normal;font-feature-settings:normal;text-align:center;writing-mode:lr-tb;text-anchor:middle;fill:#ffffff;stroke-width:0.26458332" id="path4564" />
      <path d="m 92.475676,149.69301 v -0.18087 q 0,-0.0646 0,-0.12661 -0.02325,-0.0853 -0.02325,-0.18086 -0.01033,-0.0956 -0.09302,-0.28422 -0.160197,-0.44442 -0.573608,-0.44442 -0.28422,0 -0.434082,0.23254 -0.157613,0.23255 -0.157613,0.5271 0,0.47801 0.116272,0.78548 0.157613,0.4961 0.529683,0.4961 0.31781,0 0.475423,-0.23255 0.160197,-0.22221 0.160197,-0.59169 z m -1.989542,3.88348 q 0,0.33848 0.465088,0.56069 0.359151,0.14728 0.772562,0.14728 l 0.307475,-0.0103 q 0.178284,0 0.390157,-0.0749 0.444417,-0.1266 0.444417,-0.45475 0,-0.12661 -0.126607,-0.24288 -0.07493,-0.0413 -0.286804,-0.0749 l -0.26355,0.0129 -0.645955,0.0517 -0.506429,-0.0413 -0.423747,-0.0439 q -0.126607,0 -0.126607,0.17053 z m 4.635376,-0.61495 q 0,0.85783 -0.772563,1.47278 -0.95343,0.75964 -2.731099,0.75964 -1.333252,0 -2.085144,-0.45475 -0.61495,-0.39016 -0.61495,-0.96118 0,-0.29714 0.180868,-0.47801 l 0.403076,-0.30489 -0.201538,-0.21187 -0.180868,-0.22221 q -0.191203,-0.24546 -0.191203,-0.46767 0,-0.36949 0.266134,-0.64337 l 0.591695,-0.47801 q -0.253214,-0.26355 -0.485758,-0.65629 -0.232544,-0.37982 -0.232544,-0.73897 0,-0.8475 0.930175,-1.41852 0.403077,-0.22221 0.837159,-0.33848 0.423746,-0.11627 0.89917,-0.11627 l 0.369486,0.031 0.676961,0.10594 q 0.413412,0.062 0.594279,0.062 0.400493,0 0.738973,-0.16795 l 0.625285,-0.39274 q 0.160197,0 0.253214,0.1602 0.0956,0.16795 0.0956,0.35915 0,0.29714 -0.178284,0.58136 l -0.413411,0.55035 0.03101,0.32815 q 0,0.9741 -0.974101,1.49345 -0.824239,0.42374 -1.850016,0.42374 l -0.550354,-0.0336 q -0.286805,0 -0.286805,0.28681 0,0.21187 0.26355,0.31781 0.266134,0.0723 0.444418,0.0723 l 0.245463,-0.0103 q 0.08268,0 0.178283,0 0.149862,-0.031 0.232544,-0.0413 l 1.322917,-0.12661 q 0.762227,0 1.196309,0.39016 0.372071,0.33848 0.372071,0.86816 z" style="font-style:normal;font-variant:normal;font-weight:500;font-stretch:normal;font-size:10.58333302px;font-family:'.VnCooper';-inkscape-font-specification:'.VnCooper, Medium';font-variant-ligatures:normal;font-variant-caps:normal;font-variant-numeric:normal;font-feature-settings:normal;text-align:center;writing-mode:lr-tb;text-anchor:middle;fill:#ffffff;stroke-width:0.26458332" id="path4566" />
      <path d="m 101.68183,146.08341 -0.0646,2.04122 q 0,0.1602 0.0749,0.17053 0.29455,-0.25321 0.73897,-0.45475 0.43408,-0.20154 0.86816,-0.20154 0.8475,0 1.46245,0.65629 0.61236,0.66663 0.61236,1.68207 0,1.36684 -0.88883,2.28668 -0.89917,0.93018 -2.28669,0.93018 -0.39015,0 -0.58136,-0.031 -0.1912,-0.031 -0.31781,-0.0646 -0.1266,-0.031 -0.30747,-0.11627 l -0.91984,-0.47542 q -0.0956,0 -0.211874,0.0413 l -0.242879,0.0853 -0.232544,0.0336 q -0.201538,0 -0.255798,-0.0646 -0.06201,-0.0543 -0.06201,-0.14728 l 0.07493,-0.31781 0.07235,-0.44441 q 0.06459,-0.49868 0.06459,-1.12138 v -2.81637 q 0,-0.29714 -0.392741,-0.46509 -0.400492,-0.16019 -0.400492,-0.478 0,-0.47543 1.131714,-0.85525 0.222208,-0.0749 0.444413,-0.12661 0.21188,-0.0543 0.46509,-0.10593 0.25322,-0.0543 0.45475,-0.0749 0.20154,-0.0207 0.43409,-0.0207 0.16019,0 0.21187,0.0956 l 0.0439,0.14728 z m 1.31258,4.81624 -0.0336,-0.52968 q -0.031,-0.26613 -0.11627,-0.46767 -0.22221,-0.63304 -0.6873,-0.63304 -0.31781,0 -0.41341,0.18862 -0.10593,0.20154 -0.10593,0.55035 0,1.47278 0.0956,1.84227 0.0956,0.3824 0.44441,0.3824 0.46509,0 0.66663,-0.46767 0.14986,-0.35915 0.14986,-0.86558 z" style="font-style:normal;font-variant:normal;font-weight:500;font-stretch:normal;font-size:10.58333302px;font-family:'.VnCooper';-inkscape-font-specification:'.VnCooper, Medium';font-variant-ligatures:normal;font-variant-caps:normal;font-variant-numeric:normal;font-feature-settings:normal;text-align:center;writing-mode:lr-tb;text-anchor:middle;fill:#ffffff;stroke-width:0.26458332" id="path4568" />
      <path d="m 108.80285,148.13496 v 2.95331 q 0,0.71055 0.42374,1.00511 0.20154,0.13952 0.20154,0.3514 0,0.41083 -0.73122,0.6227 -0.41083,0.0956 -1.09037,0.0956 -1.19373,0 -1.62781,-0.23254 -0.26614,-0.14728 -0.26614,-0.43409 0,-0.20153 0.2558,-0.39274 0.24288,-0.17828 0.30489,-0.33848 l 0.0439,-0.24288 0.0413,-0.27388 0.031,-0.82682 q 0,-0.69764 -0.062,-0.91984 -0.031,-0.19121 -0.34881,-0.34882 -0.29714,-0.17053 -0.29714,-0.41341 0,-0.34882 0.85783,-0.66663 1.15238,-0.40307 1.93528,-0.40307 0.21187,0 0.2868,0.14986 z m -0.0517,-1.83968 q 0,0.54002 -0.79323,0.82424 -0.61495,0.21188 -1.25057,0.21188 -0.34882,0 -0.62271,-0.15762 -0.29713,-0.20154 -0.29713,-0.56069 0,-0.43408 0.76222,-0.75189 0.66663,-0.23254 1.17306,-0.23254 0.41341,0 0.66921,0.1266 0.35915,0.17829 0.35915,0.54002 z" style="font-style:normal;font-variant:normal;font-weight:500;font-stretch:normal;font-size:10.58333302px;font-family:'.VnCooper';-inkscape-font-specification:'.VnCooper, Medium';font-variant-ligatures:normal;font-variant-caps:normal;font-variant-numeric:normal;font-feature-settings:normal;text-align:center;writing-mode:lr-tb;text-anchor:middle;fill:#ffffff;stroke-width:0.26458332" id="path4570" />
      <path d="m 112.33751,150.61285 q -0.19895,0 -0.24288,0.0207 l -0.0103,0.031 -0.031,0.0956 q 0,0.3824 0.39016,0.67696 0.39274,0.29714 0.79582,0.29714 0.39015,0 0.7183,-0.14728 l 0.6873,-0.32815 q 0.17053,0 0.2868,0.15762 0.10594,0.17053 0.13694,0.37207 0,0.5271 -0.86816,1.0051 -0.80357,0.4005 -1.58647,0.4005 -1.33325,0 -2.16007,-0.85525 -0.72864,-0.76223 -0.72864,-1.88619 0,-1.20406 0.8785,-2.02055 0.8785,-0.80357 2.09548,-0.80357 1.19372,0 1.97921,0.79324 0.6227,0.65629 0.6227,1.39785 0,0.45475 -0.20154,0.65629 -0.16795,0.13694 -0.46509,0.13694 z m 2.19108,-3.94808 q 0,0.1912 -0.0956,0.31781 -0.10593,0.12661 -0.31781,0.12661 -0.22221,0 -0.8139,-0.30748 -0.5917,-0.29455 -0.81391,-0.29455 -0.27646,0 -0.86816,0.29455 -0.60461,0.30748 -0.76223,0.30748 -0.14727,0 -0.29714,-0.12661 -0.11627,-0.13694 -0.11627,-0.31781 0,-0.35915 0.85783,-0.96118 0.85783,-0.60462 1.18597,-0.60462 0.32815,0 1.18339,0.61237 0.85783,0.61495 0.85783,0.95343 z m -1.26865,2.61483 q 0,-0.29714 -0.17053,-0.48835 -0.16795,-0.18861 -0.45476,-0.18861 -0.25321,0 -0.44441,0.21187 -0.19121,0.22221 -0.19121,0.48576 0,0.14728 0.0956,0.24288 0.0956,0.0646 0.28681,0.0646 l 0.25321,-0.0103 h 0.22221 q 0.20154,0 0.30748,-0.0543 0.0956,-0.0517 0.0956,-0.26355 z m 0.75189,-4.03335 q 0,-0.18862 0.23254,-0.39016 0.50643,-0.41341 0.50643,-0.48834 l -0.0413,-0.11627 -0.0439,-0.12661 q 0,-0.1266 0.27647,-0.22221 0.26354,-0.0956 0.62528,-0.0956 0.44442,0 0.76223,0.10594 0.5271,0.1602 0.5271,0.48834 0,0.28422 -0.5917,0.7183 -0.74155,0.51935 -1.68207,0.51935 -0.30747,0 -0.45475,-0.0956 -0.11627,-0.0956 -0.11627,-0.29714 z" style="font-style:normal;font-variant:normal;font-weight:500;font-stretch:normal;font-size:10.58333302px;font-family:'.VnCooper';-inkscape-font-specification:'.VnCooper, Medium';font-variant-ligatures:normal;font-variant-caps:normal;font-variant-numeric:normal;font-feature-settings:normal;text-align:center;writing-mode:lr-tb;text-anchor:middle;fill:#ffffff;stroke-width:0.26458332" id="path4572" />
      <path d="m 118.86425,149.184 v 1.57613 q 0,0.48834 0.18086,0.70021 0.14728,0.17829 0.4005,0.17829 0.0853,0 0.18086,-0.0207 0.0956,-0.0103 0.23255,-0.0956 0.22221,-0.1266 0.29714,-0.1266 0.1266,0 0.23254,0.14727 0.0956,0.14987 0.12661,0.33848 0,0.50902 -0.73122,0.91209 -0.72864,0.4005 -1.54513,0.4005 -0.66662,0 -1.14205,-0.31781 -0.75189,-0.4961 -0.75189,-1.59681 v -2.18074 -0.14728 q 0,-0.0956 -0.0207,-0.12661 l -0.031,-0.0103 -0.1266,-0.0336 -0.28681,0.0103 h -0.18086 q -0.24288,0 -0.28423,-0.0517 -0.0543,-0.0413 -0.0543,-0.26355 v -0.14986 -0.14728 q 0,-0.10594 0.0956,-0.20154 l 2.41329,-1.53479 0.1912,-0.0956 0.16795,-0.0207 h 0.1912 q 0.33848,0 0.39274,0.031 0.0517,0.0439 0.0517,0.41342 l -0.0103,0.27646 v 0.23255 q 0,0.26355 0.0517,0.31781 0.0543,0.0207 0.1266,0.031 0.0749,0.0103 0.24547,0.0103 h 0.74155 q 0.31523,0 0.39016,0.0749 0.0646,0.0724 0.0646,0.43408 0,0.45476 -0.0853,0.55036 -0.0646,0.093 -0.40307,0.093 h -0.72864 q -0.24547,0 -0.31781,0.0543 -0.0749,0.062 -0.0749,0.33849 z" style="font-style:normal;font-variant:normal;font-weight:500;font-stretch:normal;font-size:10.58333302px;font-family:'.VnCooper';-inkscape-font-specification:'.VnCooper, Medium';font-variant-ligatures:normal;font-variant-caps:normal;font-variant-numeric:normal;font-feature-settings:normal;text-align:center;writing-mode:lr-tb;text-anchor:middle;fill:#ffffff;stroke-width:0.26458332" id="path4574" />
      <path d="m 123.4712,152.02103 q 0,0.45475 -0.33848,0.81391 -0.34882,0.35915 -0.83457,0.35915 -0.26614,0 -0.44442,-0.0724 -0.1912,-0.0646 -0.39274,-0.26613 -0.33848,-0.35916 -0.33848,-0.83458 0,-0.48834 0.34881,-0.83716 0.33848,-0.33848 0.82683,-0.33848 0.47542,0 0.82423,0.33848 0.34882,0.34882 0.34882,0.83716 z m 0.0956,-4.92218 q 0,0.23255 -0.031,0.46509 -0.0336,0.24288 -0.11628,0.54002 -0.14986,0.56069 -0.39274,1.02578 -0.1266,0.2868 -0.29714,0.51934 -0.25321,0.37207 -0.43149,0.37207 -0.1602,0 -0.42375,-0.37207 l -0.1602,-0.24288 -0.14728,-0.27646 q -0.20153,-0.41083 -0.39274,-1.00511 -0.14727,-0.57103 -0.14727,-1.02578 0,-0.63562 0.29713,-1.10071 0.35916,-0.51934 0.97411,-0.51934 0.60203,0 0.97151,0.50901 0.29714,0.47542 0.29714,1.11104 z" style="font-style:normal;font-variant:normal;font-weight:500;font-stretch:normal;font-size:10.58333302px;font-family:'.VnCooper';-inkscape-font-specification:'.VnCooper, Medium';font-variant-ligatures:normal;font-variant-caps:normal;font-variant-numeric:normal;font-feature-settings:normal;text-align:center;writing-mode:lr-tb;text-anchor:middle;fill:#ffffff;stroke-width:0.26458332" id="path4576" />
    </g>
    <text id="text4499" y="141.37833" x="208.4232" style="font-style:normal;font-variant:normal;font-weight:500;font-stretch:normal;font-size:10.58333302px;line-height:1.25;font-family:'.VnCooper';-inkscape-font-specification:'.VnCooper, Medium';font-variant-ligatures:normal;font-variant-caps:normal;font-variant-numeric:normal;font-feature-settings:normal;text-align:center;letter-spacing:0px;word-spacing:0px;writing-mode:lr-tb;text-anchor:middle;fill:#000000;fill-opacity:1;stroke:none;stroke-width:0.26458332" xml:space="preserve"><tspan style="font-style:normal;font-variant:normal;font-weight:500;font-stretch:normal;font-size:10.58333302px;font-family:'.VnCooper';-inkscape-font-specification:'.VnCooper, Medium';font-variant-ligatures:normal;font-variant-caps:normal;font-variant-numeric:normal;font-feature-settings:normal;text-align:center;writing-mode:lr-tb;text-anchor:middle;stroke-width:0.26458332" y="141.37833" x="208.4232" id="tspan4495" sodipodi:role="line">C« lµ ai?</tspan><tspan id="tspan4497" style="font-style:normal;font-variant:normal;font-weight:500;font-stretch:normal;font-size:10.58333302px;font-family:'.VnCooper';-inkscape-font-specification:'.VnCooper, Medium';font-variant-ligatures:normal;font-variant-caps:normal;font-variant-numeric:normal;font-feature-settings:normal;text-align:center;writing-mode:lr-tb;text-anchor:middle;stroke-width:0.26458332" y="154.6075" x="208.4232" sodipodi:role="line">Ch¸u kh«ng biÕt!</tspan></text>
    <text xml:space="preserve" style="font-style:normal;font-variant:normal;font-weight:500;font-stretch:normal;font-size:10.58333302px;line-height:1.25;font-family:'.VnCooper';-inkscape-font-specification:'.VnCooper, Medium';font-variant-ligatures:normal;font-variant-caps:normal;font-variant-numeric:normal;font-feature-settings:normal;text-align:center;letter-spacing:0px;word-spacing:0px;writing-mode:lr-tb;text-anchor:middle;fill:#000000;fill-opacity:1;stroke:none;stroke-width:0.26458332" x="204.41003" y="206.92671" id="text4505"><tspan sodipodi:role="line" x="204.41003" y="206.92671" style="font-style:normal;font-variant:normal;font-weight:500;font-stretch:normal;font-size:10.58333302px;font-family:'.VnCooper';-inkscape-font-specification:'.VnCooper, Medium';font-variant-ligatures:normal;font-variant-caps:normal;font-variant-numeric:normal;font-feature-settings:normal;text-align:center;writing-mode:lr-tb;text-anchor:middle;stroke-width:0.26458332" id="tspan4503">C¤ §I</tspan><tspan sodipodi:role="line" x="204.41003" y="220.15588" style="font-style:normal;font-variant:normal;font-weight:500;font-stretch:normal;font-size:10.58333302px;font-family:'.VnCooper';-inkscape-font-specification:'.VnCooper, Medium';font-variant-ligatures:normal;font-variant-caps:normal;font-variant-numeric:normal;font-feature-settings:normal;text-align:center;writing-mode:lr-tb;text-anchor:middle;stroke-width:0.26458332" id="tspan4509">RA §I!</tspan></text>
    <g aria-label="C¤ §I
RA §I!" style="font-style:normal;font-variant:normal;font-weight:500;font-stretch:normal;font-size:10.58333302px;line-height:1.25;font-family:'.VnCooper';-inkscape-font-specification:'.VnCooper, Medium';font-variant-ligatures:normal;font-variant-caps:normal;font-variant-numeric:normal;font-feature-settings:normal;text-align:center;letter-spacing:0px;word-spacing:0px;writing-mode:lr-tb;text-anchor:middle;fill:#d90079;fill-opacity:1;stroke:none;stroke-width:0.08055864" id="text4515" transform="matrix(3.1723955,-0.85006755,0.85004085,3.1724951,-351.50297,-477.41131)">
      <path d="m 53.904244,230.39085 q 0,-1.58646 1.281575,-2.7311 1.247986,-1.1007 2.847372,-1.1007 0.475423,0 1.005106,0.16019 l 0.974101,0.35915 0.273885,-0.031 0.201538,-0.0439 q 0.338481,0 0.676961,0.50902 0.338481,0.51934 0.338481,1.33325 0,0.47542 -0.253214,0.79323 -0.26355,0.31781 -0.731222,0.31781 -0.444417,0 -1.046448,-0.94051 -0.614949,-0.93276 -1.651062,-0.93276 -0.519348,0 -0.878499,0.45475 -0.276469,0.39274 -0.276469,0.88884 0,1.20664 0.604614,2.03347 0.645956,0.86816 1.713074,0.86816 0.625285,0 1.090373,-0.22221 l 0.782898,-0.50901 q 0.191203,0 0.328145,0.1912 0.129191,0.20154 0.129191,0.43408 0,0.41083 -0.307475,0.88884 -0.33848,0.55035 -0.710551,0.55035 l -0.581359,0.22221 -0.602031,0.21187 q -0.266133,0.0827 -0.573608,0.13695 l -0.591695,0.0413 q -1.651062,0 -2.847372,-1.15239 -1.196309,-1.14205 -1.196309,-2.7311 z" style="font-style:normal;font-variant:normal;font-weight:500;font-stretch:normal;font-size:10.58333302px;font-family:'.VnCooper';-inkscape-font-specification:'.VnCooper, Medium';font-variant-ligatures:normal;font-variant-caps:normal;font-variant-numeric:normal;font-feature-settings:normal;text-align:center;writing-mode:lr-tb;text-anchor:middle;fill:#d90079;fill-opacity:1;stroke-width:0.08055864" id="path4517" inkscape:connector-curvature="0" />
      <path d="m 61.903755,230.39085 q 0,-1.66139 1.165304,-2.75177 0.58136,-0.54001 1.312581,-0.8139 0.718302,-0.27647 1.617472,-0.27647 1.346171,0 2.351278,0.72089 0.824239,0.59169 1.302246,1.5968 0.400492,0.86816 0.400492,1.63039 0,1.65106 -1.278991,2.74144 -1.21698,1.03611 -2.901632,1.03611 -1.692403,0 -2.824117,-1.10071 -1.144633,-1.10071 -1.144633,-2.78278 z m 6.128825,-4.80332 q 0,0.19895 -0.116272,0.31523 -0.116272,0.12919 -0.29714,0.12919 -0.08527,0 -0.201538,-0.0439 -0.116272,-0.031 -0.28422,-0.10593 l -0.63562,-0.30748 q -0.328145,-0.14728 -0.519348,-0.14728 -0.242879,0 -0.84491,0.29714 -0.614949,0.30748 -0.785482,0.30748 -0.167948,0 -0.28422,-0.13953 -0.126607,-0.12661 -0.126607,-0.30489 0,-0.23513 0.434082,-0.63562 0.400492,-0.34882 0.91984,-0.64596 0.519348,-0.2868 0.687297,-0.2868 0.201538,0 0.710551,0.2868 0.496093,0.28681 0.89917,0.64596 0.444417,0.40049 0.444417,0.63562 z m -2.519226,2.5399 q -0.403076,0 -0.656291,0.35915 -0.232544,0.36948 -0.232544,0.7829 0,0.52968 0.222209,1.34358 0.211873,0.81649 0.58136,1.39785 0.444417,0.6873 0.974101,0.6873 0.434082,0 0.687296,-0.33848 0.245463,-0.32815 0.245463,-0.79324 0,-0.54002 -0.191203,-1.32291 -0.222208,-0.86817 -0.604614,-1.43919 -0.454753,-0.67696 -1.025777,-0.67696 z" style="font-style:normal;font-variant:normal;font-weight:500;font-stretch:normal;font-size:10.58333302px;font-family:'.VnCooper';-inkscape-font-specification:'.VnCooper, Medium';font-variant-ligatures:normal;font-variant-caps:normal;font-variant-numeric:normal;font-feature-settings:normal;text-align:center;writing-mode:lr-tb;text-anchor:middle;fill:#d90079;fill-opacity:1;stroke-width:0.08055864" id="path4519" inkscape:connector-curvature="0" />
      <path d="m 77.280077,228.37031 v 0.9095 q 0,0.1912 0.116272,0.30748 0.0646,0.062 0.253215,0.0956 h 0.37207 l 0.242879,-0.0233 0.222209,-0.0207 q 0.105937,0 0.211873,0.10594 l 0.04134,0.22221 0.03359,0.27647 q 0,0.16794 -0.07493,0.29455 -0.08527,0.12919 -0.242879,0.13953 l -0.266133,-0.0207 -0.26355,-0.0233 h -0.31781 q -0.126608,0 -0.222209,0.10594 -0.105937,0.10594 -0.105937,0.31781 v 1.2609 q 0,0.41083 0.105937,0.58136 0.147278,0.17829 0.550354,0.17829 0.60203,0 0.994771,-0.39016 0.29714,-0.29714 0.454753,-0.93276 0.05426,-0.22221 0.08527,-0.50643 0.03101,-0.2868 0.03101,-0.59169 0,-1.16531 -0.253215,-1.80093 -0.253214,-0.6227 -0.676961,-0.8785 -0.31781,-0.1912 -0.816487,-0.1912 -0.294556,0 -0.379822,0.13953 -0.0956,0.13694 -0.0956,0.44442 z m -2.328023,-1.73633 h 3.449402 q 1.366842,0 2.317688,0.54002 0.793233,0.46508 1.227315,1.37459 0.361735,0.77256 0.361735,1.81126 0,1.63039 -0.912089,2.64583 -1.036112,1.17306 -2.919718,1.17306 l -1.165304,-0.031 -0.909505,-0.0207 -0.676961,0.0103 -1.121379,0.0413 q -0.297139,0 -0.540018,-0.13695 -0.276469,-0.17828 -0.276469,-0.46508 0,-0.28681 0.276469,-0.39274 0.591695,-0.18862 0.591695,-1.06712 v -1.12138 q 0,-0.0233 0,-0.0439 0,-0.0853 -0.07235,-0.17828 -0.0646,-0.12919 -0.170533,-0.13953 l -0.232543,0.0233 -0.232544,0.0207 q -0.0956,0 -0.201538,-0.11627 l -0.08527,-0.22221 0.02067,-0.31781 q 0.01033,-0.17053 0.0646,-0.23255 0.07493,-0.12919 0.232543,-0.14986 l 0.26355,0.0207 0.266134,0.0233 q 0.06201,0 0.157613,-0.12661 l 0.07493,-0.23513 v -1.08779 q 0,-0.3824 -0.379822,-0.55035 -0.392741,-0.1602 -0.392741,-0.48834 0,-0.30748 0.348816,-0.46509 0.253215,-0.0956 0.63562,-0.0956 z" style="font-style:normal;font-variant:normal;font-weight:500;font-stretch:normal;font-size:10.58333302px;font-family:'.VnCooper';-inkscape-font-specification:'.VnCooper, Medium';font-variant-ligatures:normal;font-variant-caps:normal;font-variant-numeric:normal;font-feature-settings:normal;text-align:center;writing-mode:lr-tb;text-anchor:middle;fill:#d90079;fill-opacity:1;stroke-width:0.08055864" id="path4521" inkscape:connector-curvature="0" />
      <path d="m 83.594937,230.94121 v -1.04645 q 0,-0.88883 -0.06201,-1.29191 -0.03359,-0.36949 -0.160197,-0.50901 l -0.410828,-0.32815 q -0.245463,-0.17828 -0.245463,-0.41083 0,-0.478 1.100708,-0.66662 0.573609,-0.0956 1.27124,-0.0956 0.793234,0 1.206645,0.0956 0.728638,0.15761 0.728638,0.64337 0,0.22221 -0.232544,0.36173 -0.369487,0.21188 -0.410828,0.27389 -0.105937,0.11627 -0.170532,0.66663 l -0.04134,1.2609 v 1.04645 q 0,1.33325 0.08268,1.64072 0.05426,0.20154 0.245463,0.31781 l 0.369487,0.21188 q 0.157613,0.11627 0.157613,0.33848 0,0.33848 -0.328146,0.50643 -0.560689,0.2868 -2.08256,0.2868 -0.741557,0 -1.049031,-0.0853 -0.731222,-0.15762 -0.731222,-0.60203 0,-0.22221 0.276469,-0.40308 0.211873,-0.12661 0.273885,-0.21187 0.05426,-0.0853 0.149862,-0.56069 0.06201,-0.44442 0.06201,-1.43919 z" style="font-style:normal;font-variant:normal;font-weight:500;font-stretch:normal;font-size:10.58333302px;font-family:'.VnCooper';-inkscape-font-specification:'.VnCooper, Medium';font-variant-ligatures:normal;font-variant-caps:normal;font-variant-numeric:normal;font-feature-settings:normal;text-align:center;writing-mode:lr-tb;text-anchor:middle;fill:#d90079;fill-opacity:1;stroke-width:0.08055864" id="path4523" inkscape:connector-curvature="0" />
      <path d="m 54.795662,241.59947 -0.04134,1.00511 -0.01033,0.22221 q 0,0.16795 0.05168,0.22221 0.05426,0.0646 0.232544,0.0646 0.478007,0 0.700216,-0.2558 0.105937,-0.13694 0.157613,-0.32814 0.05426,-0.19121 0.05426,-0.45476 0,-0.44441 -0.139526,-0.7183 -0.178284,-0.32814 -0.60203,-0.32814 -0.232544,0 -0.338481,0.13694 -0.0646,0.12661 -0.0646,0.43408 z m -2.495971,3.55534 v -3.01532 q 0,-0.9741 -0.540019,-1.25057 -0.266134,-0.11627 -0.266134,-0.36949 0,-0.36948 0.467672,-0.54001 l 0.338481,-0.0853 0.444417,-0.031 0.676961,0.0413 0.622701,0.0336 0.361735,-0.0103 0.400493,-0.0103 1.29191,-0.0543 q 1.038697,0 1.736329,0.43409 0.847493,0.50901 0.847493,1.50378 0,0.46509 -0.224792,0.88883 -0.222209,0.42375 -0.676962,0.64596 l -0.116272,0.0724 q -0.02067,0.031 -0.03101,0.0646 -0.01033,0.031 -0.02067,0.0724 0,0.12919 0.116272,0.1912 l 0.147278,0.0646 q 0.529683,0.18862 0.816487,0.59169 0.273885,0.41341 0.400493,1.31258 0.0646,0.50902 0.434082,0.64596 0.382405,0.0956 0.382405,0.39016 0,0.31781 -0.423747,0.58394 -0.423746,0.24288 -1.260904,0.24288 -1.14205,0 -1.627808,-0.65629 -0.286804,-0.40308 -0.604614,-1.71566 -0.126607,-0.56069 -0.338481,-0.75964 -0.222209,-0.20154 -0.540019,-0.20154 -0.191202,0 -0.253214,0.0956 -0.0646,0.10594 -0.0646,0.60203 l 0.01034,0.54002 0.01033,0.21187 q 0,0.13695 0.05426,0.30748 0.03101,0.17828 0.232544,0.31522 0.392741,0.26614 0.392741,0.49868 0,0.30748 -0.392741,0.49868 -0.403076,0.16795 -1.586466,0.16795 -1.018026,0 -1.516704,-0.18862 -0.496093,-0.1912 -0.496093,-0.58394 0,-0.15762 0.403076,-0.45476 0.392741,-0.2868 0.392741,-1.09037 z" style="font-style:normal;font-variant:normal;font-weight:500;font-stretch:normal;font-size:10.58333302px;font-family:'.VnCooper';-inkscape-font-specification:'.VnCooper, Medium';font-variant-ligatures:normal;font-variant-caps:normal;font-variant-numeric:normal;font-feature-settings:normal;text-align:center;writing-mode:lr-tb;text-anchor:middle;fill:#d90079;fill-opacity:1;stroke-width:0.08055864" id="path4525" inkscape:connector-curvature="0" />
      <path d="m 63.575488,244.29698 h 0.793233 0.242879 q 0.147278,-0.031 0.180868,-0.13694 0,-0.0956 -0.222209,-0.56069 l -0.170532,-0.29714 -0.201538,-0.33848 q -0.157614,-0.22221 -0.307475,-0.22221 -0.157613,0 -0.315226,0.32815 l -0.160197,0.42374 -0.126608,0.31781 q -0.0956,0.25322 -0.0956,0.33848 0,0.14728 0.276469,0.14728 z m -2.09548,0.6873 0.666626,-1.44953 0.496094,-1.20664 q 0.26355,-0.79323 0.26355,-1.28933 0,-0.56069 0.307475,-0.92242 0.297139,-0.35915 0.9741,-0.35915 0.731222,0 1.377177,0.80357 0.198954,0.25579 0.537435,0.83715 0.235128,0.39274 1.018026,2.02055 l 1.142049,2.39262 q 0.160197,0.40308 0.540019,0.51935 0.379821,0.0956 0.379821,0.40049 0,0.38241 -0.475423,0.57361 -0.540019,0.16795 -1.55546,0.16795 h -0.253215 -0.211873 -0.170532 -0.136943 q -0.434082,0 -0.656291,-0.031 -0.994771,-0.0956 -0.994771,-0.63562 0,-0.23254 0.434082,-0.43408 0.180868,-0.0646 0.211873,-0.25321 0,-0.32815 -0.33848,-0.43409 l -0.550354,-0.0646 -1.080038,-0.0207 q -0.454752,0 -0.666626,0.0853 -0.211873,0.0956 -0.211873,0.45476 0,0.18086 0.338481,0.27388 0.33848,0.10594 0.33848,0.41341 0,0.31781 -0.379821,0.47801 -0.392741,0.16795 -1.185975,0.16795 -1.025777,0 -1.387512,-0.18087 -0.26355,-0.13694 -0.26355,-0.44442 0,-0.24288 0.317811,-0.40049 0.423746,-0.1602 0.550354,-0.30747 0.07493,-0.0853 0.136942,-0.20154 0.0646,-0.10594 0.126607,-0.21188 z" style="font-style:normal;font-variant:normal;font-weight:500;font-stretch:normal;font-size:10.58333302px;font-family:'.VnCooper';-inkscape-font-specification:'.VnCooper, Medium';font-variant-ligatures:normal;font-variant-caps:normal;font-variant-numeric:normal;font-feature-settings:normal;text-align:center;writing-mode:lr-tb;text-anchor:middle;fill:#d90079;fill-opacity:1;stroke-width:0.08055864" id="path4527" inkscape:connector-curvature="0" />
      <path d="m 76.153531,241.59947 v 0.90951 q 0,0.1912 0.116272,0.30747 0.0646,0.062 0.253215,0.0956 h 0.37207 l 0.242879,-0.0232 0.222209,-0.0207 q 0.105937,0 0.211873,0.10593 l 0.04134,0.22221 0.03359,0.27647 q 0,0.16795 -0.07493,0.29456 -0.08527,0.12919 -0.242879,0.13952 l -0.266134,-0.0207 -0.263549,-0.0232 h -0.31781 q -0.126608,0 -0.222209,0.10594 -0.105937,0.10593 -0.105937,0.31781 v 1.2609 q 0,0.41083 0.105937,0.58136 0.147278,0.17828 0.550354,0.17828 0.60203,0 0.994771,-0.39015 0.29714,-0.29714 0.454753,-0.93276 0.05426,-0.22221 0.08527,-0.50643 0.03101,-0.28681 0.03101,-0.5917 0,-1.1653 -0.253215,-1.80092 -0.253214,-0.6227 -0.676961,-0.8785 -0.31781,-0.1912 -0.816488,-0.1912 -0.294555,0 -0.379821,0.13952 -0.0956,0.13695 -0.0956,0.44442 z m -2.328023,-1.73633 h 3.449402 q 1.366841,0 2.317688,0.54002 0.793233,0.46509 1.227315,1.3746 0.361735,0.77256 0.361735,1.81125 0,1.6304 -0.912089,2.64584 -1.036113,1.17305 -2.919718,1.17305 l -1.165304,-0.031 -0.909505,-0.0207 -0.676961,0.0103 -1.121379,0.0413 q -0.297139,0 -0.540019,-0.13694 -0.276468,-0.17828 -0.276468,-0.46509 0,-0.2868 0.276468,-0.39274 0.591696,-0.18862 0.591696,-1.06712 v -1.12138 q 0,-0.0232 0,-0.0439 0,-0.0853 -0.07235,-0.17828 -0.0646,-0.1292 -0.170533,-0.13953 l -0.232544,0.0232 -0.232544,0.0207 q -0.0956,0 -0.201538,-0.11627 l -0.08527,-0.22221 0.02067,-0.31781 q 0.01034,-0.17053 0.0646,-0.23254 0.07493,-0.12919 0.232544,-0.14986 l 0.26355,0.0207 0.266134,0.0232 q 0.06201,0 0.157613,-0.1266 l 0.07493,-0.23513 v -1.08779 q 0,-0.38241 -0.379822,-0.55035 -0.392741,-0.1602 -0.392741,-0.48835 0,-0.30747 0.348816,-0.46508 0.253214,-0.0956 0.63562,-0.0956 z" style="font-style:normal;font-variant:normal;font-weight:500;font-stretch:normal;font-size:10.58333302px;font-family:'.VnCooper';-inkscape-font-specification:'.VnCooper, Medium';font-variant-ligatures:normal;font-variant-caps:normal;font-variant-numeric:normal;font-feature-settings:normal;text-align:center;writing-mode:lr-tb;text-anchor:middle;fill:#d90079;fill-opacity:1;stroke-width:0.08055864" id="path4529" inkscape:connector-curvature="0" />
      <path d="m 82.468391,244.17037 v -1.04644 q 0,-0.88884 -0.06201,-1.29191 -0.03359,-0.36949 -0.160197,-0.50902 l -0.410828,-0.32814 q -0.245463,-0.17829 -0.245463,-0.41083 0,-0.47801 1.100708,-0.66663 0.573608,-0.0956 1.27124,-0.0956 0.793233,0 1.206645,0.0956 0.728638,0.15762 0.728638,0.64338 0,0.2222 -0.232544,0.36173 -0.369487,0.21187 -0.410828,0.27389 -0.105937,0.11627 -0.170532,0.66662 l -0.04134,1.26091 v 1.04644 q 0,1.33326 0.08268,1.64073 0.05426,0.20154 0.245463,0.31781 l 0.369486,0.21187 q 0.157614,0.11628 0.157614,0.33848 0,0.33849 -0.328146,0.50643 -0.560689,0.28681 -2.08256,0.28681 -0.741557,0 -1.049032,-0.0853 -0.731221,-0.15761 -0.731221,-0.60203 0,-0.22221 0.276469,-0.40307 0.211873,-0.12661 0.273885,-0.21188 0.05426,-0.0853 0.149862,-0.56069 0.06201,-0.44441 0.06201,-1.43919 z" style="font-style:normal;font-variant:normal;font-weight:500;font-stretch:normal;font-size:10.58333302px;font-family:'.VnCooper';-inkscape-font-specification:'.VnCooper, Medium';font-variant-ligatures:normal;font-variant-caps:normal;font-variant-numeric:normal;font-feature-settings:normal;text-align:center;writing-mode:lr-tb;text-anchor:middle;fill:#d90079;fill-opacity:1;stroke-width:0.08055864" id="path4531" inkscape:connector-curvature="0" />
      <path d="m 88.940864,246.33045 q 0,0.45475 -0.338481,0.8139 -0.348816,0.35915 -0.834574,0.35915 -0.266134,0 -0.444418,-0.0723 -0.191202,-0.0646 -0.39274,-0.26614 -0.338481,-0.35915 -0.338481,-0.83457 0,-0.48834 0.348816,-0.83716 0.338481,-0.33848 0.826823,-0.33848 0.475423,0 0.824239,0.33848 0.348816,0.34882 0.348816,0.83716 z m 0.0956,-4.92218 q 0,0.23254 -0.03101,0.46509 -0.03359,0.24288 -0.116272,0.54002 -0.149861,0.56068 -0.392741,1.02577 -0.126607,0.28681 -0.297139,0.51935 -0.253215,0.37207 -0.431498,0.37207 -0.160197,0 -0.423747,-0.37207 l -0.160197,-0.24288 -0.147278,-0.27647 q -0.201538,-0.41082 -0.392741,-1.0051 -0.147277,-0.57103 -0.147277,-1.02578 0,-0.63562 0.297139,-1.10071 0.359151,-0.51935 0.974101,-0.51935 0.60203,0 0.971517,0.50902 0.297139,0.47542 0.297139,1.11104 z" style="font-style:normal;font-variant:normal;font-weight:500;font-stretch:normal;font-size:10.58333302px;font-family:'.VnCooper';-inkscape-font-specification:'.VnCooper, Medium';font-variant-ligatures:normal;font-variant-caps:normal;font-variant-numeric:normal;font-feature-settings:normal;text-align:center;writing-mode:lr-tb;text-anchor:middle;fill:#d90079;fill-opacity:1;stroke-width:0.08055864" id="path4533" inkscape:connector-curvature="0" />
    </g>
    <g transform="matrix(3.1723955,-0.85006755,0.85004085,3.1724951,-354.41319,-479.2066)" id="g4599" style="font-style:normal;font-variant:normal;font-weight:500;font-stretch:normal;font-size:10.58333302px;line-height:1.25;font-family:'.VnCooper';-inkscape-font-specification:'.VnCooper, Medium';font-variant-ligatures:normal;font-variant-caps:normal;font-variant-numeric:normal;font-feature-settings:normal;text-align:center;letter-spacing:0px;word-spacing:0px;writing-mode:lr-tb;text-anchor:middle;fill:#00ff69;fill-opacity:1;stroke:none;stroke-width:0.08055864" aria-label="C¤ §I
RA §I!">
      <path inkscape:connector-curvature="0" id="path4581" style="font-style:normal;font-variant:normal;font-weight:500;font-stretch:normal;font-size:10.58333302px;font-family:'.VnCooper';-inkscape-font-specification:'.VnCooper, Medium';font-variant-ligatures:normal;font-variant-caps:normal;font-variant-numeric:normal;font-feature-settings:normal;text-align:center;writing-mode:lr-tb;text-anchor:middle;fill:#00ff69;fill-opacity:1;stroke-width:0.08055864" d="m 53.904244,230.39085 q 0,-1.58646 1.281575,-2.7311 1.247986,-1.1007 2.847372,-1.1007 0.475423,0 1.005106,0.16019 l 0.974101,0.35915 0.273885,-0.031 0.201538,-0.0439 q 0.338481,0 0.676961,0.50902 0.338481,0.51934 0.338481,1.33325 0,0.47542 -0.253214,0.79323 -0.26355,0.31781 -0.731222,0.31781 -0.444417,0 -1.046448,-0.94051 -0.614949,-0.93276 -1.651062,-0.93276 -0.519348,0 -0.878499,0.45475 -0.276469,0.39274 -0.276469,0.88884 0,1.20664 0.604614,2.03347 0.645956,0.86816 1.713074,0.86816 0.625285,0 1.090373,-0.22221 l 0.782898,-0.50901 q 0.191203,0 0.328145,0.1912 0.129191,0.20154 0.129191,0.43408 0,0.41083 -0.307475,0.88884 -0.33848,0.55035 -0.710551,0.55035 l -0.581359,0.22221 -0.602031,0.21187 q -0.266133,0.0827 -0.573608,0.13695 l -0.591695,0.0413 q -1.651062,0 -2.847372,-1.15239 -1.196309,-1.14205 -1.196309,-2.7311 z" />
      <path inkscape:connector-curvature="0" id="path4583" style="font-style:normal;font-variant:normal;font-weight:500;font-stretch:normal;font-size:10.58333302px;font-family:'.VnCooper';-inkscape-font-specification:'.VnCooper, Medium';font-variant-ligatures:normal;font-variant-caps:normal;font-variant-numeric:normal;font-feature-settings:normal;text-align:center;writing-mode:lr-tb;text-anchor:middle;fill:#00ff69;fill-opacity:1;stroke-width:0.08055864" d="m 61.903755,230.39085 q 0,-1.66139 1.165304,-2.75177 0.58136,-0.54001 1.312581,-0.8139 0.718302,-0.27647 1.617472,-0.27647 1.346171,0 2.351278,0.72089 0.824239,0.59169 1.302246,1.5968 0.400492,0.86816 0.400492,1.63039 0,1.65106 -1.278991,2.74144 -1.21698,1.03611 -2.901632,1.03611 -1.692403,0 -2.824117,-1.10071 -1.144633,-1.10071 -1.144633,-2.78278 z m 6.128825,-4.80332 q 0,0.19895 -0.116272,0.31523 -0.116272,0.12919 -0.29714,0.12919 -0.08527,0 -0.201538,-0.0439 -0.116272,-0.031 -0.28422,-0.10593 l -0.63562,-0.30748 q -0.328145,-0.14728 -0.519348,-0.14728 -0.242879,0 -0.84491,0.29714 -0.614949,0.30748 -0.785482,0.30748 -0.167948,0 -0.28422,-0.13953 -0.126607,-0.12661 -0.126607,-0.30489 0,-0.23513 0.434082,-0.63562 0.400492,-0.34882 0.91984,-0.64596 0.519348,-0.2868 0.687297,-0.2868 0.201538,0 0.710551,0.2868 0.496093,0.28681 0.89917,0.64596 0.444417,0.40049 0.444417,0.63562 z m -2.519226,2.5399 q -0.403076,0 -0.656291,0.35915 -0.232544,0.36948 -0.232544,0.7829 0,0.52968 0.222209,1.34358 0.211873,0.81649 0.58136,1.39785 0.444417,0.6873 0.974101,0.6873 0.434082,0 0.687296,-0.33848 0.245463,-0.32815 0.245463,-0.79324 0,-0.54002 -0.191203,-1.32291 -0.222208,-0.86817 -0.604614,-1.43919 -0.454753,-0.67696 -1.025777,-0.67696 z" />
      <path inkscape:connector-curvature="0" id="path4585" style="font-style:normal;font-variant:normal;font-weight:500;font-stretch:normal;font-size:10.58333302px;font-family:'.VnCooper';-inkscape-font-specification:'.VnCooper, Medium';font-variant-ligatures:normal;font-variant-caps:normal;font-variant-numeric:normal;font-feature-settings:normal;text-align:center;writing-mode:lr-tb;text-anchor:middle;fill:#00ff69;fill-opacity:1;stroke-width:0.08055864" d="m 77.280077,228.37031 v 0.9095 q 0,0.1912 0.116272,0.30748 0.0646,0.062 0.253215,0.0956 h 0.37207 l 0.242879,-0.0233 0.222209,-0.0207 q 0.105937,0 0.211873,0.10594 l 0.04134,0.22221 0.03359,0.27647 q 0,0.16794 -0.07493,0.29455 -0.08527,0.12919 -0.242879,0.13953 l -0.266133,-0.0207 -0.26355,-0.0233 h -0.31781 q -0.126608,0 -0.222209,0.10594 -0.105937,0.10594 -0.105937,0.31781 v 1.2609 q 0,0.41083 0.105937,0.58136 0.147278,0.17829 0.550354,0.17829 0.60203,0 0.994771,-0.39016 0.29714,-0.29714 0.454753,-0.93276 0.05426,-0.22221 0.08527,-0.50643 0.03101,-0.2868 0.03101,-0.59169 0,-1.16531 -0.253215,-1.80093 -0.253214,-0.6227 -0.676961,-0.8785 -0.31781,-0.1912 -0.816487,-0.1912 -0.294556,0 -0.379822,0.13953 -0.0956,0.13694 -0.0956,0.44442 z m -2.328023,-1.73633 h 3.449402 q 1.366842,0 2.317688,0.54002 0.793233,0.46508 1.227315,1.37459 0.361735,0.77256 0.361735,1.81126 0,1.63039 -0.912089,2.64583 -1.036112,1.17306 -2.919718,1.17306 l -1.165304,-0.031 -0.909505,-0.0207 -0.676961,0.0103 -1.121379,0.0413 q -0.297139,0 -0.540018,-0.13695 -0.276469,-0.17828 -0.276469,-0.46508 0,-0.28681 0.276469,-0.39274 0.591695,-0.18862 0.591695,-1.06712 v -1.12138 q 0,-0.0233 0,-0.0439 0,-0.0853 -0.07235,-0.17828 -0.0646,-0.12919 -0.170533,-0.13953 l -0.232543,0.0233 -0.232544,0.0207 q -0.0956,0 -0.201538,-0.11627 l -0.08527,-0.22221 0.02067,-0.31781 q 0.01033,-0.17053 0.0646,-0.23255 0.07493,-0.12919 0.232543,-0.14986 l 0.26355,0.0207 0.266134,0.0233 q 0.06201,0 0.157613,-0.12661 l 0.07493,-0.23513 v -1.08779 q 0,-0.3824 -0.379822,-0.55035 -0.392741,-0.1602 -0.392741,-0.48834 0,-0.30748 0.348816,-0.46509 0.253215,-0.0956 0.63562,-0.0956 z" />
      <path inkscape:connector-curvature="0" id="path4587" style="font-style:normal;font-variant:normal;font-weight:500;font-stretch:normal;font-size:10.58333302px;font-family:'.VnCooper';-inkscape-font-specification:'.VnCooper, Medium';font-variant-ligatures:normal;font-variant-caps:normal;font-variant-numeric:normal;font-feature-settings:normal;text-align:center;writing-mode:lr-tb;text-anchor:middle;fill:#00ff69;fill-opacity:1;stroke-width:0.08055864" d="m 83.594937,230.94121 v -1.04645 q 0,-0.88883 -0.06201,-1.29191 -0.03359,-0.36949 -0.160197,-0.50901 l -0.410828,-0.32815 q -0.245463,-0.17828 -0.245463,-0.41083 0,-0.478 1.100708,-0.66662 0.573609,-0.0956 1.27124,-0.0956 0.793234,0 1.206645,0.0956 0.728638,0.15761 0.728638,0.64337 0,0.22221 -0.232544,0.36173 -0.369487,0.21188 -0.410828,0.27389 -0.105937,0.11627 -0.170532,0.66663 l -0.04134,1.2609 v 1.04645 q 0,1.33325 0.08268,1.64072 0.05426,0.20154 0.245463,0.31781 l 0.369487,0.21188 q 0.157613,0.11627 0.157613,0.33848 0,0.33848 -0.328146,0.50643 -0.560689,0.2868 -2.08256,0.2868 -0.741557,0 -1.049031,-0.0853 -0.731222,-0.15762 -0.731222,-0.60203 0,-0.22221 0.276469,-0.40308 0.211873,-0.12661 0.273885,-0.21187 0.05426,-0.0853 0.149862,-0.56069 0.06201,-0.44442 0.06201,-1.43919 z" />
      <path inkscape:connector-curvature="0" id="path4589" style="font-style:normal;font-variant:normal;font-weight:500;font-stretch:normal;font-size:10.58333302px;font-family:'.VnCooper';-inkscape-font-specification:'.VnCooper, Medium';font-variant-ligatures:normal;font-variant-caps:normal;font-variant-numeric:normal;font-feature-settings:normal;text-align:center;writing-mode:lr-tb;text-anchor:middle;fill:#00ff69;fill-opacity:1;stroke-width:0.08055864" d="m 54.795662,241.59947 -0.04134,1.00511 -0.01033,0.22221 q 0,0.16795 0.05168,0.22221 0.05426,0.0646 0.232544,0.0646 0.478007,0 0.700216,-0.2558 0.105937,-0.13694 0.157613,-0.32814 0.05426,-0.19121 0.05426,-0.45476 0,-0.44441 -0.139526,-0.7183 -0.178284,-0.32814 -0.60203,-0.32814 -0.232544,0 -0.338481,0.13694 -0.0646,0.12661 -0.0646,0.43408 z m -2.495971,3.55534 v -3.01532 q 0,-0.9741 -0.540019,-1.25057 -0.266134,-0.11627 -0.266134,-0.36949 0,-0.36948 0.467672,-0.54001 l 0.338481,-0.0853 0.444417,-0.031 0.676961,0.0413 0.622701,0.0336 0.361735,-0.0103 0.400493,-0.0103 1.29191,-0.0543 q 1.038697,0 1.736329,0.43409 0.847493,0.50901 0.847493,1.50378 0,0.46509 -0.224792,0.88883 -0.222209,0.42375 -0.676962,0.64596 l -0.116272,0.0724 q -0.02067,0.031 -0.03101,0.0646 -0.01033,0.031 -0.02067,0.0724 0,0.12919 0.116272,0.1912 l 0.147278,0.0646 q 0.529683,0.18862 0.816487,0.59169 0.273885,0.41341 0.400493,1.31258 0.0646,0.50902 0.434082,0.64596 0.382405,0.0956 0.382405,0.39016 0,0.31781 -0.423747,0.58394 -0.423746,0.24288 -1.260904,0.24288 -1.14205,0 -1.627808,-0.65629 -0.286804,-0.40308 -0.604614,-1.71566 -0.126607,-0.56069 -0.338481,-0.75964 -0.222209,-0.20154 -0.540019,-0.20154 -0.191202,0 -0.253214,0.0956 -0.0646,0.10594 -0.0646,0.60203 l 0.01034,0.54002 0.01033,0.21187 q 0,0.13695 0.05426,0.30748 0.03101,0.17828 0.232544,0.31522 0.392741,0.26614 0.392741,0.49868 0,0.30748 -0.392741,0.49868 -0.403076,0.16795 -1.586466,0.16795 -1.018026,0 -1.516704,-0.18862 -0.496093,-0.1912 -0.496093,-0.58394 0,-0.15762 0.403076,-0.45476 0.392741,-0.2868 0.392741,-1.09037 z" />
      <path inkscape:connector-curvature="0" id="path4591" style="font-style:normal;font-variant:normal;font-weight:500;font-stretch:normal;font-size:10.58333302px;font-family:'.VnCooper';-inkscape-font-specification:'.VnCooper, Medium';font-variant-ligatures:normal;font-variant-caps:normal;font-variant-numeric:normal;font-feature-settings:normal;text-align:center;writing-mode:lr-tb;text-anchor:middle;fill:#00ff69;fill-opacity:1;stroke-width:0.08055864" d="m 63.575488,244.29698 h 0.793233 0.242879 q 0.147278,-0.031 0.180868,-0.13694 0,-0.0956 -0.222209,-0.56069 l -0.170532,-0.29714 -0.201538,-0.33848 q -0.157614,-0.22221 -0.307475,-0.22221 -0.157613,0 -0.315226,0.32815 l -0.160197,0.42374 -0.126608,0.31781 q -0.0956,0.25322 -0.0956,0.33848 0,0.14728 0.276469,0.14728 z m -2.09548,0.6873 0.666626,-1.44953 0.496094,-1.20664 q 0.26355,-0.79323 0.26355,-1.28933 0,-0.56069 0.307475,-0.92242 0.297139,-0.35915 0.9741,-0.35915 0.731222,0 1.377177,0.80357 0.198954,0.25579 0.537435,0.83715 0.235128,0.39274 1.018026,2.02055 l 1.142049,2.39262 q 0.160197,0.40308 0.540019,0.51935 0.379821,0.0956 0.379821,0.40049 0,0.38241 -0.475423,0.57361 -0.540019,0.16795 -1.55546,0.16795 h -0.253215 -0.211873 -0.170532 -0.136943 q -0.434082,0 -0.656291,-0.031 -0.994771,-0.0956 -0.994771,-0.63562 0,-0.23254 0.434082,-0.43408 0.180868,-0.0646 0.211873,-0.25321 0,-0.32815 -0.33848,-0.43409 l -0.550354,-0.0646 -1.080038,-0.0207 q -0.454752,0 -0.666626,0.0853 -0.211873,0.0956 -0.211873,0.45476 0,0.18086 0.338481,0.27388 0.33848,0.10594 0.33848,0.41341 0,0.31781 -0.379821,0.47801 -0.392741,0.16795 -1.185975,0.16795 -1.025777,0 -1.387512,-0.18087 -0.26355,-0.13694 -0.26355,-0.44442 0,-0.24288 0.317811,-0.40049 0.423746,-0.1602 0.550354,-0.30747 0.07493,-0.0853 0.136942,-0.20154 0.0646,-0.10594 0.126607,-0.21188 z" />
      <path inkscape:connector-curvature="0" id="path4593" style="font-style:normal;font-variant:normal;font-weight:500;font-stretch:normal;font-size:10.58333302px;font-family:'.VnCooper';-inkscape-font-specification:'.VnCooper, Medium';font-variant-ligatures:normal;font-variant-caps:normal;font-variant-numeric:normal;font-feature-settings:normal;text-align:center;writing-mode:lr-tb;text-anchor:middle;fill:#00ff69;fill-opacity:1;stroke-width:0.08055864" d="m 76.153531,241.59947 v 0.90951 q 0,0.1912 0.116272,0.30747 0.0646,0.062 0.253215,0.0956 h 0.37207 l 0.242879,-0.0232 0.222209,-0.0207 q 0.105937,0 0.211873,0.10593 l 0.04134,0.22221 0.03359,0.27647 q 0,0.16795 -0.07493,0.29456 -0.08527,0.12919 -0.242879,0.13952 l -0.266134,-0.0207 -0.263549,-0.0232 h -0.31781 q -0.126608,0 -0.222209,0.10594 -0.105937,0.10593 -0.105937,0.31781 v 1.2609 q 0,0.41083 0.105937,0.58136 0.147278,0.17828 0.550354,0.17828 0.60203,0 0.994771,-0.39015 0.29714,-0.29714 0.454753,-0.93276 0.05426,-0.22221 0.08527,-0.50643 0.03101,-0.28681 0.03101,-0.5917 0,-1.1653 -0.253215,-1.80092 -0.253214,-0.6227 -0.676961,-0.8785 -0.31781,-0.1912 -0.816488,-0.1912 -0.294555,0 -0.379821,0.13952 -0.0956,0.13695 -0.0956,0.44442 z m -2.328023,-1.73633 h 3.449402 q 1.366841,0 2.317688,0.54002 0.793233,0.46509 1.227315,1.3746 0.361735,0.77256 0.361735,1.81125 0,1.6304 -0.912089,2.64584 -1.036113,1.17305 -2.919718,1.17305 l -1.165304,-0.031 -0.909505,-0.0207 -0.676961,0.0103 -1.121379,0.0413 q -0.297139,0 -0.540019,-0.13694 -0.276468,-0.17828 -0.276468,-0.46509 0,-0.2868 0.276468,-0.39274 0.591696,-0.18862 0.591696,-1.06712 v -1.12138 q 0,-0.0232 0,-0.0439 0,-0.0853 -0.07235,-0.17828 -0.0646,-0.1292 -0.170533,-0.13953 l -0.232544,0.0232 -0.232544,0.0207 q -0.0956,0 -0.201538,-0.11627 l -0.08527,-0.22221 0.02067,-0.31781 q 0.01034,-0.17053 0.0646,-0.23254 0.07493,-0.12919 0.232544,-0.14986 l 0.26355,0.0207 0.266134,0.0232 q 0.06201,0 0.157613,-0.1266 l 0.07493,-0.23513 v -1.08779 q 0,-0.38241 -0.379822,-0.55035 -0.392741,-0.1602 -0.392741,-0.48835 0,-0.30747 0.348816,-0.46508 0.253214,-0.0956 0.63562,-0.0956 z" />
      <path inkscape:connector-curvature="0" id="path4595" style="font-style:normal;font-variant:normal;font-weight:500;font-stretch:normal;font-size:10.58333302px;font-family:'.VnCooper';-inkscape-font-specification:'.VnCooper, Medium';font-variant-ligatures:normal;font-variant-caps:normal;font-variant-numeric:normal;font-feature-settings:normal;text-align:center;writing-mode:lr-tb;text-anchor:middle;fill:#00ff69;fill-opacity:1;stroke-width:0.08055864" d="m 82.468391,244.17037 v -1.04644 q 0,-0.88884 -0.06201,-1.29191 -0.03359,-0.36949 -0.160197,-0.50902 l -0.410828,-0.32814 q -0.245463,-0.17829 -0.245463,-0.41083 0,-0.47801 1.100708,-0.66663 0.573608,-0.0956 1.27124,-0.0956 0.793233,0 1.206645,0.0956 0.728638,0.15762 0.728638,0.64338 0,0.2222 -0.232544,0.36173 -0.369487,0.21187 -0.410828,0.27389 -0.105937,0.11627 -0.170532,0.66662 l -0.04134,1.26091 v 1.04644 q 0,1.33326 0.08268,1.64073 0.05426,0.20154 0.245463,0.31781 l 0.369486,0.21187 q 0.157614,0.11628 0.157614,0.33848 0,0.33849 -0.328146,0.50643 -0.560689,0.28681 -2.08256,0.28681 -0.741557,0 -1.049032,-0.0853 -0.731221,-0.15761 -0.731221,-0.60203 0,-0.22221 0.276469,-0.40307 0.211873,-0.12661 0.273885,-0.21188 0.05426,-0.0853 0.149862,-0.56069 0.06201,-0.44441 0.06201,-1.43919 z" />
      <path inkscape:connector-curvature="0" id="path4597" style="font-style:normal;font-variant:normal;font-weight:500;font-stretch:normal;font-size:10.58333302px;font-family:'.VnCooper';-inkscape-font-specification:'.VnCooper, Medium';font-variant-ligatures:normal;font-variant-caps:normal;font-variant-numeric:normal;font-feature-settings:normal;text-align:center;writing-mode:lr-tb;text-anchor:middle;fill:#00ff69;fill-opacity:1;stroke-width:0.08055864" d="m 88.940864,246.33045 q 0,0.45475 -0.338481,0.8139 -0.348816,0.35915 -0.834574,0.35915 -0.266134,0 -0.444418,-0.0723 -0.191202,-0.0646 -0.39274,-0.26614 -0.338481,-0.35915 -0.338481,-0.83457 0,-0.48834 0.348816,-0.83716 0.338481,-0.33848 0.826823,-0.33848 0.475423,0 0.824239,0.33848 0.348816,0.34882 0.348816,0.83716 z m 0.0956,-4.92218 q 0,0.23254 -0.03101,0.46509 -0.03359,0.24288 -0.116272,0.54002 -0.149861,0.56068 -0.392741,1.02577 -0.126607,0.28681 -0.297139,0.51935 -0.253215,0.37207 -0.431498,0.37207 -0.160197,0 -0.423747,-0.37207 l -0.160197,-0.24288 -0.147278,-0.27647 q -0.201538,-0.41082 -0.392741,-1.0051 -0.147277,-0.57103 -0.147277,-1.02578 0,-0.63562 0.297139,-1.10071 0.359151,-0.51935 0.974101,-0.51935 0.60203,0 0.971517,0.50902 0.297139,0.47542 0.297139,1.11104 z" />
    </g>
  </g>
</svg>
