<?xml version="1.0" encoding="UTF-8" standalone="no"?>
<!-- Created with Inkscape (http://www.inkscape.org/) -->

<svg xmlns:dc="http://purl.org/dc/elements/1.1/" xmlns:cc="http://creativecommons.org/ns#" xmlns:rdf="http://www.w3.org/1999/02/22-rdf-syntax-ns#" xmlns:svg="http://www.w3.org/2000/svg" xmlns="http://www.w3.org/2000/svg" xmlns:sodipodi="http://sodipodi.sourceforge.net/DTD/sodipodi-0.dtd" xmlns:inkscape="http://www.inkscape.org/namespaces/inkscape" width="150mm" height="180mm" viewBox="0 0 150 180" version="1.1" id="svg8" inkscape:version="0.92.1 r15371" sodipodi:docname="5.svg" inkscape:export-filename="D:\img\_FPT\Ban hang\img\t\d\5.png" inkscape:export-xdpi="144" inkscape:export-ydpi="144">
  <defs id="defs2">
    <filter id="filter4683" inkscape:label="Fade to Black or White" style="color-interpolation-filters:sRGB;">
      <feColorMatrix id="feColorMatrix4681" values="0 0 0 0 0 0 0 0 0 0 0 0 0 0 0 0 0 0 1 0" />
    </filter>
    <clipPath id="clipPath4685" clipPathUnits="userSpaceOnUse">
      <path inkscape:connector-curvature="0" style="font-style:normal;font-variant:normal;font-weight:normal;font-stretch:normal;font-size:20.10674858px;line-height:0.80000001;font-family:ClassiqueSaigon;-inkscape-font-specification:'ClassiqueSaigon, weight=250';font-variant-ligatures:normal;font-variant-caps:normal;font-variant-numeric:normal;font-feature-settings:normal;text-align:start;letter-spacing:0px;word-spacing:0px;writing-mode:lr-tb;text-anchor:start;fill:#2fc1bd;fill-opacity:1;stroke:none;stroke-width:0.26458332" d="m 91.902402,143.49019 c -0.56973,0 -1.129919,0.10791 -1.680001,0.32401 -0.53044,0.19646 -1.031251,0.56974 -1.502752,1.11983 l 0.825273,0.67747 c 0.333978,-0.41256 0.707266,-0.68723 1.119828,-0.82475 0.412562,-0.15718 0.854517,-0.22586 1.326017,-0.20619 0.471501,0.0196 0.962504,0.0981 1.473295,0.23564 0.530437,0.13753 1.080815,0.29449 1.650545,0.47129 0.550085,0.15717 1.129374,0.31463 1.738395,0.47181 0.628668,0.13751 1.228095,0.20619 1.797825,0.20619 0.589373,0 1.149046,-0.0986 1.679483,-0.29508 0.53044,-0.2161 1.02144,-0.59919 1.47329,-1.14928 l -0.88366,-0.73639 c -0.33397,0.41257 -0.70726,0.69756 -1.119829,0.85473 -0.392917,0.15716 -0.825063,0.23564 -1.296562,0.23564 -0.451855,-0.0196 -0.943374,-0.0883 -1.473813,-0.20618 -0.53044,-0.13753 -1.070489,-0.295 -1.620573,-0.47181 -0.569728,-0.17681 -1.149535,-0.33377 -1.738911,-0.47129 -0.589375,-0.15717 -1.178475,-0.23564 -1.76785,-0.23564 z m -43.566334,0.2651 c -0.56973,0 -1.129917,0.10791 -1.680001,0.32401 -0.530437,0.19646 -1.031251,0.56974 -1.502752,1.11982 l 0.825273,0.678 c 0.333981,-0.41256 0.707268,-0.68775 1.11983,-0.82527 0.412562,-0.15718 0.854515,-0.22586 1.326015,-0.20619 0.471501,0.0196 0.962507,0.0981 1.473295,0.23564 0.53044,0.13752 1.080818,0.29448 1.650545,0.47129 0.550085,0.15716 1.129374,0.31463 1.738398,0.47181 0.628665,0.13751 1.228092,0.20619 1.797822,0.20619 0.589375,0 1.149046,-0.0981 1.679485,-0.29456 0.530437,-0.21611 1.02144,-0.5992 1.473295,-1.14928 l -0.883668,-0.73691 c -0.333978,0.41257 -0.707266,0.69756 -1.119828,0.85473 -0.392917,0.15716 -0.825061,0.23565 -1.296562,0.23565 -0.451855,-0.0196 -0.943374,-0.0883 -1.473811,-0.20619 -0.530439,-0.13753 -1.070491,-0.295 -1.620573,-0.47181 -0.56973,-0.17682 -1.149537,-0.33376 -1.738913,-0.47129 -0.589375,-0.15716 -1.178475,-0.23564 -1.76785,-0.23564 z m 52.481552,2.43809 v 2.44585 h 0.61908 l -0.23823,0.70228 c -0.23496,-0.32191 -0.49388,-0.62297 -0.77979,-0.90072 -0.667964,-0.68762 -1.463585,-1.22819 -2.386938,-1.62109 -0.903708,-0.39293 -1.885715,-0.58911 -2.946591,-0.58911 -1.060873,0 -2.053206,0.19618 -2.976562,0.58911 -0.903708,0.3929 -1.699329,0.93347 -2.386933,1.62109 -0.66796,0.66795 -1.1982,1.46357 -1.591117,2.38693 -0.392917,0.90371 -0.58963,1.88572 -0.58963,2.94659 0,1.06088 0.196713,2.05322 0.58963,2.97657 0.392917,0.9037 0.923157,1.69932 1.591117,2.38693 0.687604,0.66796 1.483225,1.19872 2.386933,1.59163 0.923356,0.39292 1.915689,0.58911 2.976562,0.58911 1.060876,0 2.042883,-0.19619 2.946591,-0.58911 0.923353,-0.39291 1.718974,-0.92367 2.386938,-1.59163 0.6876,-0.68761 1.22817,-1.48323 1.62109,-2.38693 0.39291,-0.92335 0.58911,-1.91569 0.58911,-2.97657 0,-1.06087 -0.1962,-2.04288 -0.58911,-2.94659 -0.0523,-0.12287 -0.10786,-0.24338 -0.16537,-0.36173 h 0.18087 l 1.23765,-1.82676 v -2.44585 z m -29.834873,0.30231 v 10.40246 4.27313 h 4.273124 10.402467 v -4.27313 H 75.255871 v -10.40246 z m -21.026106,0.0294 -6.748426,14.67559 h 4.273124 l 0.560173,-1.20819 h 6.866247 l 0.559655,1.20819 h 4.273127 l -6.129859,-14.67559 z m -22.259108,0.0295 v 6.71897 h -1.827278 v 1.23765 h 1.827278 v 6.71897 h 2.445846 1.856218 1.827279 c 1.021583,0 1.974159,-0.1869 2.858222,-0.56017 0.884066,-0.39292 1.660068,-0.91335 2.328024,-1.56167 0.667959,-0.66796 1.188908,-1.44396 1.562179,-2.32802 0.392917,-0.90371 0.589111,-1.8661 0.589111,-2.88768 0,-1.02158 -0.196194,-1.97467 -0.589111,-2.85874 -0.373271,-0.90371 -0.89422,-1.67971 -1.562179,-2.32802 -0.667956,-0.66796 -1.443958,-1.18839 -2.328024,-1.56167 -0.884063,-0.39291 -1.836639,-0.58962 -2.858222,-0.58962 h -1.827279 -1.856218 z m 67.387618,4.06693 c 0.43221,0 0.844736,0.0883 1.237652,0.2651 0.392917,0.15717 0.726964,0.3735 1.002007,0.64854 0.275042,0.27503 0.490855,0.60857 0.648022,1.00149 0.176811,0.39291 0.2651,0.80544 0.2651,1.23765 0,0.45186 -0.08829,0.87472 -0.2651,1.26762 -0.157167,0.37328 -0.37298,0.697 -0.648022,0.97204 -0.275043,0.27505 -0.60909,0.50118 -1.002007,0.67799 -0.392916,0.15716 -0.805442,0.23565 -1.237652,0.23565 -0.451852,0 -0.874188,-0.0785 -1.267105,-0.23565 -0.373272,-0.17681 -0.697508,-0.40294 -0.97255,-0.67799 -0.275043,-0.27504 -0.501182,-0.59876 -0.677995,-0.97204 -0.157168,-0.3929 -0.235646,-0.81576 -0.235646,-1.26762 0,-0.43221 0.07848,-0.84474 0.235646,-1.23765 0.176813,-0.39292 0.402952,-0.72646 0.677995,-1.00149 0.275042,-0.27504 0.599278,-0.49137 0.97255,-0.64854 0.392917,-0.17681 0.815253,-0.2651 1.267105,-0.2651 z m -63.085554,0.20619 h 1.827279 c 0.864418,0 1.591371,0.29481 2.180746,0.88419 0.589373,0.58937 0.883666,1.31632 0.883666,2.18074 0,0.86442 -0.294293,1.59137 -0.883666,2.18075 -0.589375,0.58936 -1.316328,0.88367 -2.180746,0.88367 h -1.827279 v -2.44585 h 1.827279 v -1.23765 h -1.827279 z m 19.578132,1.79782 1.620573,3.6835 h -3.388939 z m -2.525426,10.67274 -6.748426,2.97604 0.530717,1.09038 6.217709,-2.76986 6.188771,2.76986 0.471289,-1.09038 z m 58.296177,0.64802 -1.14928,7.27914 1.2082,0.11783 1.09037,-7.19078 z m 5.02192,0.46302 v 2.44636 h 0.61908 l -0.35243,1.03973 h -3.60857 v 8.01553 c 0,0.58938 -0.22614,1.0902 -0.67799,1.50276 -0.43221,0.41256 -0.93302,0.61856 -1.50275,0.61856 -0.56973,0 -1.08087,-0.206 -1.53272,-0.61856 -0.43222,-0.41256 -0.64802,-0.91338 -0.64802,-1.50276 v -8.01553 h -4.56768 v 8.01553 c 0,0.943 0.17658,1.82692 0.5302,2.65204 0.35362,0.80549 0.83533,1.51281 1.44435,2.12183 0.60902,0.60902 1.31584,1.09022 2.12132,1.44384 0.82512,0.35362 1.70955,0.5302 2.65255,0.5302 0.943,0 1.8171,-0.17658 2.62258,-0.5302 0.82512,-0.35362 1.54227,-0.83482 2.15129,-1.44384 0.60902,-0.60902 1.09021,-1.31634 1.44384,-2.12183 0.35363,-0.82512 0.53071,-1.70904 0.53071,-2.65204 v -7.22849 h 0.0119 l 1.23765,-1.82677 v -2.44636 z m 28.03808,3.27939 c -1.06087,0 -2.0532,0.19671 -2.97656,0.58963 -0.90371,0.39291 -1.69934,0.93296 -2.38694,1.62057 -0.66795,0.66796 -1.19819,1.46358 -1.59111,2.38693 -0.39292,0.90371 -0.58963,1.88624 -0.58963,2.94711 0,1.06088 0.19671,2.05322 0.58963,2.97656 0.39292,0.90371 0.92316,1.69933 1.59111,2.38694 0.6876,0.66796 1.48323,1.1982 2.38694,1.59112 0.92336,0.39291 1.91569,0.58911 2.97656,0.58911 1.06088,0 2.04289,-0.1962 2.94659,-0.58911 0.92336,-0.39292 1.71899,-0.92316 2.38694,-1.59112 0.6876,-0.68761 1.22816,-1.48323 1.62109,-2.38694 0.39291,-0.92334 0.58911,-1.91568 0.58911,-2.97656 h -0.58911 -3.80184 -3.15278 v 1.26711 h 2.88768 c -0.25539,0.56973 -0.6483,1.0313 -1.17874,1.38493 -0.51078,0.33397 -1.08027,0.50126 -1.70894,0.50126 -0.45184,0 -0.87419,-0.079 -1.26711,-0.23617 -0.37326,-0.17681 -0.6975,-0.40243 -0.97255,-0.67747 -0.27504,-0.27504 -0.50118,-0.59928 -0.67799,-0.97255 -0.15717,-0.39291 -0.23564,-0.81525 -0.23564,-1.26711 0,-0.43221 0.0785,-0.84474 0.23564,-1.23765 0.17681,-0.39293 0.40295,-0.72697 0.67799,-1.00201 0.27505,-0.27504 0.59929,-0.49137 0.97255,-0.64853 0.39292,-0.17681 0.81527,-0.26511 1.26711,-0.26511 0.45186,0 0.87419,0.0986 1.26711,0.29508 0.41256,0.17681 0.75642,0.43186 1.03146,0.76584 l 3.33003,-3.03495 c -0.70725,-0.74655 -1.54263,-1.33617 -2.50528,-1.76837 -0.96264,-0.43221 -2.0035,-0.64854 -3.12332,-0.64854 z m -98.723169,0.26562 v 4.2726 0.9431 4.24367 0.94309 4.27261 h 4.273124 10.402466 v -4.27261 H 45.958435 v -0.94309 h 7.956621 v -4.24367 h -7.956621 v -0.9431 h 10.402466 v -4.2726 H 45.958435 Z m -15.844511,0.0294 4.508768,7.80883 -3.8902,6.86624 h 4.774385 l 8.516276,-14.67507 H 34.76997 l -1.915644,3.33003 -1.768369,-3.33003 z m 57.496748,0 v 3.65404 h 4.921147 v 11.02103 h 4.273124 v -11.02103 h 4.921147 v -3.65404 h -4.921147 -4.273124 z m 32.774742,0 v 14.67507 h 4.27312 v -7.95662 l 6.12935,7.95662 h 4.27312 v -14.67507 h -4.27312 v 8.28063 l -6.12935,-8.28063 z m -57.715854,0.0295 v 7.92716 c 0,0.96264 0.176575,1.86617 0.530199,2.71095 0.373271,0.84477 0.874601,1.58153 1.503267,2.2102 0.628669,0.62867 1.365433,1.12949 2.210202,1.50275 0.84477,0.35363 1.748298,0.53072 2.710945,0.53072 0.962647,0 1.866175,-0.17709 2.710947,-0.53072 0.84477,-0.37326 1.581534,-0.87408 2.2102,-1.50275 0.628668,-0.62867 1.119671,-1.36543 1.473295,-2.2102 0.373271,-0.84478 0.560173,-1.74831 0.560173,-2.71095 v -7.92716 h -4.714957 v 7.92716 c 0,0.60902 -0.226142,1.12946 -0.677995,1.56166 -0.451855,0.41256 -0.972288,0.61857 -1.561663,0.61857 -0.589375,0 -1.109808,-0.20601 -1.561661,-0.61857 -0.451853,-0.4322 -0.677995,-0.95264 -0.677995,-1.56166 v -7.92716 z m 16.454808,14.61358 -0.265099,1.20819 9.606648,2.03347 0.265617,-1.2082 z m 1.31,2.12958 -6.748426,2.97656 0.530717,1.09038 6.217709,-2.77038 6.188768,2.77038 0.471289,-1.09038 z m -30.975372,4.65605 v 5.15731 4.30206 5.21622 h 4.30258 v -5.21622 h 4.891691 v 5.21622 h 4.30258 v -5.21622 -4.30206 -5.15731 h -4.30258 v 5.15731 h -4.891691 v -5.15731 z m 23.60838,0 v 4.27312 0.9431 4.24315 0.94309 4.27313 h 4.273124 10.402464 v -4.27313 H 73.067376 v -0.94309 h 7.956618 v -4.24315 h -7.956618 v -0.9431 H 83.46984 v -4.27312 H 73.067376 Z m -41.951447,0.0294 v 14.67559 h 4.272608 v -7.95662 l 6.129858,7.95662 H 41.51788 V 189.4419 h -4.272609 v 8.28063 l -6.129858,-8.28063 z m 35.485173,0 v 14.67559 h 3.654041 V 189.4419 Z m 23.177397,0.0295 v 7.92716 c 0,0.96264 0.176575,1.86617 0.530201,2.71095 0.373269,0.84477 0.874601,1.58153 1.503267,2.2102 0.628666,0.62867 1.36543,1.13 2.2102,1.50326 0.844772,0.35363 1.7483,0.5302 2.710947,0.5302 0.962647,0 1.866175,-0.17657 2.710945,-0.5302 0.844772,-0.37326 1.581533,-0.87459 2.210202,-1.50326 0.628666,-0.62867 1.119669,-1.36543 1.473295,-2.2102 0.373269,-0.84478 0.560171,-1.74831 0.560171,-2.71095 v -7.92716 h -4.714957 v 7.92716 c 0,0.60902 -0.22614,1.12946 -0.677995,1.56167 -0.451853,0.41256 -0.972286,0.61908 -1.561661,0.61908 -0.589375,0 -1.109808,-0.20652 -1.561664,-0.61908 -0.451852,-0.43221 -0.677994,-0.95265 -0.677994,-1.56167 v -7.92716 z" id="path4687" />
    </clipPath>
    <filter inkscape:collect="always" style="color-interpolation-filters:sRGB" id="filter4610" x="-0.12637417" width="1.2527483" y="-0.062906872" height="1.1258137">
      <feGaussianBlur inkscape:collect="always" stdDeviation="15.064937" id="feGaussianBlur4612" />
    </filter>
  </defs>
  <sodipodi:namedview id="base" pagecolor="#ffa25d" bordercolor="#666666" borderopacity="1.0" inkscape:pageopacity="0" inkscape:pageshadow="2" inkscape:zoom="0.83913688" inkscape:cx="318.75764" inkscape:cy="359.59164" inkscape:document-units="mm" inkscape:current-layer="layer1" showgrid="false" inkscape:pagecheckerboard="true" inkscape:snap-global="true" inkscape:window-width="1920" inkscape:window-height="1017" inkscape:window-x="-8" inkscape:window-y="-8" inkscape:window-maximized="1" inkscape:measure-start="0,0" inkscape:measure-end="0,0" inkscape:snap-midpoints="true" />
  <metadata id="metadata5">
    <rdf:RDF>
      <cc:Work rdf:about="">
        <dc:format>image/svg+xml</dc:format>
        <dc:type rdf:resource="http://purl.org/dc/dcmitype/StillImage" />
        <dc:title></dc:title>
      </cc:Work>
    </rdf:RDF>
  </metadata>
  <g inkscape:label="Layer 1" inkscape:groupmode="layer" id="layer1" transform="translate(0,-117)">
    <path style="opacity:1;vector-effect:none;fill:#b3b3b3;fill-opacity:1;fill-rule:nonzero;stroke:none;stroke-width:0.26458334;stroke-linecap:butt;stroke-linejoin:miter;stroke-miterlimit:4;stroke-dasharray:none;stroke-dashoffset:0;stroke-opacity:1;paint-order:stroke fill markers;font-variant-east_asian:normal" d="m -54.17775,142.04718 h 16.944479 v 16.94448 H -54.17775 Z" id="rect4485" />
    <rect y="117" x="8.7420149e-006" height="180" width="150" id="rect4487" style="opacity:1;vector-effect:none;fill:#b3b3b3;fill-opacity:1;fill-rule:nonzero;stroke:none;stroke-width:0.26458335;stroke-linecap:butt;stroke-linejoin:miter;stroke-miterlimit:4;stroke-dasharray:none;stroke-dashoffset:0;stroke-opacity:1;paint-order:stroke fill markers" />
    <path style="opacity:1;vector-effect:none;fill:#000000;fill-opacity:1;fill-rule:nonzero;stroke:none;stroke-width:0.26458332;stroke-linecap:butt;stroke-linejoin:miter;stroke-miterlimit:4;stroke-dasharray:none;stroke-dashoffset:0;stroke-opacity:1;paint-order:stroke fill markers" d="m 68.730309,131.12478 c -5.889984,1.69298 -6.995463,8.51784 -6.679389,13.49321 -3.021307,5.71916 -6.07435,12.13349 -4.338495,18.19165 -5.514113,0.52748 -12.194373,9.43707 -6.536481,13.63401 -2.173726,1.28834 -9.434794,-1.06947 -8.011647,4.29942 -0.501975,5.42546 -2.124608,10.46344 -3.645064,15.41105 1.303235,4.11644 0.241117,6.53865 -2.178335,9.43811 -1.93799,6.0688 8.746273,10.98178 2.565292,15.86127 -3.255825,4.5255 -0.343995,10.97262 2.340726,15.29544 5.575776,4.72576 5.810577,12.42805 10.418524,17.74101 0.897218,4.26096 9.254735,1.66923 8.857674,2.70995 -2.531851,4.41951 -4.642608,12.74113 1.32521,15.35024 4.400266,0.66319 7.198778,0.7803 7.340454,5.78769 1.65531,5.32981 10.237145,12.78193 14.855006,6.12773 4.295985,-5.50879 1.699615,-14.5883 -6.742643,-13.12441 0.27829,-7.21947 9.600279,1.35615 10.02652,-6.36647 1.087155,-4.36499 -5.134318,-5.78211 -7.10259,-2.19293 -0.0962,-3.98181 1.46937,-13.1178 7.154125,-10.72228 3.894353,6.58585 10.24529,0.93116 10.34959,-4.62057 -0.185203,-5.14035 5.155274,-9.74557 2.135534,-14.83154 -2.91692,-0.94586 -2.426078,-8.15833 -0.24695,-3.25279 4.64726,0.65231 11.3855,-5.88914 4.20489,-7.4689 -3.24276,0.71824 -5.870729,1.17021 -2.43744,-1.90344 4.88346,-3.79603 12.05909,-1.06957 15.76828,-7.22924 3.29494,-4.24881 2.70185,-13.03668 -3.94708,-13.99724 -5.43233,1.23075 -6.56533,-1.44882 -3.19668,-5.38888 2.43904,-3.89615 -1.27181,-7.10259 -3.93337,-7.91488 -0.59012,-5.14304 -4.04519,-8.29621 -6.34696,-11.95978 -2.686799,-0.91986 -8.49983,-0.0699 -4.658281,-4.01235 7.927691,-3.85704 0.649327,-10.54546 -3.303152,-13.5566 1.588687,-4.45133 -3.723468,-7.85687 -3.070077,-12.47223 -3.069984,-3.55637 -8.686287,-2.00321 -9.623603,-7.0887 -3.164171,-2.46687 -7.629741,-3.45711 -11.343588,-5.23755 z m -0.180891,0.9674 c 6.789495,0.60555 1.589567,4.5494 -1.673699,1.45819 0.390482,-0.63406 1.137999,-0.965 1.673699,-1.45819 z m -2.758458,2.38378 c 4.542437,1.18792 12.123405,1.10869 9.10768,8.00058 -1.324271,5.3261 -10.357056,1.03947 -4.178629,-1.51228 -4.656593,3.73256 -8.353001,-3.41874 -4.929051,-6.4883 z m 11.078424,0.52331 c 5.082815,2.62187 3.75931,6.75839 0.795984,10.10679 -0.06013,5.64703 7.252515,1.72543 4.519092,-2.54399 2.087401,-4.82446 11.645804,5.80582 3.357396,3.8269 -8.079721,-0.31203 -1.323496,10.34099 3.041278,4.09342 3.437462,-2.3529 5.815743,7.5556 0.03457,6.11223 -4.976049,0.30266 5.820247,1.19951 1.287837,4.8014 -0.677276,1.08894 4.397675,-6.515 6.202813,-1.25949 6.641306,5.21645 -3.185916,9.47512 -4.081106,15.12148 -5.4781,5.6704 5.276881,8.98467 8.448582,12.55786 3.72199,1.16371 12.74997,-2.63051 9.65367,4.70604 -1.97305,3.07884 -4.98817,10.21368 1.70168,7.02813 8.89591,-2.27542 7.65034,13.15559 5.09245,12.22242 1.31111,-6.25883 -13.15756,-3.93853 -7.68064,1.34409 3.2683,0.18806 6.0523,3.38587 1.23013,3.49801 -5.83659,-1.01817 -11.779537,3.3986 -11.939747,9.09109 -2.827741,6.12104 4.613757,9.19316 1.088958,14.94931 -1.263955,5.0989 -9.25676,-1.84282 -10.035841,5.0797 -2.25156,7.43434 4.950626,3.19857 7.907186,0.70216 0.82238,3.40164 -5.028218,12.09796 -7.455439,5.07839 -7.925059,-4.26985 -10.104359,7.00084 -10.16704,12.3222 -0.464446,4.07073 -5.335482,10.49392 2.6697,8.95604 6.245759,1.87941 3.249101,14.77374 -3.625353,13.13715 -5.773567,-2.49065 -10.936504,-10.03754 -7.655955,-15.87284 3.245021,-2.20283 0.743172,-9.57703 -1.314701,-3.86126 0.341156,6.57216 -7.493093,8.40389 -9.611727,1.82316 -1.349693,-6.99192 4.245881,-12.78548 6.025768,-19.14652 -1.276992,-2.84988 -5.872168,0.15267 -0.836328,0.25729 -0.308638,1.92922 -1.774131,3.19857 -1.141347,0.22451 -0.967968,4.33059 -6.335703,10.20978 -10.591589,4.42159 -1.873465,-2.69567 -8.907453,-10.61841 -3.579052,-11.79041 0.64266,7.38612 12.211018,9.11651 11.399626,0.33365 0.02328,-5.7693 -5.347389,-10.66676 -9.851846,-13.30744 -4.435853,-2.75737 -7.282258,5.86547 -7.979571,4.72729 0.743987,-4.64619 -5.080996,-14.2515 4.03525,-12.79244 6.563009,0.5884 -5.375707,-2.75892 0.171113,-5.61598 0.099,-4.96928 7.566919,-3.97108 3.232359,-8.72196 -0.869228,-2.54304 -1.185568,-3.8198 -2.243959,-1.20352 -6.141518,-0.68834 -9.708937,-5.71731 -8.2085,-11.43529 1.573853,-4.56211 3.173753,5.11486 7.534691,2.95011 6.702589,-1.42248 0.982011,-9.42573 -4.267322,-7.65764 -2.881095,-2.46473 0.462154,-8.71821 1.99279,-11.50149 3.633764,-1.22894 8.321784,1.64013 10.528481,2.08997 -4.520626,-2.85786 -9.634645,-8.83614 -3.566689,-13.43598 1.161477,-3.52426 11.5084,-1.27952 5.738369,-5.88428 -1.728609,-3.47072 1.042907,-12.3629 4.199997,-11.34355 0.989005,1.56578 6.553959,8.87272 6.610605,5.74456 -4.231601,-2.21181 -10.02108,-10.32053 -1.841998,-10.91893 4.523068,5.28084 11.133486,-1.18936 8.105925,-6.55272 -1.302988,-1.9387 -1.767049,-2.42913 1.069453,-2.46121 z m -9.385326,19.7515 -0.04789,-0.0445 z m 28.714532,92.52274 -0.06053,0.0667 z M 79.078509,136.47385 c 0.342331,0.30463 -0.259221,0.12063 0,0 z m -15.520761,2.60875 c 1.702863,1.78629 3.106584,6.19674 -0.733809,5.43599 -0.126142,-1.83248 0.389876,-3.64712 0.733809,-5.43599 z m 17.432672,3.29983 c 3.274093,3.50598 -4.373623,6.64774 -1.372817,1.62982 l 0.63227,-0.84667 z m 5.776216,4.99937 c 6.393961,3.35243 -8.403725,5.61765 -3.121472,0.41424 0.9343,-0.49567 2.077248,-0.72526 3.121472,-0.41424 z m 5.480024,4.49367 0.07893,0.0563 z m 5.284275,21.99492 c 4.213065,-1.27113 5.741505,5.09198 0.614915,1.95931 -2.241688,-0.58574 -4.867611,-2.00674 -0.614915,-1.95931 z m -3.730558,0.62945 c 2.316321,2.86277 9.461593,2.34638 7.605023,7.7111 -0.26009,3.09408 5.97989,6.31343 0.25512,4.76644 -3.350804,-2.78634 -13.74865,-6.88773 -8.434032,-11.62012 z m -2.906557,3.67103 0.0083,0.006 z m 0.0097,0.0455 -0.05093,0.25053 z m 11.35873,0.4206 c 5.19914,0.89094 3.18712,11.91754 0.475,4.40746 -0.37179,-1.43649 -0.56793,-2.92711 -0.475,-4.40746 z m -45.640915,1.10532 0.08711,0.0954 z m -9.480637,10.53137 c 7.250513,1.63058 -0.527875,10.05348 -3.336101,3.12461 -1.80696,-2.3922 1.320402,-3.45961 3.336101,-3.12461 z m -6.68323,13.44628 c 4.998867,2.33407 10.343106,7.79523 5.659187,12.89499 -3.838257,4.17698 -6.16838,-5.83206 -7.473018,-8.44552 -0.376445,-1.60414 -0.265412,-3.9943 1.813831,-4.44947 z m 3.286272,0.68521 c 3.889306,-0.45664 7.83136,7.05205 2.737795,2.96781 -0.942461,-0.96403 -1.811191,-1.99029 -2.737795,-2.96781 z m 6.657612,3.57322 c 4.669721,2.42946 -2.267098,3.78152 0,0 z m 63.489698,1.46577 c 6.31135,3.82825 -6.09277,6.25281 -4.7145,0.24536 1.45224,-0.69562 3.16354,-0.352 4.7145,-0.24536 z m -1.45635,7.81942 -0.0663,0.0658 z m -68.81087,2.29914 c -5.437524,3.96224 0.642254,10.20739 -1.145658,14.92824 -2.399334,-2.56412 -4.170915,-10.05556 -1.080356,-13.68826 0.637304,-0.50879 1.380149,-1.11786 2.226014,-1.23998 z m 1.941632,0.0181 0.06635,0.0307 z m 4.077992,0.84561 -0.05375,0.0362 z m 52.915506,2.09424 c 5.19054,-0.90501 5.13325,5.51037 0.33859,5.26218 -4.338824,2.26846 -2.16626,-4.35728 -0.33859,-5.26218 z m -53.295224,7.17922 c 5.625678,0.20345 0.395054,7.26876 -2.457268,8.18505 -4.532225,0.91976 -0.211637,-7.63998 2.457268,-8.18505 z m 2.442798,1.80617 -0.08771,0.0416 z m -4.188166,-1.56849 -0.06623,0.16413 z m 5.93456,1.53034 c 4.507695,3.19723 8.362524,8.18361 6.651427,13.80741 -3.860835,6.5204 -11.336136,-3.21226 -7.609176,-7.85775 -1.425192,-1.67901 -1.065361,-4.82829 0.957749,-5.94966 z m 3.740805,15.91223 0.102283,0.0242 z m -2.688255,-15.54249 0.04456,0.0802 z m -4.545849,5.20822 c 3.22608,5.88236 -6.9374,2.30015 0,0 z m 1.373848,2.47083 5.25e-4,0.0323 z m 41.870901,3.6637 c 9.913972,-1.42196 -5.32946,11.0829 -2.524858,2.89623 0.407296,-1.061 0.873347,-3.16019 2.524858,-2.89623 z m -37.170292,4.15082 0.08757,0.0376 z m 27.643548,14.34327 -0.08955,0.11693 z m 1.405621,0.0821 c 7.057944,1.58635 -3.258473,10.40341 -3.773194,3.73602 0.39851,-1.74509 1.770355,-3.54913 3.773194,-3.73602 z m 2.207075,0.82458 0.04304,0.12667 z m -15.648358,2.09766 c 1.377811,3.18072 -3.446051,7.24535 -0.918461,1.86677 l 0.351068,-0.71224 z" id="path4692" inkscape:connector-curvature="0" />
    <text id="text4628" y="206.54564" x="157.01372" style="font-style:normal;font-variant:normal;font-weight:normal;font-stretch:normal;font-size:16.64812851px;line-height:1.25;font-family:SVN-Monday;-inkscape-font-specification:'SVN-Monday, Normal';font-variant-ligatures:normal;font-variant-caps:normal;font-variant-numeric:normal;font-feature-settings:normal;text-align:start;letter-spacing:0px;word-spacing:0px;writing-mode:lr-tb;text-anchor:start;fill:#000000;fill-opacity:1;stroke:none;stroke-width:0.26458332" xml:space="preserve"><tspan style="font-style:normal;font-variant:normal;font-weight:normal;font-stretch:normal;font-size:16.64812851px;font-family:SVN-Monday;-inkscape-font-specification:'SVN-Monday, Normal';font-variant-ligatures:normal;font-variant-caps:normal;font-variant-numeric:normal;font-feature-settings:normal;text-align:start;writing-mode:lr-tb;text-anchor:start;stroke-width:0.26458332" y="206.54564" x="157.01372" id="tspan4626" sodipodi:role="line">Jackie Chan</tspan></text>
    <g id="g4672" transform="matrix(1.051388,0,0,1.051388,-3.8541059,-10.591617)" style="stroke-width:0.95112365">
      <path id="path4589" transform="matrix(0.26458333,0,0,0.26458333,0,117)" d="M 283.46484,49.419922 243.64258,129.41992 H 140.41406 l 51.61328,103.68946 -51.61328,103.6875 143.05078,287.375 143.05078,-287.375 -51.61328,-103.6875 51.61328,-103.68946 H 323.28711 Z" style="opacity:0.57999998;vector-effect:none;fill:#000000;fill-opacity:1;fill-rule:nonzero;stroke:none;stroke-width:0.9511236;stroke-linecap:butt;stroke-linejoin:miter;stroke-miterlimit:4;stroke-dasharray:none;stroke-dashoffset:0;stroke-opacity:1;paint-order:stroke fill markers;filter:url(#filter4610)" inkscape:connector-curvature="0" />
      <path inkscape:connector-curvature="0" id="path4584" d="M 75.000071,130.07569 37.15122,206.11084 75.000071,282.14547 112.84892,206.11084 Z" style="opacity:1;vector-effect:none;fill:#333333;fill-opacity:1;fill-rule:nonzero;stroke:none;stroke-width:0.25165144;stroke-linecap:butt;stroke-linejoin:miter;stroke-miterlimit:4;stroke-dasharray:none;stroke-dashoffset:0;stroke-opacity:1;paint-order:stroke fill markers" />
      <path transform="matrix(1,0,0,-1.1598452,7.6679933,420.98635)" inkscape:transform-center-y="12.672491" d="m 67.332017,167.01288 37.848803,65.55606 -75.697614,0 z" inkscape:randomized="0" inkscape:rounded="0" inkscape:flatsided="true" sodipodi:arg2="-0.52359878" sodipodi:arg1="-1.5707963" sodipodi:r2="21.85202" sodipodi:r1="43.704041" sodipodi:cy="210.71692" sodipodi:cx="67.332016" sodipodi:sides="3" id="path4582" style="opacity:1;vector-effect:none;fill:#ffffff;fill-opacity:1;fill-rule:nonzero;stroke:none;stroke-width:0.23366809;stroke-linecap:butt;stroke-linejoin:miter;stroke-miterlimit:4;stroke-dasharray:none;stroke-dashoffset:0;stroke-opacity:1;paint-order:stroke fill markers" sodipodi:type="star" />
      <g aria-label="TóY QUYÒN" style="font-style:normal;font-variant:normal;font-weight:500;font-stretch:normal;font-size:12.3600235px;line-height:1.25;font-family:'.VnHelvetInsH';-inkscape-font-specification:'.VnHelvetInsH, Medium';font-variant-ligatures:normal;font-variant-caps:normal;font-variant-numeric:normal;font-feature-settings:normal;text-align:start;letter-spacing:0px;word-spacing:0px;writing-mode:lr-tb;text-anchor:start;fill:#333333;fill-opacity:1;stroke:none;stroke-width:0.25165144" id="text4616">
        <path d="m 47.669757,157.67447 v -1.9041 h 5.217403 v 1.9041 h -1.472581 v 7.97246 h -2.275258 v -7.97246 z" style="font-style:normal;font-variant:normal;font-weight:500;font-stretch:normal;font-size:12.3600235px;font-family:'.VnHelvetInsH';-inkscape-font-specification:'.VnHelvetInsH, Medium';font-variant-ligatures:normal;font-variant-caps:normal;font-variant-numeric:normal;font-feature-settings:normal;text-align:start;writing-mode:lr-tb;text-anchor:start;fill:#333333;fill-opacity:1;stroke-width:0.25165144" id="path4703" />
        <path d="m 53.520852,155.7583 h 2.275259 v 7.21807 q 0,0.51902 0.09656,0.75439 0.08751,0.24744 0.558253,0.24744 0.319864,0 0.494884,-0.19614 0.159932,-0.18709 0.159932,-0.80569 v -7.21807 h 2.287329 v 7.19392 q 0,1.29757 -0.793625,2.0761 -0.790607,0.77854 -2.14852,0.77854 -1.336789,0 -2.127396,-0.76647 -0.802678,-0.76646 -0.802678,-2.08817 z m 2.694703,-2.27224 h 1.916166 l -1.309632,1.6808 h -1.188928 z" style="font-style:normal;font-variant:normal;font-weight:500;font-stretch:normal;font-size:12.3600235px;font-family:'.VnHelvetInsH';-inkscape-font-specification:'.VnHelvetInsH, Medium';font-variant-ligatures:normal;font-variant-caps:normal;font-variant-numeric:normal;font-feature-settings:normal;text-align:start;writing-mode:lr-tb;text-anchor:start;fill:#333333;fill-opacity:1;stroke-width:0.25165144" id="path4705" />
        <path d="m 61.846366,161.74217 -1.852796,-5.9718 h 2.34768 l 0.630675,3.33745 0.691027,-3.33745 h 2.311469 l -1.852796,5.80885 v 4.06771 h -2.275259 z" style="font-style:normal;font-variant:normal;font-weight:500;font-stretch:normal;font-size:12.3600235px;font-family:'.VnHelvetInsH';-inkscape-font-specification:'.VnHelvetInsH, Medium';font-variant-ligatures:normal;font-variant-caps:normal;font-variant-numeric:normal;font-feature-settings:normal;text-align:start;writing-mode:lr-tb;text-anchor:start;fill:#333333;fill-opacity:1;stroke-width:0.25165144" id="path4707" />
        <path d="m 71.94622,158.26893 v 4.88246 q 0,0.44358 0.147861,0.69102 0.147862,0.21123 0.506954,0.21123 0.407374,0 0.567306,-0.34702 0.08751,-0.25951 0.08751,-0.55523 v -4.88246 q 0,-0.35909 -0.07544,-0.57032 -0.147861,-0.33193 -0.579376,-0.33193 -0.407374,0 -0.570323,0.31986 -0.08449,0.25951 -0.08449,0.58239 z m -2.275259,4.68329 v -4.48714 q 0,-1.39714 0.826818,-2.14852 0.778537,-0.70612 2.103256,-0.70612 1.309632,0 2.124379,0.73026 0.802678,0.72724 0.802678,2.12438 v 4.48714 q 0,1.64459 -1.285491,2.44727 l 0.878117,1.42128 -1.840726,0.18709 -0.334952,-0.61861 -0.331934,-0.58239 q -0.694045,0 -1.22514,-0.18407 -0.531094,-0.18709 -0.938468,-0.5824 -0.778537,-0.76646 -0.778537,-2.08817 z" style="font-style:normal;font-variant:normal;font-weight:500;font-stretch:normal;font-size:12.3600235px;font-family:'.VnHelvetInsH';-inkscape-font-specification:'.VnHelvetInsH, Medium';font-variant-ligatures:normal;font-variant-caps:normal;font-variant-numeric:normal;font-feature-settings:normal;text-align:start;writing-mode:lr-tb;text-anchor:start;fill:#333333;fill-opacity:1;stroke-width:0.25165144" id="path4709" />
        <path d="m 76.551052,162.95222 v -7.18185 h 2.275258 v 7.206 q 0,0.51902 0.09656,0.75439 0.08751,0.24744 0.558253,0.24744 0.319864,0 0.494884,-0.19614 0.159932,-0.18709 0.159932,-0.80569 v -7.206 h 2.27224 v 7.18185 q 0,1.30964 -0.790607,2.0761 -0.790607,0.77854 -2.136449,0.77854 -1.33679,0 -2.127397,-0.76647 -0.802677,-0.76646 -0.802677,-2.08817 z" style="font-style:normal;font-variant:normal;font-weight:500;font-stretch:normal;font-size:12.3600235px;font-family:'.VnHelvetInsH';-inkscape-font-specification:'.VnHelvetInsH, Medium';font-variant-ligatures:normal;font-variant-caps:normal;font-variant-numeric:normal;font-feature-settings:normal;text-align:start;writing-mode:lr-tb;text-anchor:start;fill:#333333;fill-opacity:1;stroke-width:0.25165144" id="path4711" />
        <path d="m 84.876567,161.74217 -1.852796,-5.9718 h 2.34768 l 0.630675,3.33745 0.691027,-3.33745 h 2.311469 l -1.852796,5.80885 v 4.06771 h -2.275259 z" style="font-style:normal;font-variant:normal;font-weight:500;font-stretch:normal;font-size:12.3600235px;font-family:'.VnHelvetInsH';-inkscape-font-specification:'.VnHelvetInsH, Medium';font-variant-ligatures:normal;font-variant-caps:normal;font-variant-numeric:normal;font-feature-settings:normal;text-align:start;writing-mode:lr-tb;text-anchor:start;fill:#333333;fill-opacity:1;stroke-width:0.25165144" id="path4713" />
        <path d="m 89.611156,155.7583 h 5.054453 v 1.9041 h -2.779194 v 1.97652 h 2.43519 v 1.90409 h -2.43519 v 2.19982 h 2.890845 v 1.9041 h -5.166104 z m 0.754396,-0.59144 1.025979,-1.6808 h 1.741146 l 0.890187,1.6808 h -1.285491 l -0.543165,-0.94149 -0.618605,0.94149 z m 4.287987,-3.20166 0.482813,1.50578 h -1.025978 l -1.213069,-1.50578 z" style="font-style:normal;font-variant:normal;font-weight:500;font-stretch:normal;font-size:12.3600235px;font-family:'.VnHelvetInsH';-inkscape-font-specification:'.VnHelvetInsH, Medium';font-variant-ligatures:normal;font-variant-caps:normal;font-variant-numeric:normal;font-feature-settings:normal;text-align:start;writing-mode:lr-tb;text-anchor:start;fill:#333333;fill-opacity:1;stroke-width:0.25165144" id="path4715" />
        <path d="m 95.791168,165.64693 v -9.87656 h 2.483472 l 1.82866,5.82394 0.0271,-5.82394 h 2.19982 v 9.87656 h -2.471399 l -1.843744,-6.10458 -0.02414,6.10458 z" style="font-style:normal;font-variant:normal;font-weight:500;font-stretch:normal;font-size:12.3600235px;font-family:'.VnHelvetInsH';-inkscape-font-specification:'.VnHelvetInsH, Medium';font-variant-ligatures:normal;font-variant-caps:normal;font-variant-numeric:normal;font-feature-settings:normal;text-align:start;writing-mode:lr-tb;text-anchor:start;fill:#333333;fill-opacity:1;stroke-width:0.25165144" id="path4717" />
      </g>
      <text xml:space="preserve" style="font-style:normal;font-variant:normal;font-weight:500;font-stretch:normal;font-size:5.89537191px;line-height:1.25;font-family:'.VnHelvetInsH';-inkscape-font-specification:'.VnHelvetInsH, Medium';font-variant-ligatures:normal;font-variant-caps:normal;font-variant-numeric:normal;font-feature-settings:normal;text-align:start;letter-spacing:0px;word-spacing:0px;writing-mode:lr-tb;text-anchor:start;fill:#4d4d4d;fill-opacity:1;stroke:none;stroke-width:0.25165144" x="59.93198" y="175.55127" id="text4620"><tspan sodipodi:role="line" id="tspan4618" x="59.93198" y="175.55127" style="font-style:normal;font-variant:normal;font-weight:500;font-stretch:normal;font-size:5.89537191px;font-family:'.VnHelvetInsH';-inkscape-font-specification:'.VnHelvetInsH, Medium';font-variant-ligatures:normal;font-variant-caps:normal;font-variant-numeric:normal;font-feature-settings:normal;text-align:start;writing-mode:lr-tb;text-anchor:start;fill:#4d4d4d;fill-opacity:1;stroke-width:0.25165144">thµnh long</tspan></text>
      <path id="text4624" transform="matrix(0.26458333,0,0,0.26458333,0,117)" d="m 237.26953,293.32617 v 0.004 c -0.2784,0.0113 -0.51379,0.0409 -0.77539,0.11914 -0.13081,0.0393 -0.26838,0.0825 -0.45703,0.21289 -0.14718,0.10205 -0.38744,0.32507 -0.48828,0.67773 -0.0713,0.22602 -0.0688,0.31218 -0.0879,0.4668 -0.0204,0.16479 -0.0425,0.36659 -0.0664,0.61328 -0.0478,0.49387 -0.11337,1.17672 -0.20703,2.08203 -0.18573,1.79535 -0.43448,3.7307 -0.68555,5.80078 -0.31653,2.08918 -0.75239,5.23068 -1.38086,9.44141 -0.10605,0.71057 -0.23465,1.48902 -0.34765,2.21875 l 7.60547,15.2793 c 0.35954,0.0903 0.7119,0.13389 0.98828,0.0508 2.31318,-0.69396 3.63563,-0.43704 3.85351,-0.32422 0.26457,0.28838 0.40973,0.56693 0.43555,1.0625 0.0287,0.55412 -0.0971,1.3173 -0.30859,2.19336 v 0.0156 l -0.01,0.0137 c -0.45853,2.15157 -0.1432,4.06406 0.84766,5.44921 0.98953,1.38331 2.62676,2.14636 4.4082,2.14844 3.03586,0.0457 5.58176,-1.85482 7.80273,-4.48828 0.50053,2.05346 1.44634,3.78024 3.17383,4.31055 2.22969,0.69195 4.6797,0.0189 6.94531,-1.76367 h 0.01 c 1.30949,-0.99478 2.06908,-2.59743 3.0332,-3.98633 0.36598,0.65125 0.57806,1.51272 1.02539,2.04492 2.21407,2.63414 5.23661,3.76668 7.89258,3.94141 6.67542,0.47198 12.37689,-3.1506 14.88867,-8.78516 0.28967,-0.65174 0.48789,-1.25335 0.47461,-1.9043 -0.0132,-0.64773 -0.34085,-1.35759 -0.86718,-1.77148 -0.21491,-0.17197 -0.31189,-0.3685 -0.91407,-0.43555 -0.30107,-0.034 -0.86148,0.13982 -1.11328,0.48047 -0.15137,0.20485 -0.20271,0.3719 -0.22656,0.51953 -0.63014,1.95338 -1.71497,3.46437 -3.41992,4.77149 -1.72688,1.32393 -3.35144,1.88106 -5.11524,1.7207 -2.60092,-0.2366 -4.60658,-2.41181 -5.64843,-5.81641 3.55711,-0.59788 6.78755,-2.35336 9.47851,-5.46289 l 0.0137,-0.008 0.01,-0.006 c 2.56867,-3.09558 3.92158,-6.29813 3.71289,-9.60351 -0.10617,-1.73413 -0.65735,-3.27069 -1.70508,-4.44336 -1.04636,-1.17117 -2.53693,-1.9432 -4.3418,-2.32618 h -0.01 c -3.58807,-0.7711 -7.16582,0.48332 -10.30469,3.35157 -3.2872,2.94478 -5.19455,7.46883 -5.77929,13.3164 -0.23966,2.48111 0.005,4.50487 0.38281,6.37891 -0.52593,1.05343 -0.95523,2.22907 -1.68946,3.0332 -0.595,0.65167 -1.14468,1.0757 -1.58007,1.28516 -0.40922,0.19691 -0.67305,0.20418 -0.93164,0.14258 -0.011,-0.0151 -0.0867,-0.0979 -0.18946,-0.40821 -0.15227,-0.46042 -0.27472,-1.25227 -0.29687,-2.28125 -0.0443,-2.05799 0.27632,-5.07583 0.99023,-8.76953 v -0.0156 -0.0156 c 0.0488,-0.29253 0.18023,-0.82351 0.31055,-1.53515 l 0.006,-0.0234 c 0.43708,-2.1854 0.7535,-3.7625 0.9375,-4.6211 l 0.008,-0.0371 v -0.0391 c 0.13599,-0.95198 0.22386,-2.14863 0.16406,-3.33594 -0.0597,-1.1848 -0.21683,-2.3514 -0.82031,-3.33007 -0.6326,-1.02792 -1.63102,-1.85711 -2.89453,-2.25196 l -0.0371,-0.0156 -0.0352,-0.006 c -0.56764,-0.13682 -1.15983,-0.19743 -1.76367,-0.0391 -0.60385,0.15949 -1.16205,0.56572 -1.55078,1.08593 -0.77377,1.03548 -1.11274,2.47401 -1.4043,4.66602 -0.5692,3.73149 -1.01292,7.28411 -1.26757,10.6582 v 0.008 c -0.15678,2.47725 0.0617,3.61012 0.0742,5.41601 -0.52518,1.19705 -1.00614,2.44866 -1.79296,3.35352 -1.14015,1.31115 -2.01511,1.64009 -2.4004,1.61718 -0.081,-0.008 -0.0846,-0.008 -0.13281,-0.0586 -0.0537,-0.0593 -0.1621,-0.23474 -0.23633,-0.58594 -0.14819,-0.70099 -0.12273,-2.02172 0.20704,-3.79492 0.3312,-1.72959 0.002,-3.35599 -0.98243,-4.50976 -0.51905,-0.60836 -1.47846,-0.62132 -2.25781,-0.91211 3.50372,-2.54113 6.27923,-6.14048 6.95313,-9.80469 v -0.008 c 0.40903,-2.18858 0.25625,-4.17959 -0.56055,-5.73438 -0.81781,-1.55682 -2.42205,-2.58398 -4.32617,-2.58398 -2.67199,0 -5.24045,1.9314 -8.15625,5.30078 -1.65886,1.9169 -2.99141,5.34239 -4.45117,8.15625 0.51997,-2.79598 0.98874,-5.53206 1.68945,-8.54102 v -0.008 l 0.008,-0.008 c 1.00712,-4.595 1.69833,-7.80075 2.02344,-9.81641 0.33245,-2.06109 0.30288,-3.68187 -0.18555,-4.98437 v -0.008 -0.008 c -0.88626,-2.28949 -2.66498,-3.45923 -4.16211,-3.91406 -0.74857,-0.22753 -1.42951,-0.30009 -1.98633,-0.2793 z m 98.08203,0.0195 c -0.27942,0.0151 -0.51531,0.0433 -0.75976,0.11133 -0.12223,0.034 -0.24321,0.0719 -0.41992,0.17774 -0.0884,0.0529 -0.20062,0.12219 -0.32618,0.27148 -0.0628,0.0745 -0.12875,0.16837 -0.18359,0.29687 -0.0136,0.0302 -0.0215,0.0573 -0.0352,0.10157 l -0.01,0.0293 c -0.001,0.003 10e-4,0.004 0,0.008 -0.008,0.0265 -0.0211,0.0715 -0.0215,0.0723 -2.4e-4,10e-4 -0.01,0.058 -0.0156,0.11133 -0.0151,0.085 -0.0395,0.18941 -0.0508,0.28125 -0.0204,0.16479 -0.0425,0.36471 -0.0664,0.61133 -0.0478,0.49387 -0.1056,1.17672 -0.19922,2.08203 -0.18667,1.80438 -0.44296,3.75023 -0.69531,5.83203 -0.31631,2.08921 -0.75244,5.21476 -1.37891,9.41211 -0.55494,3.71811 -1.22116,7.74642 -1.93164,12.05664 l 12.59766,-25.30664 c -0.0446,-0.70859 -0.15757,-1.35616 -0.37109,-1.93164 -0.78781,-2.35397 -2.5886,-3.5529 -4.11133,-3.97852 -0.76555,-0.21392 -1.46457,-0.26543 -2.02344,-0.23632 z m -12.68164,0.30664 v 0.004 c -0.85246,-0.0389 -1.7045,0.0226 -2.54687,0.18555 v -0.002 c -1.68474,0.32353 -3.33627,1.04941 -4.92383,2.16407 -3.12611,2.19492 -5.70546,5.31226 -7.66211,9.28515 -10e-4,0.002 0.001,0.004 0,0.008 -0.002,0.003 -0.006,0.002 -0.008,0.006 -2.00651,3.9526 -3.23558,8.11834 -3.68946,12.52735 -0.70633,6.87065 -0.0219,12.50014 2.19141,16.85937 2.1736,4.28134 5.14599,6.97253 8.91797,7.47071 2.29206,0.30272 4.30456,0.003 6.01367,-0.69336 l 6.46289,-12.98438 c -0.18042,-0.60252 -0.40985,-1.1816 -0.73242,-1.69922 l -0.008,-0.006 c -0.44747,-0.70851 -0.96395,-1.28705 -1.67578,-1.60937 -0.71182,-0.32239 -1.58308,-0.27502 -2.28125,0.0508 l -0.0723,0.0371 -0.0742,0.0508 c -0.14275,0.0952 -0.27666,0.18105 -0.45117,0.38477 -0.0873,0.10167 -0.20182,0.23395 -0.2793,0.53125 -0.0775,0.29707 0.0257,0.86155 0.3086,1.14453 l -0.0801,-0.0899 c 1.19524,1.46918 1.47387,3.94856 0.79687,5.98633 -0.677,2.03773 -2.08589,3.49219 -4.25976,3.49219 -1.2133,0 -2.17136,-0.38628 -3.07813,-1.25391 -0.90677,-0.86763 -1.73882,-2.26878 -2.39258,-4.25976 -1.31473,-3.94424 -1.69644,-8.94713 -1.01757,-14.9336 v -0.008 -0.006 c 0.30489,-2.98809 0.98077,-5.92527 1.90429,-8.82031 v -0.008 c 0.90253,-2.76511 2.21739,-5.14797 3.875,-7.10157 l 0.008,-0.008 0.008,-0.008 c 1.53286,-1.87351 2.96248,-2.48692 4.63672,-2.28906 1.49526,0.2177 2.25707,0.73918 2.70898,1.63281 0.55932,1.17071 0.39361,2.30192 -0.76172,3.8457 -1.48568,1.9208 -3.37979,2.74609 -6.23633,2.51758 l 0.30274,0.0664 c -0.23448,-0.0881 -0.66009,-0.11086 -0.98242,0.0664 -0.32236,0.17726 -0.46306,0.4345 -0.53125,0.59766 -0.13637,0.32617 -0.10624,0.47426 -0.10352,0.62695 0.005,0.30539 0.0557,0.57309 0.13281,0.90039 0.15417,0.65466 0.4316,1.47613 0.8418,2.31836 0.4102,0.84219 0.94442,1.70501 1.68359,2.39844 0.72596,0.68103 1.73622,1.18504 2.87891,1.11523 2.27986,-0.0151 4.22531,-1.17879 5.59375,-2.8496 1.3778,-1.68227 2.25506,-3.85895 2.61328,-6.11915 0.35823,-2.26023 0.20172,-4.61677 -0.64844,-6.65039 -0.85012,-2.03365 -2.46946,-3.74742 -4.82031,-4.44531 l -0.008,-0.008 c -0.84867,-0.24265 -1.70223,-0.38298 -2.55469,-0.42188 z m -57.30469,3.46485 c -2.89511,0 -5.28515,2.41056 -5.28515,5.35156 0,2.89512 2.41104,5.21875 5.28515,5.21875 2.92059,0 5.29297,-2.34465 5.29297,-5.21875 0,-2.92059 -2.35195,-5.35156 -5.29297,-5.35156 z m 17.54297,14.76758 h 0.002 c 0.0631,-0.007 0.12041,-0.002 0.17187,0.008 v -0.002 l 0.0312,0.006 0.0371,0.008 c 0.0428,0.004 -0.01,-0.0295 0.0352,0.0234 0.045,0.0533 0.15199,0.23243 0.2207,0.57618 v 0.0156 0.008 c 0.35766,1.63499 -0.0443,4.07225 -1.43945,7.22657 v 0.006 l -0.008,0.008 c -1.17648,2.76022 -2.57184,4.28211 -4.08984,5.28515 0.007,-0.65884 -0.0575,-1.30748 0.0312,-1.98632 v -0.008 -0.006 c 0.42757,-3.60385 1.2808,-6.40736 2.50391,-8.56445 v -0.008 c 0.61558,-1.054 1.21328,-1.78228 1.69726,-2.17774 0.36279,-0.29629 0.61508,-0.39883 0.80664,-0.41796 z m -34.26953,2.55273 0.0215,0.006 0.0312,0.006 c -0.0844,-0.0227 0.0706,-0.0151 0.17773,0.57617 0.10715,0.59225 0.0724,1.5886 -0.24414,2.82617 l -0.01,0.0234 -0.008,0.0312 c -0.31676,1.53101 -1.30519,3.19277 -3.04883,5.05664 -1.38598,1.42813 -2.58289,1.929 -3.73437,2.37695 0.12869,-0.28573 0.23097,-0.71795 0.36133,-0.99609 l 0.008,-0.008 c 1.835,-3.98105 3.40158,-6.6601 4.61328,-8.21485 0.60585,-0.77741 1.1308,-1.27236 1.47656,-1.5 0.34575,-0.22752 0.41653,-0.16507 0.35547,-0.18359 z m 46.15039,15.3457 c -0.0181,0.0302 0.002,0.0265 -0.0215,0.0586 -0.007,0.008 -0.0237,0.006 -0.0312,0.0137 0.01,-0.0302 0.0429,-0.0432 0.0527,-0.0723 z m -36.70312,6.16407 c 7.3e-4,0.004 0.009,0.004 0.01,0.008 0.002,0.008 -0.002,0.0295 0,0.0371 z" style="font-style:normal;font-variant:normal;font-weight:normal;font-stretch:normal;font-size:16.64812851px;line-height:1.25;font-family:SVN-Monday;-inkscape-font-specification:'SVN-Monday, Normal';font-variant-ligatures:normal;font-variant-caps:normal;font-variant-numeric:normal;font-feature-settings:normal;text-align:start;letter-spacing:0px;word-spacing:0px;writing-mode:lr-tb;text-anchor:start;opacity:1;vector-effect:none;fill:#333333;fill-opacity:1;stroke:none;stroke-width:0.9511236;stroke-linecap:butt;stroke-linejoin:miter;stroke-miterlimit:4;stroke-dasharray:none;stroke-dashoffset:0;stroke-opacity:1;paint-order:stroke fill markers" inkscape:connector-curvature="0" />
      <path id="path4639" transform="matrix(0.26458333,0,0,0.26458333,0,117)" d="m 183.74414,292.27539 c -1.79289,-0.034 -3.46743,1.01572 -4.74805,2.77539 -0.84582,1.12777 -1.49556,2.7998 -2.15429,4.82813 -2.83994,2.29761 -5.45112,4.6542 -7.86914,7.07226 h -0.006 v 0.008 c -2.46917,2.50164 -4.58228,5.35873 -5.75,8.26954 -1.16773,2.9108 -1.37728,6.00259 0.25,8.55468 1.26323,1.97382 3.82717,3.13874 6.40039,2.28907 1.48656,-0.47279 2.64119,-1.57441 3.42578,-3.07227 0.26532,-0.51009 0.41504,-1.00481 0.52344,-1.49414 -0.70439,7.04659 -1.40121,14.1191 -2.59766,18.96094 -6.21426,0.0983 -12.16195,2.44446 -15.79883,6.97461 -2.69253,3.34839 -2.98459,7.25194 -1.45312,10.12109 1.53142,2.86915 4.90843,4.61986 8.84961,3.8457 h 0.006 c 5.67564,-1.13514 10.10786,-6.72762 13.56835,-15.73828 2.11471,0.56315 4.29976,1.34696 6.57813,2.70313 l 0.10937,0.0586 0.11133,0.0371 c 0.54917,0.18293 0.83551,0.0153 1.04883,-0.0879 0.21317,-0.10243 0.37493,-0.22073 0.53125,-0.36133 0.31295,-0.2812 0.59544,-0.64712 0.7832,-1.13672 0.18785,-0.4896 0.25109,-1.13947 0.004,-1.76562 -0.24302,-0.62 -0.75362,-1.13945 -1.43945,-1.52735 -1.7223,-1.08529 -3.88325,-1.78146 -6.16992,-2.36328 2.65291,-8.56717 4.49501,-19.46854 5.41015,-32.95117 v -0.0156 -0.008 c 0.17802,-3.43997 0.35115,-5.62133 0.47266,-6.84375 1.07834,-0.74615 2.02936,-1.50338 2.59765,-2.32422 h 0.008 c 0.80689,-1.17361 1.17572,-2.43012 1.0039,-3.63281 v -0.006 -0.008 c -0.11943,-0.75617 -0.40778,-1.47261 -0.92187,-2.02344 -0.51413,-0.55083 -1.21494,-0.89394 -1.97852,-1.05468 h -0.008 l -0.0137,-0.002 c -0.26003,-0.0499 -0.5173,-0.0752 -0.77344,-0.0801 z m 158.10742,7.22656 -12.59375,25.30078 c -0.0924,0.56044 -0.17539,1.07054 -0.26953,1.64258 -0.73217,4.30042 -0.95897,7.56211 -0.61133,9.94336 0.17386,1.1915 0.48691,2.18251 1.07032,2.9668 0.58344,0.78433 1.5026,1.29754 2.47265,1.36523 h 0.0156 0.0137 c 0.89597,0.0389 1.68317,-0.11715 2.31836,-0.54492 0.55956,-0.3772 0.93611,-1.04082 0.97851,-1.72461 1.55804,-5.5395 3.17606,-10.38855 4.84571,-14.4707 v -0.008 c 1.6826,-4.08102 3.11652,-6.95038 4.24414,-8.66016 0.56417,-0.8555 1.06291,-1.41465 1.38867,-1.67578 0.13795,-0.11074 0.19601,-0.14517 0.22851,-0.16406 0.0408,0.1387 0.0729,0.57544 -0.0371,1.26562 -6.5e-4,0.004 6.4e-4,0.004 0,0.008 -0.18067,0.78282 -0.36395,1.56885 -0.54688,2.41993 -0.002,0.008 -0.008,0.0217 -0.008,0.0293 -5.3e-4,0.002 5.3e-4,0.004 0,0.008 -0.45139,1.80972 -1.14519,5.00107 -1.46875,7.6543 -0.57271,4.43082 -0.6353,7.93096 -0.13281,10.57031 0.50301,2.64307 1.6959,4.60784 3.68359,5.24219 h 0.008 c 2.22966,0.69192 4.67971,0.0189 6.94531,-1.76562 h 0.008 c 0.7954,-0.60424 1.17555,-1.66674 1.8457,-2.41992 0.83342,2.45828 2.22637,4.28541 4.23047,4.70898 2.58293,0.59577 5.09107,-0.4475 7.07812,-2.54688 1.20926,-1.27759 2.05089,-3.59852 3.00586,-5.5957 0.0831,1.30292 -0.004,2.99583 0.26563,3.94922 0.54251,1.9211 1.71801,3.31308 3.35742,3.69141 h 0.008 c 2.3178,0.52339 4.72332,-0.18935 6.97657,-1.89649 l 0.008,-0.008 h 0.008 c 0.54622,-0.42671 0.78405,-1.18821 1.26953,-1.68359 0.18936,0.83115 0.37532,1.65675 0.81836,2.25195 0.58345,0.78433 1.5026,1.29758 2.47266,1.36523 h 0.0137 0.0156 c 0.89602,0.0389 1.68318,-0.11907 2.31836,-0.54687 0.55926,-0.37682 0.93378,-1.03924 0.97657,-1.72266 1.55803,-5.53973 3.17797,-10.39039 4.84765,-14.47265 v -0.006 c 1.68261,-4.08102 3.11656,-6.94842 4.24414,-8.65821 0.56421,-0.85553 1.06292,-1.41465 1.38867,-1.67578 0.13493,-0.10809 0.18896,-0.14012 0.22071,-0.16015 0.0404,0.14173 0.0807,0.57431 -0.0293,1.25976 -5.7e-4,0.004 6.8e-4,0.002 0,0.006 -0.18066,0.78282 -0.36436,1.5708 -0.54687,2.42188 -0.002,0.008 -0.004,0.0237 -0.008,0.0312 -4.9e-4,0.002 5.3e-4,0.004 0,0.008 -0.45135,1.80971 -1.14518,5.00302 -1.46875,7.65625 -0.57271,4.43081 -0.63515,7.93095 -0.13281,10.57031 0.50302,2.64306 1.69587,4.60588 3.68359,5.24024 h 0.008 c 2.22969,0.69191 4.67971,0.0189 6.94531,-1.76368 h 0.008 c 2.22342,-1.68911 3.97028,-3.9849 5.16797,-6.76172 0.002,-0.004 -0.002,-0.0118 0,-0.0156 0.29178,-0.62264 0.48633,-1.2131 0.48633,-1.83789 0,-0.62185 -0.27776,-1.29403 -0.75977,-1.72656 -0.19162,-0.20107 -0.31183,-0.41942 -0.87109,-0.53125 -0.29594,-0.0593 -0.78237,0.0339 -1.05469,0.26562 -0.27212,0.23055 -0.35492,0.4566 -0.40625,0.61133 v 0.008 0.0156 c -0.6497,2.06725 -1.56961,3.66185 -2.77539,4.98242 -0.59501,0.6517 -1.15253,1.07569 -1.58789,1.28515 -0.43536,0.20939 -0.71415,0.22246 -0.98828,0.14649 -0.0189,-0.004 -0.14853,-0.0378 -0.32617,-0.47852 -0.17802,-0.44356 -0.32479,-1.21453 -0.35352,-2.23047 -0.0578,-2.02851 0.33147,-5.03593 1.28516,-8.73242 v -0.0156 c 1.36361,-4.95046 1.98831,-8.50388 1.81445,-11.14649 -0.0869,-1.32302 -0.38104,-2.44172 -0.9668,-3.34375 -0.58382,-0.89899 -1.47602,-1.52822 -2.48046,-1.8457 -1.43914,-0.4597 -2.99235,-0.24379 -4.42188,0.49609 -1.42953,0.73992 -2.78611,1.97391 -4.11133,3.63868 -1.25994,1.58279 -2.36271,4.83173 -3.55859,7.19726 0.0408,-0.16668 0.097,-0.45633 0.13476,-0.60547 0.70878,-2.83521 1.10735,-5.35669 0.35352,-7.61718 -0.78361,-2.35091 -2.59406,-3.53696 -4.11914,-3.97266 -0.76256,-0.2177 -1.45796,-0.27268 -2.01563,-0.25 -0.27892,0.0113 -0.52243,0.0385 -0.76757,0.10352 -0.12246,0.034 -0.24078,0.0633 -0.41993,0.16796 -0.0896,0.0525 -0.19842,0.12302 -0.32617,0.27344 -0.0639,0.0748 -0.13547,0.17348 -0.1914,0.30274 -0.0151,0.0302 -0.024,0.0589 -0.0391,0.10351 l -0.006,0.0312 c -0.001,0.004 10e-4,0.002 0,0.008 -0.008,0.0265 -0.0234,0.0715 -0.0234,0.0723 -3.1e-4,0.002 -0.008,0.0848 -0.0156,0.15625 -0.0113,0.0877 -0.0503,0.20466 -0.0605,0.30859 -0.0189,0.19276 -0.0304,0.43423 -0.0508,0.73047 -0.0401,0.59244 -0.0935,1.40686 -0.15625,2.44336 -0.24907,4.17305 -0.81064,9.61312 -1.80859,15.28906 v 0.008 c -0.32655,1.91614 -0.14859,2.91051 -0.26953,4.42773 -0.52963,1.06526 -0.96988,2.2501 -1.69922,3.04883 -0.59497,0.6517 -1.14468,1.07569 -1.58008,1.28515 -0.38729,0.18634 -0.64915,0.20344 -0.89648,0.1543 -0.0151,-0.034 -0.0913,-0.1421 -0.17969,-0.4414 -0.15307,-0.51727 -0.27016,-1.38251 -0.28906,-2.48829 -0.0378,-2.21155 0.28309,-5.38858 0.99609,-9.10937 0.0525,-0.26079 0.17978,-0.80103 0.31055,-1.52148 v 0.0391 c 0.4464,-2.10441 0.70103,-3.70954 0.88672,-4.76172 v -0.008 -0.0156 c 0.33335,-2.1343 0.57008,-4.7462 -0.50977,-6.64258 -0.76615,-1.35205 -2.13109,-2.05857 -3.30078,-2.49609 -0.58484,-0.21884 -1.13042,-0.36434 -1.59375,-0.43555 -0.23169,-0.034 -0.43184,-0.0554 -0.67188,-0.043 -0.12018,0.008 -0.25018,0.0151 -0.44335,0.0801 -0.19314,0.0661 -0.55237,0.22185 -0.74415,0.70117 l -0.0156,0.0312 -0.0156,0.0293 c -0.13456,0.40331 -0.33827,1.62376 -0.4961,2.41406 -0.6556,-0.99726 -1.05852,-2.38076 -2.0957,-2.78906 -1.43082,-0.56481 -2.97673,-0.58567 -4.42969,-0.0606 -1.45002,0.52388 -2.80938,1.54031 -4.11914,2.98243 -2.73676,2.94202 -4.60637,7.42998 -5.69922,13.47265 -0.49054,2.67383 -0.0812,4.388 -0.0215,6.48828 -0.53666,1.09996 -0.99062,2.30504 -1.75,3.13672 -0.59498,0.65167 -1.15054,1.0757 -1.58594,1.28516 -0.4354,0.20938 -0.71611,0.2244 -0.99023,0.14844 -0.0189,-0.004 -0.14621,-0.0385 -0.32422,-0.48047 -0.17802,-0.44357 -0.32675,-1.21258 -0.35547,-2.22852 -0.0578,-2.02851 0.33147,-5.03788 1.28515,-8.73437 v -0.0137 c 1.36362,-4.95046 1.99027,-8.50387 1.81641,-11.14648 -0.0869,-1.32302 -0.38101,-2.44173 -0.9668,-3.34375 -0.58382,-0.899 -1.47598,-1.52822 -2.48047,-1.8457 -1.43909,-0.45971 -2.99234,-0.24567 -4.42187,0.49414 -1.42953,0.73995 -2.78611,1.9739 -4.11133,3.63867 -1.34646,1.69149 -2.53066,5.10723 -3.80273,7.69141 0.44984,-2.33133 0.81214,-4.55172 1.38867,-7.02735 l 0.006,-0.008 v -0.008 c 1.00713,-4.59504 1.69637,-7.8027 2.02148,-9.81836 0.18392,-1.13982 0.24274,-2.13201 0.1875,-3.02149 z m -166.23633,7.11524 c -0.10696,1.04666 -0.27186,2.08309 -0.30664,3.13867 -0.21354,3.43517 -0.80155,5.15194 -1.09375,8.22266 -0.0548,-0.30048 -0.10471,-0.60648 -0.41992,-0.92188 -0.37806,-0.37807 -1.2027,-0.46686 -1.63281,-0.25195 -1.1026,0.47391 -1.99415,0.65714 -2.62695,0.63476 -0.63648,-0.0227 -1.01338,-0.20108 -1.38086,-0.58398 -0.14854,-0.16441 -0.218,-0.31028 -0.23047,-0.61914 -0.0113,-0.31219 0.0693,-0.78474 0.31836,-1.39453 0.49863,-1.21958 1.64065,-2.9384 3.45312,-5.02735 0.98355,-1.14092 2.50649,-2.15736 3.91992,-3.19726 z m 26.84375,0.8125 c -0.12018,0.008 -0.25018,0.0151 -0.44336,0.082 -0.19313,0.0661 -0.55428,0.22185 -0.74609,0.70117 l -0.0156,0.0293 -0.008,0.0312 c -0.13493,0.40441 -0.33788,1.62836 -0.49609,2.42187 -0.6565,-1.00176 -1.06328,-2.38931 -2.10352,-2.79883 -1.4308,-0.56481 -2.97477,-0.58364 -4.42773,-0.0586 -1.45002,0.52388 -2.80942,1.54031 -4.11914,2.98242 -2.73679,2.94202 -4.60641,7.42999 -5.69922,13.47266 -0.86952,4.7393 -0.80613,8.60885 -0.0371,11.5 0.76842,2.88593 2.34566,4.93579 4.5625,5.4043 2.58028,0.59198 5.093,-0.44954 7.07813,-2.54688 1.20737,-1.27555 2.0442,-3.59487 2.99804,-5.58789 0.0832,1.29982 -0.003,2.98976 0.26563,3.94141 0.54251,1.92109 1.72586,3.31307 3.36523,3.6914 2.3178,0.52339 4.72332,-0.18938 6.97657,-1.89648 l 0.008,-0.008 h 0.006 c 1.1303,-0.88305 1.76592,-2.30638 2.63476,-3.47852 0.2177,0.39647 0.25891,0.95091 0.52344,1.30664 1.98762,2.673 4.67843,4.10547 7.77344,4.10547 2.95752,0 5.70735,-0.75546 8.20898,-2.31055 0.72348,-0.43166 0.99347,-1.27345 1.60938,-1.80859 0.18104,1.07958 0.4623,2.02585 1.0039,2.75391 0.58341,0.78432 1.49483,1.29754 2.46485,1.36523 h 0.0156 0.0234 c 0.89673,0.0389 1.68422,-0.11034 2.33203,-0.54688 0.55635,-0.37492 0.95844,-1.11044 0.93164,-1.83203 0.90696,-3.14369 1.95171,-5.51994 2.94531,-8.16992 0.0977,0.0334 0.19181,0.0421 0.28907,0.0664 l -7.60547,-15.2793 c -0.55523,3.58564 -1.17173,7.351 -1.85156,11.48242 -0.30161,1.77196 -0.13158,2.66794 -0.25782,4.09766 -1.53192,2.74643 -3.95717,4.76758 -6.58398,4.76758 -1.95338,0 -3.26225,-0.99279 -4.21485,-3.09961 -0.95259,-2.10682 -1.3405,-5.32285 -0.94531,-9.1836 0.29896,-2.50673 1.023,-4.19286 1.69141,-5.98632 0.0813,0.50925 0.19727,1.069 0.41992,1.68359 0.2589,0.71418 0.61316,1.45081 1.15234,2.08203 0.52766,0.6178 1.34269,1.14488 2.31641,1.14258 1.72154,0.096 3.26579,-0.69623 4.39258,-1.85938 1.13937,-1.17611 1.93317,-2.72539 2.32617,-4.32617 0.40929,-1.63725 0.25437,-3.3622 -0.49609,-4.83398 -0.75032,-1.47179 -2.13953,-2.66823 -4,-3.08594 h -0.008 l -0.008,-0.008 c -3.59059,-0.77443 -7.16365,0.48139 -10.30469,3.35156 -3.2872,2.94478 -5.19456,7.46883 -5.77929,13.31641 -0.25361,2.56599 -0.22228,4.82752 0.10351,6.82031 -0.47592,0.87141 -0.81999,1.91333 -1.43945,2.5918 -0.59501,0.65166 -1.14468,1.07569 -1.58008,1.28515 -0.3902,0.18784 -0.6505,0.20299 -0.89844,0.15235 -0.0189,-0.0378 -0.0935,-0.14929 -0.17968,-0.44141 -0.15307,-0.51727 -0.27055,-1.38055 -0.28907,-2.48633 -0.0378,-2.20804 0.28727,-5.38266 0.99805,-9.0957 v -0.0156 c 0.0514,-0.25398 0.18085,-0.78736 0.30859,-1.48242 v -0.0156 c 0.44391,-2.09507 0.7016,-3.69705 0.88672,-4.7461 v -0.006 l 0.008,-0.0156 c 0.33335,-2.1343 0.56227,-4.7462 -0.51758,-6.64258 -0.76615,-1.35205 -2.12914,-2.05858 -3.29883,-2.49609 -0.58484,-0.21884 -1.13237,-0.36434 -1.5957,-0.43555 -0.23169,-0.034 -0.42989,-0.0574 -0.66993,-0.0449 z m 21.4004,4.45508 h 0.004 c 0.0784,-0.003 0.15721,8.2e-4 0.23828,0.0117 0.72707,0.11263 1.19899,0.26911 1.51367,0.46485 0.32429,0.21316 0.3275,0.2989 0.33204,0.34765 0.004,0.0499 -0.0188,0.2793 -0.34766,0.67774 h -0.004 v 0.006 c -0.8273,1.02198 -1.95733,1.45851 -3.81054,1.40234 l 0.41406,0.0977 c -0.21279,-0.0915 -0.57725,-0.13865 -0.88672,-0.0215 -0.0582,0.0227 -0.0599,0.0603 -0.10938,0.0879 0.0714,-0.13719 0.072,-0.39976 0.14649,-0.53125 l 0.008,-0.008 c 9.8e-4,-0.002 -9.4e-4,-0.008 0,-0.008 0.61452,-1.04999 1.19886,-1.76095 1.66797,-2.13281 0.35017,-0.27758 0.59564,-0.3794 0.83399,-0.39453 z m -26.97266,1.32812 h 0.002 c 0.0895,-0.0145 0.1666,0.0116 0.27735,0.0566 l 0.0215,0.008 0.0234,0.006 c 0.44757,0.16592 0.88466,0.60463 1.27539,1.67578 0.38048,1.04304 0.63434,2.6479 0.73242,4.67188 -1.14399,5.67228 -2.4272,10.04775 -3.67773,12.79297 -0.63251,1.38848 -1.2659,2.3658 -1.77149,2.8789 -0.49716,0.50453 -0.69194,0.5097 -0.84765,0.47266 -0.0624,-0.0189 -0.22375,-0.10696 -0.43555,-0.62109 -0.2177,-0.52838 -0.40303,-1.39896 -0.48047,-2.52344 -0.15496,-2.24901 0.0873,-5.49385 0.73828,-9.33789 v -0.006 c 0.61538,-3.72302 1.53411,-6.58827 2.48047,-8.2832 0.47316,-0.84745 0.96014,-1.382 1.29883,-1.60938 0.16859,-0.11327 0.27321,-0.16663 0.36328,-0.18164 z m 171.5625,0 h 0.002 c 0.0895,-0.0145 0.1666,0.0116 0.27735,0.0566 l 0.0215,0.008 0.0234,0.006 c 0.44757,0.16592 0.88466,0.60463 1.27539,1.67578 0.37931,1.03983 0.63362,2.6433 0.73242,4.65821 -1.14505,5.68244 -2.42569,10.05809 -3.67773,12.80664 -0.63251,1.38848 -1.27172,2.3658 -1.77735,2.8789 -0.49708,0.5045 -0.68612,0.50966 -0.84179,0.47266 -0.0624,-0.0189 -0.22375,-0.10696 -0.43555,-0.62109 -0.2177,-0.52838 -0.40303,-1.39896 -0.48047,-2.52344 -0.15496,-2.24901 0.0873,-5.49385 0.73828,-9.33789 v -0.006 c 0.61538,-3.72302 1.53415,-6.58827 2.48047,-8.2832 0.47316,-0.84745 0.96014,-1.382 1.29883,-1.60938 0.16859,-0.11327 0.27321,-0.16663 0.36328,-0.18164 z m -194.16992,4.87695 0.0156,0.0742 c -0.002,-0.0151 -0.0215,-0.0302 -0.0215,-0.0449 -0.002,-0.007 0.008,-0.0187 0.006,-0.0293 z m 153.14648,10.39258 -6.46289,12.98438 c 2.32489,-0.94776 4.08755,-2.63404 5.20117,-4.57032 1.56194,-2.71582 2.02275,-5.87266 1.26172,-8.41406 z m 7.83789,9.69336 0.008,0.0527 -0.0176,0.12695 c 7.1e-4,-0.0601 0.0135,-0.11997 0.01,-0.17969 z m 53.83008,0.002 0.008,0.0527 -0.0176,0.12695 c 7.6e-4,-0.0601 0.0136,-0.11959 0.01,-0.17969 z m -219.22656,6.74219 -0.002,0.002 c -1.00127,3.03322 -2.03642,5.85581 -3.16601,7.57421 -1.38044,2.10006 -2.77319,3.14272 -4.13477,3.41016 h -0.006 c -1.24274,0.25436 -2.12265,0.17989 -2.6875,-0.0586 -0.56485,-0.23849 -0.90814,-0.60055 -1.17187,-1.34375 -0.54682,-1.54107 -0.22037,-3.18608 1.43945,-5.18946 l 0.0137,-0.0156 0.008,-0.0156 c 2.27455,-2.93166 5.52094,-4.21247 9.70703,-4.36328 z" style="font-style:normal;font-variant:normal;font-weight:normal;font-stretch:normal;font-size:16.64812851px;line-height:1.25;font-family:SVN-Monday;-inkscape-font-specification:'SVN-Monday, Normal';font-variant-ligatures:normal;font-variant-caps:normal;font-variant-numeric:normal;font-feature-settings:normal;text-align:start;letter-spacing:0px;word-spacing:0px;writing-mode:lr-tb;text-anchor:start;fill:#ffffff;fill-opacity:1;stroke:none;stroke-width:0.9511236" inkscape:connector-curvature="0" />
    </g>
    <path style="font-style:normal;font-variant:normal;font-weight:normal;font-stretch:normal;font-size:16.64812851px;line-height:1.25;font-family:SVN-Monday;-inkscape-font-specification:'SVN-Monday, Normal';font-variant-ligatures:normal;font-variant-caps:normal;font-variant-numeric:normal;font-feature-settings:normal;text-align:start;letter-spacing:0px;word-spacing:0px;writing-mode:lr-tb;text-anchor:start;fill:#000000;fill-opacity:1;stroke:none;stroke-width:0.26458332" d="m 170.32426,220.78954 c -0.47437,-0.009 -0.91743,0.26874 -1.25626,0.73432 -0.22379,0.29839 -0.3957,0.74078 -0.56999,1.27744 -0.7514,0.60791 -1.44227,1.23142 -2.08204,1.8712 h -0.002 v 0.002 c -0.6533,0.66189 -1.2124,1.41783 -1.52136,2.18798 -0.30896,0.77015 -0.36445,1.58819 0.0661,2.26343 0.33423,0.52224 1.01261,0.83046 1.69344,0.60565 0.39332,-0.12509 0.69881,-0.41656 0.9064,-0.81287 0.0702,-0.13496 0.10982,-0.26585 0.1385,-0.39532 -0.18637,1.86441 -0.37074,3.73567 -0.6873,5.01674 -1.64419,0.026 -3.21785,0.64677 -4.18011,1.84537 -0.7124,0.88593 -0.78967,1.91874 -0.38447,2.67787 0.40519,0.75913 1.29869,1.22234 2.34146,1.01751 h 0.002 c 1.50168,-0.30034 2.67437,-1.78002 3.58996,-4.16409 0.55952,0.149 1.13765,0.35638 1.74047,0.7152 l 0.0289,0.0155 0.0295,0.01 c 0.1453,0.0484 0.22106,0.004 0.2775,-0.0233 0.0564,-0.0271 0.0992,-0.0584 0.14056,-0.0956 0.0828,-0.0744 0.15754,-0.17122 0.20722,-0.30076 0.0497,-0.12954 0.0664,-0.30148 0.001,-0.46715 -0.0643,-0.16404 -0.19939,-0.30148 -0.38085,-0.40411 -0.45569,-0.28715 -1.02744,-0.47135 -1.63246,-0.62529 0.70192,-2.26673 1.18931,-5.15105 1.43144,-8.71833 v -0.004 -0.002 c 0.0471,-0.91016 0.0929,-1.48731 0.12505,-1.81074 0.28531,-0.19742 0.53694,-0.39777 0.6873,-0.61495 h 0.002 c 0.21349,-0.31052 0.31108,-0.64297 0.26562,-0.96118 v -0.002 -0.002 c -0.0316,-0.20007 -0.10789,-0.38963 -0.24391,-0.53537 -0.13603,-0.14574 -0.32146,-0.23652 -0.52349,-0.27905 h -0.002 l -0.004,-5.2e-4 c -0.0688,-0.0132 -0.13687,-0.0199 -0.20464,-0.0212 z m 14.16193,0.27801 v 10e-4 c -0.0737,0.003 -0.13594,0.0108 -0.20515,0.0315 -0.0346,0.0104 -0.071,0.0218 -0.12093,0.0563 -0.0389,0.027 -0.10251,0.086 -0.12919,0.17931 -0.0189,0.0598 -0.0182,0.0826 -0.0232,0.12351 -0.005,0.0436 -0.0113,0.097 -0.0176,0.16227 -0.0126,0.13067 -0.03,0.31134 -0.0548,0.55087 -0.0491,0.47502 -0.11495,0.98708 -0.18138,1.53479 -0.0837,0.55276 -0.19907,1.38395 -0.36536,2.49804 -0.16594,1.1118 -0.36539,2.30953 -0.58187,3.6251 -0.0798,0.46883 -0.0353,0.70589 -0.0687,1.08417 -0.40532,0.72666 -1.04701,1.26142 -1.74202,1.26142 -0.51683,0 -0.86313,-0.26267 -1.11517,-0.8201 -0.25204,-0.55743 -0.35468,-1.40834 -0.25012,-2.42983 0.0791,-0.66324 0.27067,-1.10936 0.44752,-1.58388 0.0215,0.13474 0.0522,0.28284 0.11111,0.44545 0.0685,0.18896 0.16223,0.38386 0.30489,0.55087 0.13961,0.16346 0.35525,0.30292 0.61288,0.30231 0.45549,0.0254 0.86407,-0.18421 1.1622,-0.49196 0.30146,-0.31118 0.51149,-0.7211 0.61547,-1.14464 0.10829,-0.43319 0.0673,-0.88958 -0.13126,-1.27899 -0.19852,-0.38941 -0.56608,-0.70597 -1.05833,-0.81649 h -0.002 l -0.002,-0.002 c -0.95001,-0.2049 -1.89539,0.12736 -2.72646,0.88676 -0.86974,0.77914 -1.37439,1.97614 -1.5291,3.52331 -0.0671,0.67892 -0.0588,1.27728 0.0274,1.80454 -0.12592,0.23056 -0.21696,0.50623 -0.38086,0.68574 -0.15743,0.17242 -0.30286,0.28461 -0.41806,0.34003 -0.10324,0.0497 -0.17211,0.0537 -0.23771,0.0403 -0.005,-0.01 -0.0247,-0.0395 -0.0475,-0.11679 -0.0405,-0.13686 -0.0716,-0.36527 -0.0765,-0.65784 -0.01,-0.58421 0.076,-1.42416 0.26406,-2.40657 v -0.004 c 0.0136,-0.0672 0.0478,-0.20832 0.0816,-0.39222 v -0.004 c 0.11745,-0.55432 0.18563,-0.97818 0.23461,-1.25574 v -0.002 l 0.002,-0.004 c 0.0882,-0.5647 0.14877,-1.25577 -0.13694,-1.75752 -0.20271,-0.35773 -0.56333,-0.54466 -0.87281,-0.66042 -0.15474,-0.0579 -0.29961,-0.0964 -0.4222,-0.11524 -0.0613,-0.009 -0.11374,-0.0152 -0.17725,-0.0119 -0.0318,0.002 -0.0662,0.004 -0.11731,0.0217 -0.0511,0.0175 -0.14665,0.0587 -0.1974,0.18552 l -0.004,0.008 -0.002,0.008 c -0.0357,0.107 -0.0894,0.43084 -0.13126,0.64079 -0.1737,-0.26505 -0.28132,-0.63217 -0.55655,-0.74052 -0.37857,-0.14944 -0.78708,-0.15442 -1.17151,-0.0155 -0.38365,0.13861 -0.74332,0.40754 -1.08985,0.7891 -0.72411,0.77841 -1.21878,1.96585 -1.50792,3.56464 -0.23006,1.25394 -0.21347,2.27776 -0.01,3.04271 0.20331,0.76357 0.62062,1.30592 1.20716,1.42988 0.6827,0.15663 1.34752,-0.11894 1.87275,-0.67386 0.31945,-0.33749 0.54087,-0.95114 0.79324,-1.47846 0.022,0.34391 -8.2e-4,0.79104 0.0703,1.04283 0.14354,0.50829 0.45663,0.87658 0.89038,0.97668 0.61325,0.13848 1.24971,-0.0501 1.84588,-0.50177 l 0.002,-0.002 h 0.002 c 0.29906,-0.23364 0.46724,-0.61023 0.69712,-0.92036 0.0576,0.1049 0.0685,0.2516 0.13849,0.34572 0.52589,0.70723 1.23784,1.08624 2.05673,1.08624 0.78251,0 1.51007,-0.19989 2.17196,-0.61134 0.19142,-0.11421 0.26285,-0.33693 0.42581,-0.47852 0.0479,0.28564 0.12232,0.53601 0.26562,0.72864 0.15436,0.20752 0.3955,0.34331 0.65215,0.36122 h 0.004 0.006 c 0.23726,0.0103 0.44562,-0.0292 0.61702,-0.1447 0.1472,-0.0992 0.25359,-0.2938 0.2465,-0.48472 0.23997,-0.83177 0.51639,-1.46049 0.77928,-2.16163 0.12127,0.0414 0.24467,0.0589 0.33745,0.031 0.61203,-0.18361 0.96193,-0.11565 1.01957,-0.0858 0.07,0.0763 0.10841,0.15 0.11524,0.28112 0.008,0.14661 -0.0257,0.34854 -0.0816,0.58033 v 0.004 l -0.002,0.004 c -0.12132,0.56927 -0.0379,1.07528 0.22428,1.44177 0.26181,0.366 0.695,0.56789 1.16634,0.56844 0.80323,0.0121 1.47683,-0.49075 2.06447,-1.18752 0.13243,0.54331 0.38268,1.00019 0.83974,1.1405 0.58994,0.18308 1.23817,0.005 1.83762,-0.46664 h 0.002 c 0.34647,-0.2632 0.54796,-0.68723 0.80305,-1.05471 0.0968,0.17231 0.15294,0.40024 0.2713,0.54105 0.5858,0.69695 1.385,0.9966 2.08773,1.04283 1.76621,0.12488 3.27524,-0.8336 3.93981,-2.32441 0.0766,-0.17244 0.12857,-0.33161 0.12506,-0.50384 -0.004,-0.17138 -0.0897,-0.3592 -0.22893,-0.46871 -0.0569,-0.0455 -0.0825,-0.0975 -0.24184,-0.11524 -0.0797,-0.009 -0.22845,0.037 -0.29508,0.12713 -0.0401,0.0542 -0.0536,0.0984 -0.0599,0.13746 -0.16672,0.51683 -0.45375,0.91661 -0.90485,1.26245 -0.45691,0.35029 -0.88674,0.4977 -1.35341,0.45527 -0.68816,-0.0626 -1.21882,-0.63812 -1.49448,-1.53892 0.94115,-0.15819 1.79588,-0.62266 2.50786,-1.44539 l 0.004,-0.002 0.002,-0.002 c 0.67963,-0.81904 1.03758,-1.66638 0.98237,-2.54093 -0.0281,-0.45882 -0.17392,-0.86537 -0.45114,-1.17564 -0.27685,-0.30987 -0.67123,-0.51413 -1.14876,-0.61546 h -0.002 c -0.94935,-0.20402 -1.89596,0.12787 -2.72646,0.88676 -0.86973,0.77914 -1.37439,1.97614 -1.5291,3.52331 -0.0634,0.65646 10e-4,1.19191 0.10129,1.68775 -0.13916,0.27872 -0.25274,0.58977 -0.44701,0.80253 -0.15742,0.17242 -0.30286,0.28461 -0.41806,0.34003 -0.10827,0.0521 -0.17808,0.054 -0.2465,0.0377 -0.003,-0.004 -0.0229,-0.0259 -0.0501,-0.10801 -0.0403,-0.12182 -0.0727,-0.33133 -0.0786,-0.60358 -0.0117,-0.54451 0.0731,-1.34298 0.262,-2.32027 v -0.004 -0.004 c 0.0129,-0.0774 0.0477,-0.21789 0.0822,-0.40618 l 0.001,-0.006 c 0.11565,-0.57822 0.19937,-0.99549 0.24805,-1.22266 l 0.002,-0.0103 v -0.01 c 0.036,-0.25188 0.0592,-0.56849 0.0434,-0.88263 -0.0158,-0.31348 -0.0574,-0.62215 -0.21704,-0.88109 -0.16738,-0.27197 -0.43154,-0.49135 -0.76585,-0.59582 l -0.01,-0.004 -0.01,-0.002 c -0.15018,-0.0362 -0.30687,-0.0522 -0.46663,-0.0103 -0.15977,0.0422 -0.30746,0.14968 -0.41031,0.28732 -0.20473,0.27397 -0.2939,0.65458 -0.37104,1.23455 -0.15061,0.98729 -0.26852,1.92725 -0.3359,2.81998 v 0.002 c -0.0415,0.65544 0.0163,0.95569 0.0196,1.4335 -0.13896,0.31672 -0.26621,0.64736 -0.47439,0.88677 -0.30167,0.34691 -0.53317,0.43394 -0.6351,0.42788 -0.0214,-0.002 -0.0224,-0.002 -0.0351,-0.0155 -0.0142,-0.0157 -0.0429,-0.0616 -0.0625,-0.15452 -0.0392,-0.18547 -0.0325,-0.53491 0.0548,-1.00407 0.0876,-0.45762 5.2e-4,-0.88794 -0.25994,-1.19321 -0.13733,-0.16096 -0.39117,-0.1649 -0.59737,-0.24184 0.92702,-0.67234 1.66137,-1.62467 1.83967,-2.59416 v -0.002 c 0.10823,-0.57906 0.0678,-1.10585 -0.14831,-1.51722 -0.21638,-0.41191 -0.64083,-0.68368 -1.14463,-0.68368 -0.70696,0 -1.38654,0.51102 -2.15801,1.4025 -0.4389,0.50718 -0.79147,1.41351 -1.1777,2.15801 0.13757,-0.73977 0.2616,-1.46369 0.447,-2.25981 v -0.002 l 0.002,-0.002 c 0.26646,-1.21576 0.44934,-2.06394 0.53536,-2.59725 0.088,-0.54533 0.0801,-0.97417 -0.0491,-1.31879 v -0.002 -0.002 c -0.23449,-0.60576 -0.70511,-0.91526 -1.10122,-1.0356 -0.19806,-0.0602 -0.37823,-0.0794 -0.52555,-0.0739 z m 25.95089,0.005 c -0.0739,0.004 -0.13635,0.0115 -0.20102,0.0295 -0.0323,0.009 -0.0643,0.019 -0.11111,0.047 -0.0234,0.014 -0.0531,0.0323 -0.0863,0.0718 -0.0166,0.0197 -0.0341,0.0446 -0.0486,0.0786 -0.004,0.008 -0.006,0.0152 -0.01,0.0269 l -0.002,0.008 c -2.9e-4,9e-4 2.8e-4,0.001 0,0.002 -0.002,0.007 -0.006,0.0189 -0.006,0.0191 -6e-5,2.9e-4 -0.003,0.0153 -0.004,0.0294 -0.004,0.0225 -0.0105,0.0501 -0.0134,0.0744 -0.005,0.0436 -0.0113,0.0965 -0.0176,0.16175 -0.0127,0.13067 -0.0279,0.31134 -0.0527,0.55087 -0.0494,0.47741 -0.1172,0.99224 -0.18397,1.54305 -0.0837,0.55277 -0.19908,1.37974 -0.36483,2.49029 -0.16595,1.1118 -0.36591,2.30953 -0.5824,3.62511 -0.19372,1.13782 -0.25372,2.0008 -0.16174,2.63084 0.046,0.31525 0.12882,0.57746 0.28318,0.78497 0.15437,0.20752 0.39757,0.34331 0.65423,0.36122 h 0.004 0.004 c 0.23706,0.0103 0.44533,-0.031 0.61339,-0.14418 0.14805,-0.0998 0.24768,-0.27539 0.2589,-0.45631 0.41223,-1.46566 0.84034,-2.74863 1.2821,-3.8287 v -0.002 c 0.44519,-1.07977 0.82458,-1.83895 1.12293,-2.29133 0.14927,-0.22635 0.28123,-0.3743 0.36742,-0.44339 0.0365,-0.0293 0.0519,-0.0384 0.0605,-0.0434 0.0108,0.0367 0.0191,0.15225 -0.01,0.33486 -1.7e-4,0.001 1.7e-4,9.6e-4 0,0.002 -0.0478,0.20712 -0.0963,0.41509 -0.1447,0.64027 -4.6e-4,0.002 -0.002,0.006 -0.002,0.008 -1.4e-4,6.5e-4 1.4e-4,0.001 0,0.002 -0.11943,0.47882 -0.30299,1.3232 -0.3886,2.0252 -0.15153,1.17232 -0.16805,2.0984 -0.0351,2.79673 0.13309,0.69931 0.44871,1.21916 0.97462,1.387 h 0.002 c 0.58993,0.18307 1.23817,0.005 1.83761,-0.46716 h 0.002 c 0.21045,-0.15987 0.31103,-0.44099 0.48834,-0.64027 0.22051,0.65042 0.58907,1.13385 1.11932,1.24592 0.6834,0.15763 1.34701,-0.1184 1.87275,-0.67386 0.31995,-0.33803 0.54263,-0.95211 0.7953,-1.48053 0.022,0.34473 -9.6e-4,0.79265 0.0703,1.0449 0.14354,0.50829 0.45456,0.87658 0.88832,0.97668 h 0.002 c 0.61325,0.13848 1.24972,-0.0501 1.84589,-0.50178 l 0.002,-0.002 h 0.002 c 0.14452,-0.1129 0.20745,-0.31439 0.3359,-0.44546 0.0501,0.21991 0.0993,0.43835 0.21652,0.59583 0.15437,0.20752 0.39756,0.34332 0.65422,0.36122 h 0.004 0.004 c 0.23707,0.0103 0.44534,-0.0315 0.6134,-0.14469 0.14797,-0.0997 0.24707,-0.27497 0.25839,-0.45579 0.41223,-1.46572 0.84083,-2.74912 1.2826,-3.82922 v -0.002 c 0.44519,-1.07977 0.82459,-1.83843 1.12293,-2.29081 0.14928,-0.22636 0.28123,-0.3743 0.36742,-0.44339 0.0357,-0.0286 0.05,-0.0371 0.0584,-0.0424 0.0107,0.0375 0.0211,0.15195 -0.008,0.33331 -1.5e-4,0.001 1.8e-4,9.6e-4 0,0.002 -0.0478,0.20712 -0.0964,0.4156 -0.14469,0.64078 -4.6e-4,0.002 -10e-4,0.006 -0.002,0.008 -1.3e-4,6.5e-4 1.4e-4,0.001 0,0.002 -0.11942,0.47882 -0.30299,1.32372 -0.3886,2.02572 -0.15153,1.17232 -0.16801,2.0984 -0.0351,2.79673 0.13309,0.69931 0.4487,1.21864 0.97462,1.38648 h 0.002 c 0.58994,0.18307 1.23818,0.005 1.83762,-0.46664 h 0.002 c 0.58828,-0.44691 1.05047,-1.05434 1.36736,-1.78904 5.8e-4,-0.001 -5.8e-4,-0.003 0,-0.004 0.0772,-0.16474 0.12868,-0.32096 0.12868,-0.48627 0,-0.16453 -0.0735,-0.34238 -0.20103,-0.45682 -0.0507,-0.0532 -0.0825,-0.11097 -0.23047,-0.14056 -0.0783,-0.0157 -0.20701,0.009 -0.27906,0.0703 -0.072,0.061 -0.0939,0.12081 -0.10748,0.16175 v 0.002 0.004 c -0.1719,0.54696 -0.4153,0.96886 -0.73433,1.31826 -0.15743,0.17243 -0.30493,0.28462 -0.42012,0.34004 -0.11519,0.0554 -0.18896,0.0589 -0.26149,0.0388 -0.005,-0.001 -0.0393,-0.01 -0.0863,-0.1266 -0.0471,-0.11736 -0.0859,-0.32135 -0.0935,-0.59015 -0.0153,-0.53671 0.0877,-1.33242 0.34003,-2.31045 v -0.004 c 0.36079,-1.30981 0.52607,-2.24998 0.48007,-2.94917 -0.023,-0.35005 -0.10081,-0.64604 -0.25579,-0.8847 -0.15447,-0.23786 -0.39053,-0.40434 -0.65629,-0.48834 -0.38077,-0.12163 -0.79173,-0.0645 -1.16996,0.13126 -0.37823,0.19577 -0.73716,0.52226 -1.08779,0.96273 -0.33336,0.41878 -0.62513,1.27839 -0.94154,1.90427 0.0108,-0.0441 0.0257,-0.12073 0.0357,-0.16019 0.18753,-0.75015 0.29295,-1.41729 0.0935,-2.01538 -0.20733,-0.62201 -0.68635,-0.93582 -1.08986,-1.0511 -0.20176,-0.0576 -0.38575,-0.0721 -0.5333,-0.0661 -0.0738,0.003 -0.13823,0.0102 -0.20309,0.0274 -0.0324,0.009 -0.0637,0.0167 -0.1111,0.0444 -0.0237,0.0139 -0.0525,0.0326 -0.0863,0.0724 -0.0169,0.0198 -0.0358,0.0459 -0.0506,0.0801 -0.004,0.008 -0.006,0.0156 -0.01,0.0274 l -0.002,0.008 c -3.2e-4,0.001 3.1e-4,5.2e-4 0,0.002 -0.002,0.007 -0.006,0.0194 -0.006,0.0196 -8e-5,4e-4 -0.002,0.0224 -0.004,0.0413 -0.003,0.0232 -0.0133,0.0541 -0.016,0.0816 -0.005,0.051 -0.008,0.11489 -0.0134,0.19327 -0.0106,0.15675 -0.0247,0.37223 -0.0413,0.64647 -0.0659,1.10412 -0.21449,2.54347 -0.47853,4.04523 v 0.002 c -0.0864,0.50698 -0.0398,0.77007 -0.0718,1.1715 -0.14013,0.28185 -0.25661,0.59534 -0.44958,0.80667 -0.15742,0.17243 -0.30287,0.28462 -0.41807,0.34004 -0.10247,0.0493 -0.17175,0.0538 -0.23719,0.0408 -0.004,-0.009 -0.0241,-0.0376 -0.0475,-0.11679 -0.0405,-0.13686 -0.0715,-0.36579 -0.0765,-0.65836 -0.01,-0.58514 0.0749,-1.42573 0.26355,-2.41019 0.0139,-0.069 0.0476,-0.21193 0.0822,-0.40255 v 0.0103 c 0.11811,-0.55679 0.18548,-0.98148 0.23461,-1.25987 v -0.002 -0.004 c 0.0882,-0.5647 0.15084,-1.25577 -0.13487,-1.75752 -0.20271,-0.35773 -0.56385,-0.54466 -0.87333,-0.66042 -0.15474,-0.0579 -0.29909,-0.0964 -0.42168,-0.11524 -0.0613,-0.009 -0.11426,-0.0147 -0.17777,-0.0114 -0.0318,0.002 -0.0662,0.004 -0.11731,0.0212 -0.0511,0.0175 -0.14614,0.0587 -0.19688,0.18552 l -0.004,0.008 -0.004,0.008 c -0.0356,0.10671 -0.0895,0.42962 -0.13126,0.63872 -0.17346,-0.26386 -0.28007,-0.62991 -0.55449,-0.73794 -0.37857,-0.14944 -0.78759,-0.15494 -1.17202,-0.016 -0.38365,0.13861 -0.74332,0.40754 -1.08986,0.7891 -0.7241,0.77841 -1.21877,1.96585 -1.50792,3.56464 -0.12979,0.70745 -0.0218,1.16099 -0.006,1.71669 -0.14199,0.29103 -0.2621,0.60987 -0.46302,0.82992 -0.15742,0.17242 -0.30441,0.28461 -0.41961,0.34003 -0.1152,0.0554 -0.18947,0.0594 -0.262,0.0393 -0.005,-0.001 -0.0387,-0.0102 -0.0858,-0.12713 -0.0471,-0.11736 -0.0864,-0.32083 -0.094,-0.58963 -0.0153,-0.53671 0.0877,-1.33294 0.34003,-2.31097 v -0.004 c 0.36079,-1.30981 0.52659,-2.24999 0.48059,-2.94918 -0.023,-0.35005 -0.10081,-0.64604 -0.2558,-0.8847 -0.15447,-0.23786 -0.39052,-0.40434 -0.65629,-0.48834 -0.38076,-0.12163 -0.79172,-0.065 -1.16995,0.13074 -0.37823,0.19578 -0.73716,0.52226 -1.08779,0.96273 -0.35625,0.44754 -0.66957,1.35129 -1.00614,2.03502 0.11902,-0.61683 0.21488,-1.20431 0.36742,-1.85932 l 0.002,-0.002 v -0.002 c 0.26647,-1.21577 0.44883,-2.06447 0.53485,-2.59778 0.0876,-0.54291 0.079,-0.96876 -0.0486,-1.31258 -0.20844,-0.62282 -0.6849,-0.94004 -1.08779,-1.05265 -0.20256,-0.0566 -0.3875,-0.0702 -0.53537,-0.0625 z m -3.35535,0.0822 c -0.22555,-0.0103 -0.45099,0.006 -0.67387,0.0491 v -5.2e-4 c -0.44575,0.0856 -0.88272,0.27766 -1.30276,0.57258 -0.82712,0.58074 -1.50957,1.40554 -2.02727,2.4567 -2.9e-4,5.7e-4 2.9e-4,0.001 0,0.002 -4.4e-4,8.9e-4 -0.002,0.001 -0.002,0.002 -0.53089,1.04579 -0.85608,2.14798 -0.97617,3.31453 -0.18688,1.81786 -0.006,3.30733 0.57981,4.46071 0.5751,1.13277 1.36155,1.84481 2.35955,1.97662 1.43139,0.18905 2.4555,-0.50376 2.96675,-1.39268 0.51124,-0.88892 0.5859,-1.96119 0.14056,-2.6758 l -0.002,-0.002 c -0.1184,-0.18746 -0.25505,-0.34054 -0.44339,-0.42582 -0.18833,-0.0853 -0.41885,-0.0728 -0.60358,0.0134 l -0.0191,0.0103 -0.0196,0.0134 c -0.0378,0.0252 -0.0732,0.0479 -0.11937,0.1018 -0.0231,0.0269 -0.0534,0.0619 -0.0739,0.14056 -0.0205,0.0786 0.007,0.22795 0.0817,0.30282 l -0.0212,-0.0238 c 0.31624,0.38872 0.38996,1.04473 0.21084,1.58389 -0.17912,0.53915 -0.55189,0.92397 -1.12706,0.92397 -0.32102,0 -0.57451,-0.1022 -0.81443,-0.33176 -0.23991,-0.22956 -0.46006,-0.60029 -0.63303,-1.12707 -0.34786,-1.04358 -0.44886,-2.36726 -0.26924,-3.95118 v -0.002 -0.002 c 0.0807,-0.7906 0.2595,-1.56773 0.50385,-2.33371 v -0.002 c 0.23879,-0.7316 0.58668,-1.36207 1.02526,-1.87896 l 0.002,-0.002 0.002,-0.002 c 0.40557,-0.4957 0.78382,-0.658 1.2268,-0.60565 0.39562,0.0576 0.59718,0.19557 0.71675,0.43201 0.14799,0.30975 0.10414,0.60905 -0.20154,1.01751 -0.39308,0.50821 -0.89423,0.72657 -1.65003,0.66611 l 0.0801,0.0176 c -0.062,-0.0233 -0.17465,-0.0293 -0.25993,0.0176 -0.0853,0.0469 -0.12252,0.11496 -0.14056,0.15813 -0.0361,0.0863 -0.0281,0.12548 -0.0274,0.16588 0.001,0.0808 0.0147,0.15163 0.0351,0.23823 0.0408,0.17321 0.11419,0.39056 0.22272,0.6134 0.10854,0.22283 0.24988,0.45112 0.44546,0.63459 0.19207,0.18019 0.45937,0.31354 0.76171,0.29507 0.60321,-0.004 1.11794,-0.31189 1.48001,-0.75396 0.36454,-0.4451 0.59665,-1.02101 0.69143,-1.61902 0.0948,-0.59802 0.0534,-1.22152 -0.17157,-1.75958 -0.22493,-0.53807 -0.65337,-0.99151 -1.27537,-1.17616 l -0.002,-0.002 c -0.22454,-0.0642 -0.45038,-0.10133 -0.67593,-0.11162 z m -15.16188,0.91571 c -0.766,0 -1.39836,0.63779 -1.39836,1.41593 0,0.766 0.63792,1.38079 1.39836,1.38079 0.77274,0 1.40043,-0.62035 1.40043,-1.38079 0,-0.77274 -0.62228,-1.41593 -1.40043,-1.41593 z m -23.74637,2.51354 c -0.0283,0.27693 -0.0724,0.55115 -0.0816,0.83044 -0.0565,0.90889 -0.21208,1.36312 -0.28939,2.17558 -0.0145,-0.0795 -0.0277,-0.16047 -0.1111,-0.24392 -0.10003,-0.10003 -0.31822,-0.12356 -0.43202,-0.0667 -0.29173,0.12539 -0.52761,0.17387 -0.69504,0.16795 -0.1684,-0.006 -0.26813,-0.0532 -0.36536,-0.15451 -0.0393,-0.0435 -0.0572,-0.0821 -0.0605,-0.16382 -0.003,-0.0826 0.0183,-0.20763 0.0842,-0.36897 0.13193,-0.32268 0.43409,-0.77745 0.91364,-1.33015 0.26023,-0.30187 0.66318,-0.5708 1.03715,-0.84594 z m 12.76461,1.39371 c 0.0211,-0.001 0.0418,7e-5 0.0636,0.003 0.19237,0.0298 0.31723,0.0712 0.40049,0.12299 0.0858,0.0564 0.0867,0.0791 0.0879,0.092 0.001,0.0132 -0.005,0.0739 -0.092,0.17932 h -0.001 v 0.002 c -0.21889,0.2704 -0.51788,0.3859 -1.00821,0.37104 l 0.10955,0.0258 c -0.0563,-0.0242 -0.15273,-0.037 -0.23461,-0.006 -0.0154,0.006 -0.0158,0.016 -0.0289,0.0233 0.0189,-0.0363 0.0191,-0.10577 0.0388,-0.14056 l 0.002,-0.002 c 2.6e-4,-4.5e-4 -2.5e-4,-0.002 0,-0.002 0.16259,-0.27781 0.3172,-0.46591 0.44132,-0.5643 0.0931,-0.0738 0.15834,-0.10059 0.22169,-0.10439 z m 15.62334,0 c 0.0169,-0.002 0.0322,-6.3e-4 0.046,0.002 v -5.2e-4 l 0.008,0.002 0.01,0.002 c 0.0113,0.001 -0.002,-0.008 0.01,0.006 0.0119,0.0141 0.0402,0.0615 0.0584,0.15245 v 0.004 0.002 c 0.0946,0.43259 -0.0117,1.07745 -0.38085,1.91203 v 0.002 l -0.002,0.002 c -0.31128,0.73031 -0.68047,1.13297 -1.08211,1.39836 0.002,-0.17432 -0.0157,-0.34593 0.008,-0.52554 v -0.002 -0.002 c 0.11313,-0.95352 0.33888,-1.69528 0.66249,-2.26601 v -0.002 c 0.16288,-0.27887 0.32102,-0.47156 0.44907,-0.57619 0.0962,-0.0786 0.16321,-0.10563 0.21394,-0.11059 z m -22.75986,0.3514 c 0.0239,-0.004 0.0439,0.003 0.0734,0.015 l 0.006,0.002 0.006,0.002 c 0.11842,0.0439 0.23407,0.15997 0.33745,0.44338 0.10067,0.27597 0.16784,0.70059 0.19379,1.2361 -0.30268,1.50079 -0.64221,2.65847 -0.97308,3.38481 -0.16735,0.36737 -0.33493,0.62595 -0.4687,0.76171 -0.13154,0.13349 -0.18308,0.13486 -0.22428,0.12506 -0.0165,-0.005 -0.0592,-0.0283 -0.11524,-0.16433 -0.0576,-0.1398 -0.10663,-0.37014 -0.12712,-0.66766 -0.041,-0.59505 0.0231,-1.45358 0.19534,-2.47065 v -0.002 c 0.16282,-0.98505 0.4059,-1.74315 0.65629,-2.1916 0.12519,-0.22422 0.25404,-0.36565 0.34365,-0.42581 0.0448,-0.0301 0.0727,-0.0442 0.0966,-0.0481 z m 45.3926,0 c 0.0239,-0.004 0.0439,0.003 0.0734,0.015 l 0.006,0.002 0.006,0.002 c 0.11842,0.0439 0.23407,0.15997 0.33745,0.44338 0.10036,0.27512 0.16765,0.69938 0.19379,1.23249 -0.30296,1.50348 -0.6418,2.6612 -0.97307,3.38842 -0.16735,0.36737 -0.33648,0.62595 -0.47026,0.76171 -0.13152,0.13348 -0.18153,0.13485 -0.22272,0.12506 -0.0165,-0.005 -0.0592,-0.0283 -0.11524,-0.16433 -0.0576,-0.1398 -0.10664,-0.37014 -0.12713,-0.66766 -0.041,-0.59505 0.0231,-1.45358 0.19534,-2.47065 v -0.002 c 0.16282,-0.98505 0.40591,-1.74315 0.65629,-2.1916 0.12519,-0.22422 0.25404,-0.36565 0.34365,-0.42581 0.0448,-0.0301 0.0727,-0.0442 0.0966,-0.0481 z m -31.70041,0.32349 0.006,0.002 0.008,0.002 c -0.0223,-0.006 0.0187,-0.004 0.047,0.15244 0.0284,0.1567 0.0192,0.42032 -0.0646,0.74776 l -0.002,0.006 -0.002,0.008 c -0.0838,0.40508 -0.34533,0.84476 -0.80667,1.33791 -0.3667,0.37786 -0.68339,0.51038 -0.98805,0.6289 0.034,-0.0756 0.0611,-0.18996 0.0956,-0.26355 l 0.002,-0.002 c 0.48551,-1.05332 0.9,-1.76215 1.2206,-2.17351 0.1603,-0.20569 0.29919,-0.33664 0.39067,-0.39687 0.0915,-0.0602 0.1097,-0.0437 0.0935,-0.0486 z m -19.67374,0.96687 0.004,0.0196 c -5.5e-4,-0.004 -0.006,-0.008 -0.006,-0.0119 -5.1e-4,-0.002 0.003,-0.005 0.002,-0.008 z m 31.88489,3.09387 c -0.005,0.008 4.3e-4,0.007 -0.006,0.0155 -0.002,0.002 -0.006,0.002 -0.008,0.004 0.003,-0.008 0.0114,-0.0119 0.014,-0.0196 z m -9.71104,1.63091 c 1.9e-4,0.001 0.002,9.2e-4 0.002,0.002 4.4e-4,0.002 -4.4e-4,0.008 0,0.01 z m 20.41995,0.58962 0.002,0.014 -0.005,0.0336 c 1.9e-4,-0.0159 0.004,-0.0317 0.003,-0.0475 z m 14.24255,5.2e-4 0.002,0.0139 -0.005,0.0336 c 2e-4,-0.0159 0.004,-0.0316 0.003,-0.0475 z m -58.00424,1.78439 c -0.26492,0.80254 -0.53881,1.54935 -0.83768,2.00401 -0.36524,0.55564 -0.73374,0.83151 -1.09399,0.90227 h -0.002 c -0.32881,0.0673 -0.56162,0.0476 -0.71107,-0.0155 -0.14945,-0.0631 -0.24028,-0.1589 -0.31006,-0.35554 -0.14468,-0.40774 -0.0583,-0.84298 0.38086,-1.37304 l 0.004,-0.004 0.002,-0.004 c 0.60181,-0.77567 1.46075,-1.11455 2.56832,-1.15445 z" id="path4641" inkscape:connector-curvature="0" />
  </g>
</svg>
